<svg xmlns="http://www.w3.org/2000/svg" xmlns:xlink="http://www.w3.org/1999/xlink" width="500" zoomAndPan="magnify" viewBox="0 0 375 374.999991" height="500" preserveAspectRatio="xMidYMid meet" version="1.0"><defs><clipPath id="11d96b7b4b"><path d="M 124.128906 139.207031 L 238 139.207031 L 238 262.5 L 124.128906 262.5 Z M 124.128906 139.207031 " clip-rule="nonzero"/></clipPath><clipPath id="59ddd5eb12"><path d="M 112.5 112.5 L 155 112.5 L 155 154 L 112.5 154 Z M 112.5 112.5 " clip-rule="nonzero"/></clipPath><clipPath id="feb89ce857"><path d="M 211.425781 178.273438 L 256.449219 178.273438 L 256.449219 223.316406 L 211.425781 223.316406 Z M 211.425781 178.273438 " clip-rule="nonzero"/></clipPath></defs><g clip-path="url(#11d96b7b4b)"><path fill="#4b81d7" d="M 197.140625 262.507812 C 196.738281 262.507812 196.347656 262.347656 196.058594 262.058594 L 124.785156 190.882812 C 124.5 190.59375 124.335938 190.203125 124.335938 189.800781 C 124.335938 189.398438 124.5 189.007812 124.785156 188.71875 L 173.578125 139.929688 C 174.167969 139.335938 175.144531 139.335938 175.738281 139.929688 L 218.789062 182.980469 C 219.382812 183.574219 219.382812 184.546875 218.789062 185.140625 C 218.195312 185.734375 217.21875 185.734375 216.628906 185.140625 L 174.660156 143.171875 L 128.03125 189.800781 L 197.132812 258.816406 L 235.367188 220.480469 C 235.960938 219.878906 236.9375 219.878906 237.53125 220.480469 C 238.132812 221.074219 238.132812 222.050781 237.53125 222.644531 L 198.210938 262.058594 C 197.933594 262.347656 197.550781 262.507812 197.140625 262.507812 " fill-opacity="1" fill-rule="evenodd"/></g><path fill="#4b81d7" d="M 125.867188 191.332031 C 125.074219 191.332031 124.394531 190.707031 124.347656 189.90625 L 120.804688 137.191406 C 120.777344 136.75 120.941406 136.3125 121.257812 136.007812 C 121.574219 135.691406 122.003906 135.539062 122.453125 135.566406 L 174.78125 139.488281 C 175.625 139.554688 176.257812 140.28125 176.199219 141.132812 C 176.132812 141.976562 175.40625 142.605469 174.554688 142.550781 L 123.984375 138.761719 L 127.40625 189.714844 C 127.464844 190.554688 126.824219 191.28125 125.980469 191.339844 C 125.933594 191.332031 125.898438 191.332031 125.867188 191.332031 " fill-opacity="1" fill-rule="evenodd"/><path fill="#4b81d7" d="M 129.980469 195.445312 C 129.589844 195.445312 129.195312 195.292969 128.898438 194.996094 C 128.308594 194.402344 128.308594 193.425781 128.898438 192.832031 L 177.691406 144.042969 C 178.285156 143.449219 179.261719 143.449219 179.851562 144.042969 C 180.445312 144.636719 180.445312 145.613281 179.851562 146.203125 L 131.0625 194.996094 C 130.765625 195.292969 130.375 195.445312 129.980469 195.445312 " fill-opacity="1" fill-rule="evenodd"/><path fill="#4b81d7" d="M 209.578125 250.070312 C 209.511719 250.070312 209.441406 250.070312 209.375 250.0625 L 180.582031 246.234375 C 179.738281 246.121094 179.152344 245.355469 179.261719 244.511719 C 179.375 243.671875 180.140625 243.089844 180.980469 243.191406 L 209.777344 247.019531 C 210.621094 247.136719 211.203125 247.898438 211.097656 248.742188 C 210.992188 249.515625 210.332031 250.070312 209.578125 250.070312 " fill-opacity="1" fill-rule="evenodd"/><path fill="#4b81d7" d="M 136.199219 159.328125 C 134.160156 159.328125 132.132812 158.566406 130.546875 157.042969 C 130.535156 157.035156 130.535156 157.035156 130.527344 157.023438 C 128.96875 155.464844 128.125 153.40625 128.144531 151.234375 C 128.164062 149.113281 129.015625 147.132812 130.535156 145.660156 C 133.710938 142.492188 138.6875 142.492188 141.863281 145.660156 C 143.382812 147.132812 144.234375 149.113281 144.253906 151.234375 C 144.273438 153.40625 143.433594 155.464844 141.871094 157.023438 C 141.863281 157.035156 141.863281 157.035156 141.855469 157.042969 C 140.265625 158.566406 138.238281 159.328125 136.199219 159.328125 Z M 132.679688 154.84375 C 134.660156 156.738281 137.738281 156.738281 139.71875 154.84375 C 140.6875 153.867188 141.210938 152.605469 141.203125 151.265625 C 141.195312 149.964844 140.667969 148.757812 139.738281 147.859375 C 139.730469 147.847656 139.730469 147.847656 139.71875 147.839844 C 137.722656 145.839844 134.699219 145.839844 132.699219 147.839844 C 132.6875 147.847656 132.6875 147.847656 132.679688 147.859375 C 131.742188 148.757812 131.226562 149.972656 131.214844 151.265625 C 131.1875 152.59375 131.710938 153.867188 132.679688 154.84375 Z M 132.679688 154.84375 " fill-opacity="1" fill-rule="evenodd"/><g clip-path="url(#59ddd5eb12)"><path fill="#4b81d7" d="M 134.679688 153.515625 C 134.640625 153.515625 134.613281 153.515625 134.574219 153.515625 C 133.625 153.484375 132.753906 153.09375 132.125 152.394531 L 116.75 137.019531 C 114.050781 134.324219 112.570312 130.714844 112.570312 126.851562 C 112.570312 122.984375 114.050781 119.378906 116.75 116.679688 C 119.449219 113.984375 123.054688 112.5 126.917969 112.5 C 130.785156 112.5 134.390625 113.984375 137.089844 116.679688 L 153.925781 133.613281 C 154.519531 134.21875 154.519531 135.183594 153.917969 135.777344 C 153.3125 136.371094 152.347656 136.371094 151.753906 135.765625 L 134.917969 118.835938 C 130.582031 114.5 123.246094 114.5 118.910156 118.835938 C 114.570312 123.175781 114.570312 130.503906 118.910156 134.847656 L 134.3125 150.25 C 134.335938 150.269531 134.351562 150.289062 134.371094 150.316406 C 134.449219 150.40625 134.542969 150.441406 134.660156 150.453125 C 134.753906 150.453125 134.9375 150.433594 135.109375 150.25 C 135.703125 149.660156 136.679688 149.660156 137.269531 150.25 C 137.863281 150.84375 137.863281 151.820312 137.269531 152.414062 C 136.582031 153.121094 135.632812 153.515625 134.679688 153.515625 " fill-opacity="1" fill-rule="evenodd"/></g><path fill="#4b81d7" d="M 168.25 183.074219 C 166.765625 183.074219 165.292969 182.527344 164.132812 181.4375 C 164.117188 181.429688 164.105469 181.410156 164.085938 181.390625 L 160.261719 177.46875 C 159.667969 176.867188 159.6875 175.902344 160.277344 175.308594 L 166.402344 169.28125 C 167.003906 168.6875 167.960938 168.695312 168.554688 169.289062 L 172.378906 173.117188 C 172.390625 173.125 172.402344 173.136719 172.410156 173.144531 C 174.59375 175.449219 174.59375 179.066406 172.410156 181.371094 C 172.390625 181.390625 172.371094 181.410156 172.351562 181.429688 C 171.207031 182.527344 169.730469 183.074219 168.25 183.074219 Z M 166.257812 179.238281 C 167.378906 180.269531 169.109375 180.28125 170.230469 179.25 C 171.261719 178.128906 171.25 176.386719 170.210938 175.277344 L 167.472656 172.542969 L 163.523438 176.4375 L 166.257812 179.238281 " fill-opacity="1" fill-rule="evenodd"/><path fill="#4b81d7" d="M 162.210938 189.109375 C 160.679688 189.109375 159.226562 188.527344 158.105469 187.476562 C 158.097656 187.464844 158.089844 187.457031 158.078125 187.445312 L 154.25 183.621094 C 153.65625 183.027344 153.648438 182.058594 154.242188 181.46875 L 160.269531 175.34375 C 160.554688 175.046875 160.949219 174.886719 161.359375 174.886719 C 161.773438 174.886719 162.164062 175.046875 162.449219 175.34375 L 166.257812 179.25 C 167.359375 180.300781 167.980469 181.714844 168.007812 183.238281 C 168.027344 184.804688 167.417969 186.308594 166.265625 187.445312 C 165.195312 188.519531 163.75 189.109375 162.210938 189.109375 Z M 160.222656 185.253906 C 161.332031 186.289062 163.074219 186.300781 164.105469 185.273438 C 164.660156 184.71875 164.957031 184.011719 164.945312 183.277344 C 164.9375 182.578125 164.652344 181.9375 164.132812 181.449219 C 164.117188 181.4375 164.105469 181.421875 164.085938 181.398438 L 161.351562 178.597656 L 157.484375 182.527344 L 160.222656 185.253906 " fill-opacity="1" fill-rule="evenodd"/><path fill="#4b81d7" d="M 178.722656 193.503906 C 177.230469 193.503906 175.738281 192.949219 174.628906 191.835938 L 170.707031 187.914062 C 170.421875 187.628906 170.257812 187.234375 170.257812 186.824219 C 170.257812 186.414062 170.421875 186.03125 170.714844 185.746094 L 176.839844 179.71875 C 177.441406 179.125 178.398438 179.132812 178.992188 179.726562 L 182.816406 183.554688 C 185.144531 185.878906 185.144531 189.511719 182.816406 191.835938 C 181.710938 192.949219 180.214844 193.503906 178.722656 193.503906 Z M 173.960938 186.84375 L 176.792969 189.675781 C 177.824219 190.707031 179.621094 190.707031 180.65625 189.675781 C 181.203125 189.128906 181.5 188.433594 181.5 187.695312 C 181.5 186.960938 181.203125 186.261719 180.65625 185.714844 L 177.902344 182.960938 L 173.960938 186.84375 " fill-opacity="1" fill-rule="evenodd"/><path fill="#4b81d7" d="M 165.761719 194.488281 C 165.367188 194.488281 164.984375 194.34375 164.691406 194.046875 C 164.085938 193.457031 164.078125 192.488281 164.671875 191.886719 L 170.699219 185.761719 C 171.289062 185.160156 172.257812 185.152344 172.859375 185.742188 C 173.464844 186.335938 173.472656 187.304688 172.878906 187.90625 L 166.851562 194.027344 C 166.554688 194.335938 166.152344 194.488281 165.761719 194.488281 " fill-opacity="1" fill-rule="evenodd"/><path fill="#4b81d7" d="M 172.746094 200.992188 C 172.582031 200.992188 172.410156 200.964844 172.246094 200.90625 C 171.445312 200.640625 171.023438 199.769531 171.289062 198.964844 L 174.257812 190.261719 C 174.523438 189.457031 175.394531 189.035156 176.199219 189.300781 C 177.003906 189.570312 177.421875 190.441406 177.15625 191.246094 L 174.191406 199.949219 C 173.976562 200.589844 173.386719 200.992188 172.746094 200.992188 " fill-opacity="1" fill-rule="evenodd"/><path fill="#4b81d7" d="M 185.46875 214.195312 C 185.257812 214.195312 185.046875 214.15625 184.847656 214.0625 C 184.070312 213.71875 183.726562 212.808594 184.070312 212.042969 L 189.917969 198.9375 L 182.550781 202.199219 L 176.820312 204.78125 C 176.042969 205.125 175.144531 204.78125 174.792969 204.015625 C 174.445312 203.242188 174.792969 202.339844 175.558594 201.988281 L 181.296875 199.40625 L 192.308594 194.527344 C 192.882812 194.269531 193.5625 194.394531 194.011719 194.84375 C 194.460938 195.292969 194.585938 195.972656 194.328125 196.542969 L 186.863281 213.285156 C 186.617188 213.859375 186.050781 214.195312 185.46875 214.195312 " fill-opacity="1" fill-rule="evenodd"/><path fill="#4b81d7" d="M 188.050781 208.453125 C 187.660156 208.453125 187.265625 208.300781 186.972656 208.007812 L 180.847656 201.882812 C 180.253906 201.289062 180.253906 200.3125 180.847656 199.722656 C 181.441406 199.128906 182.417969 199.128906 183.007812 199.722656 L 189.132812 205.84375 C 189.726562 206.4375 189.726562 207.414062 189.132812 208.007812 C 188.835938 208.300781 188.445312 208.453125 188.050781 208.453125 " fill-opacity="1" fill-rule="evenodd"/><path fill="#4b81d7" d="M 196.277344 225.003906 C 196.019531 225.003906 195.761719 224.9375 195.523438 224.804688 C 194.921875 224.46875 194.625 223.773438 194.796875 223.101562 L 198.328125 209.050781 L 190.089844 217.285156 C 189.496094 217.878906 188.519531 217.878906 187.925781 217.285156 C 187.332031 216.691406 187.332031 215.71875 187.925781 215.125 L 200.078125 202.972656 C 200.566406 202.484375 201.3125 202.378906 201.914062 202.726562 C 202.515625 203.058594 202.8125 203.757812 202.640625 204.429688 L 199.113281 218.480469 L 207.347656 210.246094 C 207.941406 209.652344 208.917969 209.652344 209.511719 210.246094 C 210.101562 210.835938 210.101562 211.8125 209.511719 212.40625 L 197.359375 224.558594 C 197.0625 224.851562 196.671875 225.003906 196.277344 225.003906 " fill-opacity="1" fill-rule="evenodd"/><path fill="#4b81d7" d="M 207.242188 233.78125 C 205.5 233.78125 203.769531 233.128906 202.46875 231.828125 L 198.738281 228.097656 C 198.144531 227.503906 198.144531 226.527344 198.738281 225.933594 L 210.886719 213.785156 C 211.480469 213.191406 212.457031 213.191406 213.050781 213.785156 L 216.78125 217.515625 C 219.375 220.109375 219.382812 224.414062 216.808594 227.121094 C 216.800781 227.128906 216.789062 227.136719 216.78125 227.148438 L 212.09375 231.835938 C 212.082031 231.84375 212.074219 231.855469 212.066406 231.867188 C 210.722656 233.136719 208.972656 233.78125 207.242188 233.78125 Z M 201.980469 227.015625 L 204.632812 229.664062 C 206.054688 231.089844 208.429688 231.082031 209.941406 229.65625 L 214.601562 224.996094 C 216.023438 223.484375 216.035156 221.113281 214.609375 219.6875 L 211.960938 217.035156 L 201.980469 227.015625 " fill-opacity="1" fill-rule="evenodd"/><g clip-path="url(#feb89ce857)"><path fill="#4b81d7" d="M 236.460938 223.09375 C 236.011719 223.09375 235.570312 222.890625 235.28125 222.539062 L 226.710938 212.148438 L 213.210938 211.324219 C 212.675781 211.296875 212.1875 210.980469 211.941406 210.492188 C 211.691406 210.015625 211.71875 209.441406 212.007812 208.980469 L 219.210938 197.480469 L 215.84375 184.347656 C 215.707031 183.820312 215.863281 183.265625 216.246094 182.882812 C 216.628906 182.5 217.183594 182.347656 217.710938 182.480469 L 230.84375 185.859375 L 242.246094 178.65625 C 242.707031 178.367188 243.28125 178.339844 243.757812 178.589844 C 244.238281 178.835938 244.554688 179.316406 244.589844 179.851562 L 245.5 193.359375 L 255.898438 202.027344 C 256.3125 202.371094 256.511719 202.90625 256.433594 203.441406 C 256.347656 203.976562 255.996094 204.429688 255.488281 204.621094 L 242.898438 209.640625 L 237.886719 222.136719 C 237.683594 222.632812 237.234375 222.996094 236.699219 223.074219 C 236.613281 223.082031 236.535156 223.09375 236.460938 223.09375 Z M 215.976562 208.425781 L 227.5625 209.136719 C 227.984375 209.164062 228.375 209.363281 228.652344 209.691406 L 236.011719 218.605469 L 240.316406 207.890625 C 240.46875 207.5 240.785156 207.191406 241.164062 207.039062 L 251.976562 202.734375 L 243.042969 195.292969 C 242.714844 195.023438 242.523438 194.632812 242.496094 194.21875 L 241.710938 182.625 L 231.925781 188.816406 C 231.570312 189.042969 231.132812 189.109375 230.730469 189.007812 L 219.460938 186.105469 L 222.359375 197.375 C 222.464844 197.78125 222.394531 198.21875 222.175781 198.570312 L 215.976562 208.425781 " fill-opacity="1" fill-rule="evenodd"/></g></svg>