<svg xmlns="http://www.w3.org/2000/svg" xmlns:xlink="http://www.w3.org/1999/xlink" width="500" zoomAndPan="magnify" viewBox="0 0 375 374.999991" height="500" preserveAspectRatio="xMidYMid meet" version="1.0"><defs><clipPath id="43451260cb"><path d="M 183 210 L 192 210 L 192 252.574219 L 183 252.574219 Z M 183 210 " clip-rule="nonzero"/></clipPath><clipPath id="adede52668"><path d="M 123.707031 188 L 153 188 L 153 234 L 123.707031 234 Z M 123.707031 188 " clip-rule="nonzero"/></clipPath><clipPath id="ce08b98be6"><path d="M 129 248 L 148 248 L 148 252.574219 L 129 252.574219 Z M 129 248 " clip-rule="nonzero"/></clipPath><clipPath id="9bfa523bd2"><path d="M 222 188 L 251.207031 188 L 251.207031 234 L 222 234 Z M 222 188 " clip-rule="nonzero"/></clipPath><clipPath id="8dc6c3e20f"><path d="M 227 248 L 246 248 L 246 252.574219 L 227 252.574219 Z M 227 248 " clip-rule="nonzero"/></clipPath><clipPath id="d8309a0438"><path d="M 153 122.074219 L 207 122.074219 L 207 168 L 153 168 Z M 153 122.074219 " clip-rule="nonzero"/></clipPath></defs><path fill="#4b81d7" d="M 162.535156 207.964844 L 212.464844 207.964844 L 212.464844 214.355469 L 162.535156 214.355469 Z M 162.535156 207.964844 " fill-opacity="1" fill-rule="evenodd"/><g clip-path="url(#43451260cb)"><path fill="#4b81d7" d="M 183.121094 210.570312 L 191.878906 210.570312 L 191.878906 252.925781 L 183.121094 252.925781 Z M 183.121094 210.570312 " fill-opacity="1" fill-rule="evenodd"/></g><path fill="#4b81d7" d="M 151.886719 217.667969 C 151.414062 222.636719 146.917969 226.1875 141.949219 225.476562 C 136.980469 225.003906 133.429688 220.507812 134.140625 215.539062 L 137.21875 189.746094 C 137.691406 184.777344 142.1875 181.226562 147.15625 181.9375 C 152.125 182.410156 155.675781 186.90625 154.964844 191.875 Z M 151.886719 217.667969 " fill-opacity="1" fill-rule="nonzero"/><path fill="#4b81d7" d="M 148.8125 158.984375 C 154.019531 158.984375 158.277344 163.246094 158.277344 168.449219 C 158.277344 173.65625 154.019531 177.914062 148.8125 177.914062 C 143.605469 177.914062 139.347656 173.65625 139.347656 168.449219 C 139.347656 163.246094 143.605469 158.984375 148.8125 158.984375 Z M 148.8125 158.984375 " fill-opacity="1" fill-rule="evenodd"/><path fill="#4b81d7" d="M 146.683594 190.21875 C 145.261719 188.5625 145.5 186.195312 146.917969 185.015625 C 148.574219 183.59375 150.941406 183.832031 152.125 185.25 L 161.589844 196.136719 L 170.582031 196.136719 C 172.710938 196.136719 174.367188 197.792969 174.367188 199.921875 C 174.367188 202.050781 172.710938 203.707031 170.582031 203.707031 L 159.933594 203.707031 C 158.988281 203.707031 157.804688 203.234375 157.09375 202.523438 L 146.445312 190.457031 Z M 146.683594 190.21875 " fill-opacity="1" fill-rule="nonzero"/><path fill="#4b81d7" d="M 142.1875 225.476562 C 139.820312 225.003906 137.691406 220.035156 137.925781 217.667969 C 138.402344 215.300781 140.765625 213.644531 143.132812 214.117188 C 143.132812 214.117188 167.742188 218.140625 178.390625 245.351562 C 179.335938 247.71875 178.152344 250.320312 175.785156 251.03125 C 173.421875 251.976562 170.816406 250.792969 170.109375 248.429688 C 161.589844 225.949219 142.421875 225.476562 142.421875 225.476562 Z M 142.1875 225.476562 " fill-opacity="1" fill-rule="nonzero"/><g clip-path="url(#adede52668)"><path fill="#4b81d7" d="M 151.179688 230.445312 C 151.886719 230.683594 152.359375 231.628906 152.125 232.339844 C 151.886719 233.046875 150.941406 233.519531 150.230469 233.285156 C 150.230469 233.285156 147.867188 232.574219 144.789062 231.863281 C 142.660156 231.390625 140.292969 231.390625 138.164062 231.390625 C 132.484375 231.390625 127.753906 231.390625 126.332031 224.765625 C 126.097656 223.582031 125.859375 222.164062 125.625 220.507812 C 125.625 219.085938 125.386719 217.429688 125.386719 215.773438 C 125.386719 213.644531 125.386719 211.753906 125.386719 210.097656 C 125.386719 203.234375 125.386719 197.792969 123.964844 189.746094 C 123.730469 189.035156 124.441406 188.089844 125.148438 188.089844 C 125.859375 187.855469 126.804688 188.5625 126.804688 189.273438 C 128.226562 197.554688 128.226562 202.996094 128.226562 210.097656 C 128.226562 211.988281 128.226562 213.644531 128.226562 215.773438 C 128.226562 217.195312 128.226562 218.851562 128.460938 220.269531 C 128.460938 221.691406 128.699219 222.875 128.9375 224.054688 C 129.882812 228.316406 133.667969 228.316406 137.925781 228.316406 C 140.292969 228.316406 142.660156 228.316406 145.027344 228.789062 C 148.339844 229.5 150.703125 230.207031 150.703125 230.207031 Z M 151.179688 230.445312 " fill-opacity="1" fill-rule="nonzero"/></g><path fill="#4b81d7" d="M 136.507812 229.972656 L 140.292969 229.972656 L 140.292969 251.742188 L 136.507812 251.742188 Z M 136.507812 229.972656 " fill-opacity="1" fill-rule="nonzero"/><g clip-path="url(#ce08b98be6)"><path fill="#4b81d7" d="M 145.261719 248.902344 C 146.210938 248.902344 147.15625 249.847656 147.15625 250.792969 C 147.15625 251.742188 146.210938 252.6875 145.261719 252.6875 L 131.539062 252.6875 C 130.59375 252.6875 129.644531 251.742188 129.644531 250.792969 C 129.644531 249.847656 130.59375 248.902344 131.539062 248.902344 Z M 145.261719 248.902344 " fill-opacity="1" fill-rule="nonzero"/></g><path fill="#4b81d7" d="M 223.109375 217.667969 C 223.585938 222.636719 228.078125 226.1875 233.050781 225.476562 C 238.019531 225.003906 241.566406 220.507812 240.859375 215.539062 L 237.78125 189.746094 C 237.308594 184.777344 232.8125 181.226562 227.84375 181.9375 C 222.875 182.410156 219.324219 186.90625 220.035156 191.875 Z M 223.109375 217.667969 " fill-opacity="1" fill-rule="nonzero"/><path fill="#4b81d7" d="M 226.1875 158.984375 C 220.980469 158.984375 216.722656 163.246094 216.722656 168.449219 C 216.722656 173.65625 220.980469 177.914062 226.1875 177.914062 C 231.394531 177.914062 235.652344 173.65625 235.652344 168.449219 C 235.652344 163.246094 231.394531 158.984375 226.1875 158.984375 Z M 226.1875 158.984375 " fill-opacity="1" fill-rule="evenodd"/><path fill="#4b81d7" d="M 228.316406 190.21875 C 229.738281 188.5625 229.5 186.195312 228.078125 185.015625 C 226.421875 183.59375 224.058594 183.832031 222.875 185.25 L 213.410156 196.136719 L 204.417969 196.136719 C 202.289062 196.136719 200.632812 197.792969 200.632812 199.921875 C 200.632812 202.050781 202.289062 203.707031 204.417969 203.707031 L 215.066406 203.707031 C 216.011719 203.707031 217.195312 203.234375 217.90625 202.523438 L 228.554688 190.457031 Z M 228.316406 190.21875 " fill-opacity="1" fill-rule="nonzero"/><path fill="#4b81d7" d="M 233.050781 225.476562 C 235.414062 225.003906 237.542969 220.035156 237.308594 217.667969 C 236.835938 215.300781 234.46875 213.644531 232.101562 214.117188 C 232.101562 214.117188 207.492188 218.140625 196.847656 245.351562 C 195.898438 247.71875 197.082031 250.320312 199.449219 251.03125 C 201.816406 251.976562 204.417969 250.792969 205.128906 248.429688 C 213.644531 225.949219 232.8125 225.476562 232.8125 225.476562 Z M 233.050781 225.476562 " fill-opacity="1" fill-rule="nonzero"/><g clip-path="url(#9bfa523bd2)"><path fill="#4b81d7" d="M 223.820312 230.445312 C 223.109375 230.683594 222.636719 231.628906 222.875 232.339844 C 223.109375 233.046875 224.058594 233.519531 224.765625 233.285156 C 224.765625 233.285156 227.132812 232.574219 230.210938 231.863281 C 232.339844 231.390625 234.707031 231.390625 236.835938 231.390625 C 242.515625 231.390625 247.246094 231.390625 248.667969 224.765625 C 248.902344 223.582031 249.140625 222.164062 249.375 220.507812 C 249.375 219.085938 249.613281 217.429688 249.613281 215.773438 C 249.613281 213.644531 249.613281 211.753906 249.613281 210.097656 C 249.613281 203.234375 249.613281 197.792969 251.03125 189.746094 C 251.269531 189.035156 250.558594 188.089844 249.847656 188.089844 C 249.140625 187.855469 248.191406 188.5625 248.191406 189.273438 C 246.773438 197.554688 246.773438 202.996094 246.773438 210.097656 C 246.773438 211.988281 246.773438 213.644531 246.773438 215.773438 C 246.773438 217.195312 246.773438 218.851562 246.535156 220.269531 C 246.535156 221.691406 246.300781 222.875 246.0625 224.054688 C 245.117188 228.316406 241.332031 228.316406 237.070312 228.316406 C 234.707031 228.316406 232.339844 228.316406 229.972656 228.789062 C 226.660156 229.5 224.292969 230.207031 224.292969 230.207031 Z M 223.820312 230.445312 " fill-opacity="1" fill-rule="nonzero"/></g><path fill="#4b81d7" d="M 234.707031 229.972656 L 234.707031 251.742188 L 238.492188 251.742188 L 238.492188 229.972656 Z M 234.707031 229.972656 " fill-opacity="1" fill-rule="nonzero"/><g clip-path="url(#8dc6c3e20f)"><path fill="#4b81d7" d="M 229.738281 248.902344 C 228.789062 248.902344 227.84375 249.847656 227.84375 250.792969 C 227.84375 251.742188 228.789062 252.6875 229.738281 252.6875 L 243.460938 252.6875 C 244.40625 252.6875 245.351562 251.742188 245.351562 250.792969 C 245.351562 249.847656 244.40625 248.902344 243.460938 248.902344 Z M 229.738281 248.902344 " fill-opacity="1" fill-rule="nonzero"/></g><path fill="#4b81d7" d="M 171.054688 165.375 C 171.765625 165.609375 172.472656 165.609375 172.949219 165.609375 L 193.769531 165.609375 L 204.890625 176.730469 L 204.890625 165.609375 C 210.570312 165.609375 215.300781 160.878906 215.300781 155.199219 L 215.300781 141.238281 C 215.300781 136.980469 212.699219 133.195312 209.148438 131.539062 C 209.148438 132.011719 209.148438 132.246094 209.148438 132.722656 L 209.148438 136.035156 C 210.570312 137.214844 211.515625 139.109375 211.515625 141.238281 L 211.515625 155.199219 C 211.515625 158.984375 208.441406 162.0625 204.65625 162.0625 L 200.867188 162.0625 L 200.867188 167.976562 L 194.953125 162.0625 L 174.128906 162.0625 L 170.582031 165.609375 Z M 171.054688 165.375 " fill-opacity="1" fill-rule="evenodd"/><g clip-path="url(#d8309a0438)"><path fill="#4b81d7" d="M 163.957031 122.074219 L 195.898438 122.074219 C 201.578125 122.074219 206.3125 126.804688 206.3125 132.484375 L 206.3125 146.445312 C 206.3125 152.125 201.578125 156.855469 195.898438 156.855469 L 175.078125 156.855469 L 163.957031 167.976562 L 163.957031 156.855469 C 158.277344 156.855469 153.542969 152.125 153.542969 146.445312 L 153.542969 132.484375 C 153.542969 126.804688 158.277344 122.074219 163.957031 122.074219 Z M 167.503906 135.558594 C 169.632812 135.558594 171.527344 137.453125 171.527344 139.582031 C 171.527344 141.710938 169.632812 143.605469 167.503906 143.605469 C 165.375 143.605469 163.484375 141.710938 163.484375 139.582031 C 163.484375 137.453125 165.375 135.558594 167.503906 135.558594 Z M 180.046875 135.558594 C 182.175781 135.558594 184.070312 137.453125 184.070312 139.582031 C 184.070312 141.710938 182.175781 143.605469 180.046875 143.605469 C 177.917969 143.605469 176.023438 141.710938 176.023438 139.582031 C 176.023438 137.453125 177.917969 135.558594 180.046875 135.558594 Z M 192.585938 135.558594 C 194.714844 135.558594 196.609375 137.453125 196.609375 139.582031 C 196.609375 141.710938 194.714844 143.605469 192.585938 143.605469 C 190.457031 143.605469 188.5625 141.710938 188.5625 139.582031 C 188.5625 137.453125 190.457031 135.558594 192.585938 135.558594 Z M 192.585938 135.558594 " fill-opacity="1" fill-rule="evenodd"/></g></svg>