<svg xmlns="http://www.w3.org/2000/svg" xmlns:xlink="http://www.w3.org/1999/xlink" width="500" zoomAndPan="magnify" viewBox="0 0 375 374.999991" height="500" preserveAspectRatio="xMidYMid meet" version="1.0"><defs><clipPath id="4e0679dbe1"><path d="M 112.5 112.5 L 221 112.5 L 221 183 L 112.5 183 Z M 112.5 112.5 " clip-rule="nonzero"/></clipPath><clipPath id="efd5be1e62"><path d="M 112.5 161 L 262.5 161 L 262.5 262.5 L 112.5 262.5 Z M 112.5 161 " clip-rule="nonzero"/></clipPath><clipPath id="e5fe35a34d"><path d="M 112.5 168 L 118 168 L 118 174 L 112.5 174 Z M 112.5 168 " clip-rule="nonzero"/></clipPath></defs><g clip-path="url(#4e0679dbe1)"><path fill="#4b81d7" d="M 114.84375 164.0625 C 115.15625 164.0625 115.453125 164.003906 115.742188 163.882812 C 116.027344 163.765625 116.28125 163.597656 116.5 163.375 C 116.722656 163.15625 116.890625 162.902344 117.007812 162.617188 C 117.128906 162.328125 117.1875 162.03125 117.1875 161.71875 L 117.1875 124.21875 C 117.1875 123.757812 117.234375 123.300781 117.324219 122.847656 C 117.414062 122.394531 117.546875 121.957031 117.726562 121.53125 C 117.902344 121.101562 118.117188 120.699219 118.375 120.3125 C 118.632812 119.929688 118.921875 119.574219 119.25 119.25 C 119.574219 118.921875 119.929688 118.632812 120.3125 118.375 C 120.699219 118.117188 121.101562 117.902344 121.53125 117.726562 C 121.957031 117.546875 122.394531 117.414062 122.847656 117.324219 C 123.300781 117.234375 123.757812 117.1875 124.21875 117.1875 L 208.59375 117.1875 C 209.054688 117.1875 209.511719 117.234375 209.964844 117.324219 C 210.417969 117.414062 210.855469 117.546875 211.28125 117.726562 C 211.710938 117.902344 212.113281 118.117188 212.5 118.375 C 212.882812 118.632812 213.238281 118.921875 213.5625 119.25 C 213.890625 119.574219 214.179688 119.929688 214.4375 120.3125 C 214.695312 120.699219 214.910156 121.101562 215.085938 121.53125 C 215.265625 121.957031 215.398438 122.394531 215.488281 122.847656 C 215.578125 123.300781 215.625 123.757812 215.625 124.21875 L 215.625 161.71875 L 192.1875 161.71875 C 191.046875 161.71875 189.933594 161.886719 188.84375 162.210938 C 187.753906 162.539062 186.730469 163.015625 185.777344 163.636719 C 184.828125 164.261719 183.984375 165.007812 183.25 165.878906 C 182.511719 166.75 181.917969 167.707031 181.460938 168.75 L 131.25 168.75 C 130.9375 168.75 130.640625 168.691406 130.351562 168.570312 C 130.066406 168.453125 129.8125 168.28125 129.59375 168.0625 C 129.375 167.84375 129.203125 167.589844 129.085938 167.304688 C 128.964844 167.015625 128.90625 166.71875 128.90625 166.40625 L 128.90625 128.90625 C 128.90625 128.59375 128.964844 128.296875 129.085938 128.007812 C 129.203125 127.722656 129.375 127.46875 129.59375 127.25 C 129.8125 127.03125 130.066406 126.859375 130.351562 126.742188 C 130.640625 126.621094 130.9375 126.5625 131.25 126.5625 L 201.5625 126.5625 C 201.875 126.5625 202.171875 126.621094 202.460938 126.742188 C 202.746094 126.859375 203 127.03125 203.21875 127.25 C 203.4375 127.46875 203.609375 127.722656 203.726562 128.007812 C 203.847656 128.296875 203.90625 128.59375 203.90625 128.90625 L 203.90625 152.34375 C 203.90625 152.65625 203.964844 152.953125 204.085938 153.242188 C 204.203125 153.527344 204.371094 153.78125 204.59375 154 C 204.8125 154.222656 205.066406 154.390625 205.351562 154.507812 C 205.640625 154.628906 205.9375 154.6875 206.25 154.6875 C 206.5625 154.6875 206.859375 154.628906 207.148438 154.507812 C 207.433594 154.390625 207.6875 154.222656 207.90625 154 C 208.128906 153.78125 208.296875 153.527344 208.414062 153.242188 C 208.535156 152.953125 208.59375 152.65625 208.59375 152.34375 L 208.59375 128.90625 C 208.59375 128.445312 208.546875 127.988281 208.457031 127.535156 C 208.367188 127.082031 208.234375 126.644531 208.054688 126.21875 C 207.878906 125.789062 207.664062 125.386719 207.40625 125 C 207.148438 124.617188 206.859375 124.261719 206.53125 123.9375 C 206.207031 123.609375 205.851562 123.320312 205.46875 123.0625 C 205.082031 122.804688 204.679688 122.589844 204.25 122.414062 C 203.824219 122.234375 203.386719 122.101562 202.933594 122.011719 C 202.480469 121.921875 202.023438 121.875 201.5625 121.875 L 131.25 121.875 C 130.789062 121.875 130.332031 121.921875 129.878906 122.011719 C 129.425781 122.101562 128.988281 122.234375 128.5625 122.414062 C 128.132812 122.589844 127.730469 122.804688 127.34375 123.0625 C 126.960938 123.320312 126.605469 123.609375 126.28125 123.9375 C 125.953125 124.261719 125.664062 124.617188 125.40625 125 C 125.148438 125.386719 124.933594 125.789062 124.757812 126.21875 C 124.578125 126.644531 124.445312 127.082031 124.355469 127.535156 C 124.265625 127.988281 124.21875 128.445312 124.21875 128.90625 L 124.21875 166.40625 C 124.21875 166.867188 124.265625 167.324219 124.355469 167.777344 C 124.445312 168.230469 124.578125 168.667969 124.757812 169.09375 C 124.933594 169.523438 125.148438 169.925781 125.40625 170.3125 C 125.664062 170.695312 125.953125 171.050781 126.28125 171.375 C 126.605469 171.703125 126.960938 171.992188 127.34375 172.25 C 127.730469 172.507812 128.132812 172.722656 128.5625 172.898438 C 128.988281 173.078125 129.425781 173.210938 129.878906 173.300781 C 130.332031 173.390625 130.789062 173.4375 131.25 173.4375 L 180.46875 173.4375 L 180.46875 180.46875 C 180.46875 180.78125 180.527344 181.078125 180.648438 181.367188 C 180.765625 181.652344 180.933594 181.90625 181.15625 182.125 C 181.375 182.347656 181.628906 182.515625 181.914062 182.632812 C 182.203125 182.753906 182.5 182.8125 182.8125 182.8125 C 183.125 182.8125 183.421875 182.753906 183.710938 182.632812 C 183.996094 182.515625 184.25 182.347656 184.46875 182.125 C 184.691406 181.90625 184.859375 181.652344 184.976562 181.367188 C 185.097656 181.078125 185.15625 180.78125 185.15625 180.46875 L 185.15625 173.4375 C 185.15625 172.976562 185.203125 172.519531 185.292969 172.066406 C 185.382812 171.613281 185.515625 171.175781 185.695312 170.75 C 185.871094 170.320312 186.085938 169.917969 186.34375 169.53125 C 186.601562 169.148438 186.890625 168.792969 187.21875 168.46875 C 187.542969 168.140625 187.898438 167.851562 188.28125 167.59375 C 188.667969 167.335938 189.070312 167.121094 189.5 166.945312 C 189.925781 166.765625 190.363281 166.632812 190.816406 166.542969 C 191.269531 166.453125 191.726562 166.40625 192.1875 166.40625 L 217.96875 166.40625 C 218.28125 166.40625 218.578125 166.347656 218.867188 166.226562 C 219.152344 166.109375 219.40625 165.941406 219.625 165.71875 C 219.847656 165.5 220.015625 165.246094 220.132812 164.960938 C 220.253906 164.671875 220.3125 164.375 220.3125 164.0625 L 220.3125 124.21875 C 220.3125 123.449219 220.234375 122.6875 220.085938 121.933594 C 219.933594 121.179688 219.710938 120.445312 219.417969 119.734375 C 219.121094 119.027344 218.761719 118.351562 218.332031 117.710938 C 217.90625 117.070312 217.421875 116.480469 216.875 115.9375 C 216.332031 115.390625 215.742188 114.90625 215.101562 114.480469 C 214.460938 114.050781 213.785156 113.691406 213.078125 113.394531 C 212.367188 113.101562 211.632812 112.878906 210.878906 112.726562 C 210.125 112.578125 209.363281 112.5 208.59375 112.5 L 124.21875 112.5 C 123.449219 112.5 122.6875 112.578125 121.933594 112.726562 C 121.179688 112.878906 120.445312 113.101562 119.734375 113.394531 C 119.027344 113.691406 118.351562 114.050781 117.710938 114.480469 C 117.070312 114.90625 116.480469 115.390625 115.9375 115.9375 C 115.390625 116.480469 114.90625 117.070312 114.480469 117.710938 C 114.050781 118.351562 113.691406 119.027344 113.394531 119.734375 C 113.101562 120.445312 112.878906 121.179688 112.726562 121.933594 C 112.578125 122.6875 112.5 123.449219 112.5 124.21875 L 112.5 161.71875 C 112.5 162.03125 112.558594 162.328125 112.679688 162.617188 C 112.796875 162.902344 112.964844 163.15625 113.1875 163.375 C 113.40625 163.597656 113.660156 163.765625 113.945312 163.882812 C 114.234375 164.003906 114.53125 164.0625 114.84375 164.0625 Z M 114.84375 164.0625 " fill-opacity="1" fill-rule="nonzero"/></g><path fill="#4b81d7" d="M 178.335938 143.648438 L 161.789062 133.710938 C 161.0625 133.277344 160.277344 133.054688 159.433594 133.046875 C 158.589844 133.039062 157.800781 133.242188 157.0625 133.660156 C 156.328125 134.074219 155.75 134.648438 155.324219 135.378906 C 154.898438 136.109375 154.6875 136.898438 154.6875 137.742188 L 154.6875 157.570312 C 154.683594 158.414062 154.890625 159.203125 155.316406 159.933594 C 155.738281 160.660156 156.320312 161.234375 157.054688 161.648438 C 157.792969 162.0625 158.582031 162.265625 159.429688 162.257812 C 160.273438 162.25 161.0625 162.03125 161.789062 161.601562 L 178.335938 151.664062 C 178.507812 151.5625 178.671875 151.445312 178.832031 151.324219 C 178.988281 151.199219 179.136719 151.0625 179.277344 150.921875 C 179.417969 150.777344 179.550781 150.625 179.671875 150.464844 C 179.792969 150.304688 179.902344 150.136719 180 149.960938 C 180.101562 149.785156 180.1875 149.605469 180.265625 149.417969 C 180.339844 149.230469 180.402344 149.042969 180.453125 148.847656 C 180.507812 148.652344 180.542969 148.457031 180.570312 148.257812 C 180.597656 148.058594 180.609375 147.855469 180.609375 147.65625 C 180.609375 147.457031 180.597656 147.253906 180.570312 147.054688 C 180.542969 146.855469 180.507812 146.660156 180.453125 146.464844 C 180.402344 146.269531 180.339844 146.082031 180.265625 145.894531 C 180.1875 145.707031 180.101562 145.527344 180 145.351562 C 179.902344 145.175781 179.792969 145.007812 179.671875 144.847656 C 179.550781 144.6875 179.417969 144.535156 179.277344 144.390625 C 179.136719 144.25 178.988281 144.113281 178.832031 143.988281 C 178.671875 143.867188 178.507812 143.75 178.335938 143.648438 Z M 159.375 157.570312 L 159.375 137.742188 L 175.921875 147.65625 Z M 159.375 157.570312 " fill-opacity="1" fill-rule="nonzero"/><path fill="#4b81d7" d="M 175.792969 180.457031 C 175.792969 180.769531 175.734375 181.070312 175.613281 181.359375 C 175.492188 181.648438 175.324219 181.902344 175.101562 182.121094 C 174.882812 182.34375 174.628906 182.511719 174.339844 182.632812 C 174.050781 182.753906 173.75 182.8125 173.4375 182.8125 C 173.125 182.8125 172.824219 182.753906 172.535156 182.632812 C 172.246094 182.511719 171.992188 182.34375 171.773438 182.121094 C 171.550781 181.902344 171.378906 181.648438 171.261719 181.359375 C 171.140625 181.070312 171.082031 180.769531 171.082031 180.457031 C 171.082031 180.144531 171.140625 179.84375 171.261719 179.554688 C 171.378906 179.265625 171.550781 179.011719 171.773438 178.792969 C 171.992188 178.570312 172.246094 178.398438 172.535156 178.28125 C 172.824219 178.160156 173.125 178.101562 173.4375 178.101562 C 173.75 178.101562 174.050781 178.160156 174.339844 178.28125 C 174.628906 178.398438 174.882812 178.570312 175.101562 178.792969 C 175.324219 179.011719 175.492188 179.265625 175.613281 179.554688 C 175.734375 179.84375 175.792969 180.144531 175.792969 180.457031 Z M 175.792969 180.457031 " fill-opacity="1" fill-rule="nonzero"/><path fill="#4b81d7" d="M 128.90625 178.125 C 128.59375 178.125 128.296875 178.183594 128.007812 178.304688 C 127.722656 178.421875 127.46875 178.589844 127.25 178.8125 C 127.027344 179.03125 126.859375 179.285156 126.742188 179.570312 C 126.621094 179.859375 126.5625 180.15625 126.5625 180.46875 C 126.5625 180.78125 126.621094 181.078125 126.742188 181.367188 C 126.859375 181.652344 127.027344 181.90625 127.25 182.125 C 127.46875 182.347656 127.722656 182.515625 128.007812 182.632812 C 128.296875 182.753906 128.59375 182.8125 128.90625 182.8125 L 157.03125 182.8125 C 157.34375 182.8125 157.640625 182.753906 157.929688 182.632812 C 158.214844 182.515625 158.46875 182.347656 158.6875 182.125 C 158.910156 181.90625 159.078125 181.652344 159.195312 181.367188 C 159.316406 181.078125 159.375 180.78125 159.375 180.46875 C 159.375 180.15625 159.316406 179.859375 159.195312 179.570312 C 159.078125 179.285156 158.910156 179.03125 158.6875 178.8125 C 158.46875 178.589844 158.214844 178.421875 157.929688 178.304688 C 157.640625 178.183594 157.34375 178.125 157.03125 178.125 Z M 128.90625 178.125 " fill-opacity="1" fill-rule="nonzero"/><g clip-path="url(#efd5be1e62)"><path fill="#4b81d7" d="M 250.78125 161.71875 L 227.34375 161.71875 C 227.03125 161.71875 226.734375 161.777344 226.445312 161.898438 C 226.160156 162.015625 225.90625 162.183594 225.6875 162.40625 C 225.464844 162.625 225.296875 162.878906 225.179688 163.164062 C 225.058594 163.453125 225 163.75 225 164.0625 C 225 164.375 225.058594 164.671875 225.179688 164.960938 C 225.296875 165.246094 225.464844 165.5 225.6875 165.71875 C 225.90625 165.941406 226.160156 166.109375 226.445312 166.226562 C 226.734375 166.347656 227.03125 166.40625 227.34375 166.40625 L 250.78125 166.40625 C 251.242188 166.40625 251.699219 166.453125 252.152344 166.542969 C 252.605469 166.636719 253.042969 166.769531 253.46875 166.945312 C 253.894531 167.125 254.300781 167.339844 254.683594 167.597656 C 255.066406 167.855469 255.421875 168.144531 255.746094 168.472656 C 256.074219 168.796875 256.363281 169.152344 256.621094 169.535156 C 256.878906 169.917969 257.09375 170.324219 257.273438 170.75 C 257.449219 171.175781 257.582031 171.613281 257.675781 172.066406 C 257.765625 172.519531 257.8125 172.976562 257.8125 173.4375 L 257.8125 210.9375 C 257.8125 211.398438 257.765625 211.855469 257.675781 212.308594 C 257.582031 212.761719 257.449219 213.199219 257.273438 213.625 C 257.09375 214.050781 256.878906 214.457031 256.621094 214.839844 C 256.363281 215.222656 256.074219 215.578125 255.746094 215.902344 C 255.421875 216.230469 255.066406 216.519531 254.683594 216.777344 C 254.300781 217.035156 253.894531 217.25 253.46875 217.429688 C 253.042969 217.605469 252.605469 217.738281 252.152344 217.832031 C 251.699219 217.921875 251.242188 217.96875 250.78125 217.96875 L 199.21875 217.96875 L 199.21875 215.625 C 199.21875 214.855469 199.144531 214.09375 198.992188 213.339844 C 198.84375 212.585938 198.621094 211.851562 198.324219 211.140625 C 198.03125 210.429688 197.671875 209.753906 197.242188 209.117188 C 196.816406 208.476562 196.328125 207.882812 195.785156 207.339844 C 195.242188 206.796875 194.648438 206.308594 194.007812 205.882812 C 193.371094 205.453125 192.695312 205.09375 191.984375 204.800781 C 191.273438 204.503906 190.539062 204.28125 189.785156 204.132812 C 189.03125 203.980469 188.269531 203.90625 187.5 203.90625 L 185.15625 203.90625 L 185.15625 189.84375 C 185.15625 189.535156 185.09375 189.234375 184.976562 188.949219 C 184.855469 188.660156 184.6875 188.40625 184.46875 188.1875 C 184.25 187.96875 183.996094 187.800781 183.707031 187.679688 C 183.421875 187.5625 183.121094 187.5 182.8125 187.5 L 124.21875 187.5 C 123.757812 187.5 123.300781 187.453125 122.847656 187.363281 C 122.394531 187.269531 121.957031 187.136719 121.53125 186.960938 C 121.105469 186.78125 120.699219 186.566406 120.316406 186.308594 C 119.933594 186.050781 119.578125 185.761719 119.253906 185.433594 C 118.925781 185.109375 118.636719 184.753906 118.378906 184.371094 C 118.121094 183.988281 117.90625 183.582031 117.726562 183.15625 C 117.550781 182.730469 117.417969 182.292969 117.324219 181.839844 C 117.234375 181.386719 117.1875 180.929688 117.1875 180.46875 C 117.1875 180.15625 117.128906 179.859375 117.007812 179.570312 C 116.890625 179.285156 116.722656 179.03125 116.5 178.8125 C 116.28125 178.589844 116.027344 178.421875 115.742188 178.304688 C 115.453125 178.183594 115.15625 178.125 114.84375 178.125 C 114.53125 178.125 114.234375 178.183594 113.945312 178.304688 C 113.660156 178.421875 113.40625 178.589844 113.1875 178.8125 C 112.964844 179.03125 112.796875 179.285156 112.679688 179.570312 C 112.558594 179.859375 112.5 180.15625 112.5 180.46875 C 112.5 181.238281 112.574219 182 112.726562 182.753906 C 112.875 183.507812 113.097656 184.242188 113.394531 184.953125 C 113.6875 185.664062 114.046875 186.339844 114.476562 186.976562 C 114.902344 187.617188 115.390625 188.210938 115.933594 188.753906 C 116.476562 189.296875 117.070312 189.785156 117.710938 190.210938 C 118.347656 190.640625 119.023438 191 119.734375 191.292969 C 120.445312 191.589844 121.179688 191.8125 121.933594 191.960938 C 122.6875 192.113281 123.449219 192.1875 124.21875 192.1875 L 180.46875 192.1875 L 180.46875 203.90625 L 124.21875 203.90625 C 123.449219 203.90625 122.6875 203.980469 121.933594 204.132812 C 121.179688 204.28125 120.445312 204.503906 119.734375 204.800781 C 119.023438 205.09375 118.347656 205.453125 117.710938 205.882812 C 117.070312 206.308594 116.476562 206.796875 115.933594 207.339844 C 115.390625 207.882812 114.902344 208.476562 114.476562 209.117188 C 114.046875 209.753906 113.6875 210.429688 113.394531 211.140625 C 113.097656 211.851562 112.875 212.585938 112.726562 213.339844 C 112.574219 214.09375 112.5 214.855469 112.5 215.625 L 112.5 250.78125 C 112.5 251.550781 112.574219 252.3125 112.726562 253.066406 C 112.875 253.820312 113.097656 254.554688 113.394531 255.265625 C 113.6875 255.976562 114.046875 256.652344 114.476562 257.289062 C 114.902344 257.929688 115.390625 258.523438 115.933594 259.066406 C 116.476562 259.609375 117.070312 260.097656 117.710938 260.523438 C 118.347656 260.953125 119.023438 261.3125 119.734375 261.605469 C 120.445312 261.902344 121.179688 262.125 121.933594 262.273438 C 122.6875 262.425781 123.449219 262.5 124.21875 262.5 L 187.5 262.5 C 188.269531 262.5 189.03125 262.425781 189.785156 262.273438 C 190.539062 262.125 191.273438 261.902344 191.984375 261.605469 C 192.695312 261.3125 193.371094 260.953125 194.007812 260.523438 C 194.648438 260.097656 195.242188 259.609375 195.785156 259.066406 C 196.328125 258.523438 196.816406 257.929688 197.242188 257.289062 C 197.671875 256.652344 198.03125 255.976562 198.324219 255.265625 C 198.621094 254.554688 198.84375 253.820312 198.992188 253.066406 C 199.144531 252.3125 199.21875 251.550781 199.21875 250.78125 L 199.21875 232.03125 C 199.21875 231.71875 199.160156 231.421875 199.039062 231.132812 C 198.921875 230.847656 198.753906 230.59375 198.53125 230.375 C 198.3125 230.152344 198.058594 229.984375 197.773438 229.867188 C 197.484375 229.746094 197.1875 229.6875 196.875 229.6875 C 196.5625 229.6875 196.265625 229.746094 195.976562 229.867188 C 195.691406 229.984375 195.4375 230.152344 195.21875 230.375 C 194.996094 230.59375 194.828125 230.847656 194.710938 231.132812 C 194.589844 231.421875 194.53125 231.71875 194.53125 232.03125 L 194.53125 240.445312 L 186.820312 232.710938 C 186.597656 232.496094 186.339844 232.332031 186.054688 232.214844 C 185.765625 232.101562 185.464844 232.042969 185.15625 232.042969 C 184.847656 232.042969 184.546875 232.101562 184.257812 232.214844 C 183.972656 232.332031 183.714844 232.496094 183.492188 232.710938 L 167.554688 248.695312 L 146.90625 228.023438 C 146.683594 227.804688 146.429688 227.632812 146.140625 227.515625 C 145.855469 227.398438 145.554688 227.335938 145.242188 227.335938 C 144.929688 227.335938 144.628906 227.398438 144.34375 227.515625 C 144.054688 227.632812 143.800781 227.804688 143.578125 228.023438 L 117.867188 253.757812 C 117.421875 252.816406 117.195312 251.824219 117.1875 250.78125 L 117.1875 215.625 C 117.1875 215.164062 117.234375 214.707031 117.324219 214.253906 C 117.417969 213.800781 117.550781 213.363281 117.726562 212.9375 C 117.90625 212.511719 118.121094 212.105469 118.378906 211.722656 C 118.636719 211.339844 118.925781 210.984375 119.253906 210.660156 C 119.578125 210.332031 119.933594 210.042969 120.316406 209.785156 C 120.699219 209.527344 121.105469 209.3125 121.53125 209.132812 C 121.957031 208.957031 122.394531 208.824219 122.847656 208.730469 C 123.300781 208.640625 123.757812 208.59375 124.21875 208.59375 L 187.5 208.59375 C 187.960938 208.59375 188.417969 208.640625 188.871094 208.730469 C 189.324219 208.824219 189.761719 208.957031 190.1875 209.132812 C 190.613281 209.3125 191.019531 209.527344 191.402344 209.785156 C 191.785156 210.042969 192.140625 210.332031 192.464844 210.660156 C 192.792969 210.984375 193.082031 211.339844 193.339844 211.722656 C 193.597656 212.105469 193.8125 212.511719 193.992188 212.9375 C 194.167969 213.363281 194.300781 213.800781 194.394531 214.253906 C 194.484375 214.707031 194.53125 215.164062 194.53125 215.625 L 194.53125 220.3125 C 194.53125 220.621094 194.59375 220.921875 194.710938 221.207031 C 194.832031 221.496094 195 221.75 195.21875 221.96875 C 195.4375 222.1875 195.691406 222.355469 195.980469 222.476562 C 196.265625 222.59375 196.566406 222.65625 196.875 222.65625 L 250.78125 222.65625 C 251.550781 222.65625 252.3125 222.582031 253.066406 222.429688 C 253.820312 222.28125 254.554688 222.058594 255.265625 221.761719 C 255.976562 221.46875 256.652344 221.109375 257.289062 220.679688 C 257.929688 220.253906 258.523438 219.765625 259.066406 219.222656 C 259.609375 218.679688 260.097656 218.085938 260.523438 217.445312 C 260.953125 216.808594 261.3125 216.132812 261.605469 215.421875 C 261.902344 214.710938 262.125 213.976562 262.273438 213.222656 C 262.425781 212.46875 262.5 211.707031 262.5 210.9375 L 262.5 173.4375 C 262.5 172.667969 262.425781 171.90625 262.273438 171.152344 C 262.125 170.398438 261.902344 169.664062 261.605469 168.953125 C 261.3125 168.242188 260.953125 167.566406 260.523438 166.929688 C 260.097656 166.289062 259.609375 165.695312 259.066406 165.152344 C 258.523438 164.609375 257.929688 164.121094 257.289062 163.695312 C 256.652344 163.265625 255.976562 162.90625 255.265625 162.613281 C 254.554688 162.316406 253.820312 162.09375 253.066406 161.945312 C 252.3125 161.792969 251.550781 161.71875 250.78125 161.71875 Z M 185.15625 237.679688 L 194.53125 247.054688 L 194.53125 250.78125 C 194.53125 251.242188 194.484375 251.699219 194.394531 252.152344 C 194.300781 252.605469 194.167969 253.042969 193.992188 253.46875 C 193.8125 253.894531 193.597656 254.300781 193.339844 254.683594 C 193.082031 255.066406 192.792969 255.421875 192.464844 255.746094 C 192.140625 256.074219 191.785156 256.363281 191.402344 256.621094 C 191.019531 256.878906 190.613281 257.09375 190.1875 257.273438 C 189.761719 257.449219 189.324219 257.582031 188.871094 257.675781 C 188.417969 257.765625 187.960938 257.8125 187.5 257.8125 L 176.671875 257.8125 L 170.859375 252 Z M 145.242188 232.992188 L 170.0625 257.8125 L 124.21875 257.8125 C 123.148438 257.804688 122.132812 257.5625 121.171875 257.085938 Z M 145.242188 232.992188 " fill-opacity="1" fill-rule="nonzero"/></g><path fill="#4b81d7" d="M 236.132812 175.40625 C 235.21875 174.738281 234.203125 174.320312 233.085938 174.152344 C 231.96875 173.980469 230.875 174.078125 229.804688 174.445312 L 208.21875 181.640625 L 201.5625 181.640625 C 201.101562 181.640625 200.644531 181.6875 200.191406 181.777344 C 199.738281 181.871094 199.300781 182.003906 198.875 182.179688 C 198.449219 182.359375 198.042969 182.574219 197.660156 182.832031 C 197.277344 183.089844 196.921875 183.378906 196.597656 183.707031 C 196.269531 184.03125 195.980469 184.386719 195.722656 184.769531 C 195.464844 185.152344 195.25 185.558594 195.070312 185.984375 C 194.894531 186.410156 194.761719 186.847656 194.667969 187.300781 C 194.578125 187.753906 194.53125 188.210938 194.53125 188.671875 L 194.53125 191.015625 C 194.535156 191.816406 194.667969 192.59375 194.9375 193.351562 C 195.203125 194.105469 195.589844 194.796875 196.09375 195.417969 C 196.59375 196.042969 197.1875 196.566406 197.867188 196.988281 C 198.546875 197.410156 199.28125 197.710938 200.0625 197.882812 L 201.070312 205.96875 C 201.125 206.390625 201.21875 206.800781 201.347656 207.207031 C 201.476562 207.609375 201.640625 208 201.839844 208.375 C 202.039062 208.746094 202.269531 209.101562 202.535156 209.433594 C 202.796875 209.765625 203.089844 210.074219 203.40625 210.351562 C 203.726562 210.632812 204.066406 210.882812 204.429688 211.101562 C 204.792969 211.320312 205.175781 211.503906 205.570312 211.652344 C 205.96875 211.804688 206.375 211.917969 206.792969 211.992188 C 207.210938 212.070312 207.628906 212.109375 208.054688 212.109375 L 210.9375 212.109375 C 211.246094 212.109375 211.546875 212.046875 211.832031 211.929688 C 212.121094 211.808594 212.375 211.640625 212.59375 211.421875 C 212.8125 211.203125 212.980469 210.949219 213.101562 210.660156 C 213.21875 210.375 213.28125 210.074219 213.28125 209.765625 L 213.28125 199.734375 L 229.804688 205.242188 C 230.875 205.589844 231.96875 205.675781 233.082031 205.507812 C 234.195312 205.339844 235.210938 204.929688 236.132812 204.28125 C 237.058594 203.628906 237.777344 202.800781 238.296875 201.792969 C 238.8125 200.785156 239.070312 199.71875 239.0625 198.585938 L 239.0625 181.101562 C 239.070312 179.96875 238.8125 178.902344 238.296875 177.894531 C 237.777344 176.886719 237.058594 176.058594 236.132812 175.40625 Z M 201.5625 193.359375 C 201.253906 193.359375 200.953125 193.296875 200.667969 193.179688 C 200.378906 193.058594 200.125 192.890625 199.90625 192.671875 C 199.6875 192.453125 199.519531 192.199219 199.398438 191.910156 C 199.28125 191.625 199.21875 191.324219 199.21875 191.015625 L 199.21875 188.671875 C 199.21875 188.363281 199.28125 188.0625 199.398438 187.777344 C 199.519531 187.488281 199.6875 187.234375 199.90625 187.015625 C 200.125 186.796875 200.378906 186.628906 200.667969 186.507812 C 200.953125 186.390625 201.253906 186.328125 201.5625 186.328125 L 206.25 186.328125 L 206.25 193.359375 Z M 208.59375 207.421875 C 207.234375 207.421875 205.921875 206.90625 205.710938 205.382812 L 204.796875 198.046875 L 208.21875 198.046875 L 208.59375 198.164062 Z M 234.375 198.585938 C 234.375 198.964844 234.289062 199.320312 234.117188 199.65625 C 233.941406 199.992188 233.699219 200.269531 233.390625 200.484375 C 233.085938 200.707031 232.746094 200.847656 232.375 200.902344 C 232 200.957031 231.636719 200.917969 231.28125 200.789062 L 210.9375 194.015625 L 210.9375 185.671875 L 231.28125 178.898438 C 231.636719 178.769531 232 178.730469 232.375 178.785156 C 232.746094 178.839844 233.085938 178.980469 233.390625 179.203125 C 233.699219 179.417969 233.941406 179.695312 234.117188 180.03125 C 234.289062 180.367188 234.375 180.722656 234.375 181.101562 Z M 234.375 198.585938 " fill-opacity="1" fill-rule="nonzero"/><path fill="#4b81d7" d="M 248.4375 194.53125 L 248.4375 185.15625 C 248.4375 184.84375 248.378906 184.546875 248.257812 184.257812 C 248.140625 183.972656 247.972656 183.71875 247.75 183.5 C 247.53125 183.277344 247.277344 183.109375 246.992188 182.992188 C 246.703125 182.871094 246.40625 182.8125 246.09375 182.8125 C 245.78125 182.8125 245.484375 182.871094 245.195312 182.992188 C 244.910156 183.109375 244.65625 183.277344 244.4375 183.5 C 244.214844 183.71875 244.046875 183.972656 243.929688 184.257812 C 243.808594 184.546875 243.75 184.84375 243.75 185.15625 L 243.75 194.53125 C 243.75 194.84375 243.808594 195.140625 243.929688 195.429688 C 244.046875 195.714844 244.214844 195.96875 244.4375 196.1875 C 244.65625 196.410156 244.910156 196.578125 245.195312 196.695312 C 245.484375 196.816406 245.78125 196.875 246.09375 196.875 C 246.40625 196.875 246.703125 196.816406 246.992188 196.695312 C 247.277344 196.578125 247.53125 196.410156 247.75 196.1875 C 247.972656 195.96875 248.140625 195.714844 248.257812 195.429688 C 248.378906 195.140625 248.4375 194.84375 248.4375 194.53125 Z M 248.4375 194.53125 " fill-opacity="1" fill-rule="nonzero"/><path fill="#4b81d7" d="M 171.09375 213.28125 C 170.632812 213.28125 170.175781 213.328125 169.722656 213.417969 C 169.269531 213.507812 168.828125 213.640625 168.402344 213.816406 C 167.976562 213.992188 167.570312 214.210938 167.1875 214.464844 C 166.804688 214.722656 166.449219 215.015625 166.121094 215.339844 C 165.796875 215.667969 165.503906 216.023438 165.246094 216.40625 C 164.992188 216.789062 164.773438 217.195312 164.597656 217.621094 C 164.421875 218.046875 164.289062 218.488281 164.199219 218.941406 C 164.109375 219.394531 164.0625 219.851562 164.0625 220.3125 C 164.0625 220.773438 164.109375 221.230469 164.199219 221.683594 C 164.289062 222.136719 164.421875 222.578125 164.597656 223.003906 C 164.773438 223.429688 164.992188 223.835938 165.246094 224.21875 C 165.503906 224.601562 165.796875 224.957031 166.121094 225.285156 C 166.449219 225.609375 166.804688 225.902344 167.1875 226.160156 C 167.570312 226.414062 167.976562 226.632812 168.402344 226.808594 C 168.828125 226.984375 169.269531 227.117188 169.722656 227.207031 C 170.175781 227.296875 170.632812 227.34375 171.09375 227.34375 C 171.554688 227.34375 172.011719 227.296875 172.464844 227.207031 C 172.917969 227.117188 173.359375 226.984375 173.785156 226.808594 C 174.210938 226.632812 174.617188 226.414062 175 226.160156 C 175.382812 225.902344 175.738281 225.609375 176.066406 225.285156 C 176.390625 224.957031 176.683594 224.601562 176.941406 224.21875 C 177.195312 223.835938 177.414062 223.429688 177.589844 223.003906 C 177.765625 222.578125 177.898438 222.136719 177.988281 221.683594 C 178.078125 221.230469 178.125 220.773438 178.125 220.3125 C 178.125 219.851562 178.078125 219.394531 177.988281 218.941406 C 177.894531 218.488281 177.761719 218.050781 177.585938 217.625 C 177.40625 217.199219 177.191406 216.792969 176.933594 216.410156 C 176.675781 216.027344 176.386719 215.671875 176.058594 215.347656 C 175.734375 215.019531 175.378906 214.730469 174.996094 214.472656 C 174.613281 214.214844 174.207031 214 173.78125 213.820312 C 173.355469 213.644531 172.917969 213.511719 172.464844 213.417969 C 172.011719 213.328125 171.554688 213.28125 171.09375 213.28125 Z M 171.09375 222.65625 C 170.78125 222.65625 170.484375 222.597656 170.195312 222.476562 C 169.910156 222.359375 169.65625 222.191406 169.4375 221.96875 C 169.214844 221.75 169.046875 221.496094 168.929688 221.210938 C 168.808594 220.921875 168.75 220.625 168.75 220.3125 C 168.75 220 168.808594 219.703125 168.929688 219.414062 C 169.046875 219.128906 169.214844 218.875 169.4375 218.65625 C 169.65625 218.433594 169.910156 218.265625 170.195312 218.148438 C 170.484375 218.027344 170.78125 217.96875 171.09375 217.96875 C 171.40625 217.96875 171.703125 218.027344 171.992188 218.148438 C 172.277344 218.265625 172.53125 218.433594 172.75 218.65625 C 172.972656 218.875 173.140625 219.128906 173.257812 219.414062 C 173.378906 219.703125 173.4375 220 173.4375 220.3125 C 173.4375 220.621094 173.375 220.921875 173.257812 221.207031 C 173.136719 221.496094 172.96875 221.75 172.75 221.96875 C 172.53125 222.1875 172.277344 222.355469 171.988281 222.476562 C 171.703125 222.59375 171.402344 222.65625 171.09375 222.65625 Z M 171.09375 222.65625 " fill-opacity="1" fill-rule="nonzero"/><g clip-path="url(#e5fe35a34d)"><path fill="#4b81d7" d="M 117.210938 171.105469 C 117.210938 171.417969 117.152344 171.71875 117.03125 172.007812 C 116.910156 172.296875 116.742188 172.550781 116.519531 172.769531 C 116.300781 172.992188 116.046875 173.160156 115.757812 173.28125 C 115.46875 173.402344 115.167969 173.460938 114.855469 173.460938 C 114.542969 173.460938 114.242188 173.402344 113.953125 173.28125 C 113.664062 173.160156 113.410156 172.992188 113.191406 172.769531 C 112.96875 172.550781 112.800781 172.296875 112.679688 172.007812 C 112.558594 171.71875 112.5 171.417969 112.5 171.105469 C 112.5 170.792969 112.558594 170.492188 112.679688 170.203125 C 112.800781 169.914062 112.96875 169.660156 113.191406 169.441406 C 113.410156 169.21875 113.664062 169.046875 113.953125 168.929688 C 114.242188 168.808594 114.542969 168.75 114.855469 168.75 C 115.167969 168.75 115.46875 168.808594 115.757812 168.929688 C 116.046875 169.046875 116.300781 169.21875 116.519531 169.441406 C 116.742188 169.660156 116.910156 169.914062 117.03125 170.203125 C 117.152344 170.492188 117.210938 170.792969 117.210938 171.105469 Z M 117.210938 171.105469 " fill-opacity="1" fill-rule="nonzero"/></g></svg>