<svg xmlns="http://www.w3.org/2000/svg" xmlns:xlink="http://www.w3.org/1999/xlink" width="500" zoomAndPan="magnify" viewBox="0 0 375 374.999991" height="500" preserveAspectRatio="xMidYMid meet" version="1.0"><defs><clipPath id="7ac14f958c"><path d="M 267 173 L 311.46875 173 L 311.46875 258 L 267 258 Z M 267 173 " clip-rule="nonzero"/></clipPath><clipPath id="cb2a43dcf4"><path d="M 63.21875 140 L 140 140 L 140 258 L 63.21875 258 Z M 63.21875 140 " clip-rule="nonzero"/></clipPath></defs><path fill="#ffc42e" d="M 199.152344 41.867188 L 294.816406 97.132812 C 302.320312 101.476562 306.628906 108.933594 306.628906 117.605469 L 306.628906 228.132812 C 306.628906 236.816406 302.320312 244.261719 294.816406 248.605469 L 199.152344 303.871094 C 191.640625 308.214844 183.042969 308.214844 175.53125 303.871094 L 79.867188 248.605469 C 72.355469 244.261719 68.054688 236.816406 68.054688 228.132812 L 68.054688 117.605469 C 68.054688 108.933594 72.355469 101.476562 79.867188 97.132812 L 175.53125 41.867188 C 183.042969 37.535156 191.640625 37.535156 199.152344 41.867188 Z M 199.152344 41.867188 " fill-opacity="1" fill-rule="evenodd"/><path fill="#ffffff" d="M 107.636719 85.167969 L 282.710938 85.167969 C 283.273438 85.167969 283.828125 85.230469 284.378906 85.351562 C 284.933594 85.472656 285.46875 85.652344 285.988281 85.890625 C 286.507812 86.128906 287 86.421875 287.46875 86.765625 C 287.933594 87.113281 288.367188 87.503906 288.765625 87.945312 C 289.164062 88.386719 289.519531 88.863281 289.832031 89.382812 C 290.144531 89.898438 290.40625 90.445312 290.621094 91.019531 C 290.835938 91.597656 291 92.191406 291.109375 92.800781 C 291.21875 93.410156 291.273438 94.027344 291.273438 94.648438 L 291.273438 218.492188 C 291.273438 219.113281 291.21875 219.730469 291.109375 220.339844 C 291 220.953125 290.835938 221.542969 290.621094 222.121094 C 290.40625 222.695312 290.144531 223.242188 289.832031 223.757812 C 289.519531 224.277344 289.164062 224.753906 288.765625 225.195312 C 288.367188 225.636719 287.933594 226.03125 287.46875 226.375 C 287 226.722656 286.507812 227.011719 285.988281 227.25 C 285.46875 227.488281 284.933594 227.667969 284.378906 227.792969 C 283.828125 227.914062 283.273438 227.972656 282.710938 227.972656 L 107.636719 227.972656 C 107.074219 227.972656 106.519531 227.914062 105.96875 227.792969 C 105.414062 227.667969 104.878906 227.488281 104.359375 227.25 C 103.839844 227.011719 103.347656 226.722656 102.878906 226.375 C 102.414062 226.03125 101.980469 225.636719 101.582031 225.195312 C 101.183594 224.753906 100.828125 224.277344 100.519531 223.757812 C 100.207031 223.242188 99.941406 222.695312 99.726562 222.121094 C 99.511719 221.542969 99.347656 220.953125 99.238281 220.339844 C 99.128906 219.730469 99.074219 219.113281 99.074219 218.492188 L 99.074219 94.648438 C 99.074219 94.027344 99.128906 93.410156 99.238281 92.800781 C 99.347656 92.191406 99.511719 91.597656 99.726562 91.019531 C 99.941406 90.445312 100.207031 89.898438 100.519531 89.382812 C 100.828125 88.863281 101.183594 88.386719 101.582031 87.945312 C 101.980469 87.503906 102.414062 87.113281 102.878906 86.765625 C 103.347656 86.421875 103.839844 86.128906 104.359375 85.890625 C 104.878906 85.652344 105.414062 85.472656 105.96875 85.351562 C 106.519531 85.230469 107.074219 85.167969 107.636719 85.167969 Z M 107.636719 85.167969 " fill-opacity="1" fill-rule="evenodd"/><path fill="#1c3b5c" d="M 108.550781 85.167969 L 281.785156 85.167969 C 287.007812 85.167969 291.273438 89.4375 291.273438 94.648438 L 291.273438 206.078125 L 99.074219 206.078125 L 99.074219 94.648438 C 99.074219 89.4375 103.339844 85.167969 108.550781 85.167969 Z M 108.550781 85.167969 " fill-opacity="1" fill-rule="evenodd"/><path fill="#00dcab" d="M 106.078125 93.441406 L 284.257812 93.441406 L 284.257812 198.285156 L 106.078125 198.285156 Z M 106.078125 93.441406 " fill-opacity="1" fill-rule="evenodd"/><path fill="#afb0b5" d="M 199.929688 216.199219 C 199.929688 216.511719 199.898438 216.820312 199.835938 217.125 C 199.777344 217.433594 199.683594 217.730469 199.566406 218.019531 C 199.445312 218.304688 199.300781 218.582031 199.125 218.839844 C 198.953125 219.101562 198.757812 219.339844 198.535156 219.5625 C 198.316406 219.78125 198.074219 219.980469 197.816406 220.152344 C 197.554688 220.328125 197.28125 220.472656 196.992188 220.59375 C 196.703125 220.710938 196.40625 220.800781 196.101562 220.863281 C 195.796875 220.925781 195.484375 220.953125 195.175781 220.953125 C 194.863281 220.953125 194.550781 220.925781 194.246094 220.863281 C 193.941406 220.800781 193.644531 220.710938 193.355469 220.59375 C 193.066406 220.472656 192.792969 220.328125 192.53125 220.152344 C 192.273438 219.980469 192.03125 219.78125 191.8125 219.5625 C 191.589844 219.339844 191.394531 219.101562 191.222656 218.839844 C 191.046875 218.582031 190.902344 218.304688 190.78125 218.019531 C 190.664062 217.730469 190.570312 217.433594 190.511719 217.125 C 190.449219 216.820312 190.417969 216.511719 190.417969 216.199219 C 190.417969 215.886719 190.449219 215.574219 190.511719 215.269531 C 190.570312 214.964844 190.664062 214.664062 190.78125 214.378906 C 190.902344 214.089844 191.046875 213.8125 191.222656 213.554688 C 191.394531 213.296875 191.589844 213.054688 191.8125 212.832031 C 192.03125 212.613281 192.273438 212.414062 192.53125 212.242188 C 192.792969 212.070312 193.066406 211.921875 193.355469 211.800781 C 193.644531 211.683594 193.941406 211.59375 194.246094 211.53125 C 194.550781 211.472656 194.863281 211.441406 195.175781 211.441406 C 195.484375 211.441406 195.796875 211.472656 196.101562 211.53125 C 196.40625 211.59375 196.703125 211.683594 196.992188 211.800781 C 197.28125 211.921875 197.554688 212.070312 197.816406 212.242188 C 198.074219 212.414062 198.316406 212.613281 198.535156 212.832031 C 198.757812 213.054688 198.953125 213.296875 199.125 213.554688 C 199.300781 213.8125 199.445312 214.089844 199.566406 214.378906 C 199.683594 214.664062 199.777344 214.964844 199.835938 215.269531 C 199.898438 215.574219 199.929688 215.886719 199.929688 216.199219 Z M 199.929688 216.199219 " fill-opacity="1" fill-rule="nonzero"/><path fill="#ffffff" d="M 175.066406 227.972656 L 215.292969 227.972656 L 215.292969 245.089844 L 175.066406 245.089844 Z M 175.066406 227.972656 " fill-opacity="1" fill-rule="evenodd"/><path fill="#e1e3e8" d="M 175.066406 227.972656 L 215.292969 227.972656 L 215.292969 234.960938 L 175.066406 234.960938 Z M 175.066406 227.972656 " fill-opacity="1" fill-rule="evenodd"/><path fill="#e1e3e8" d="M 167.921875 260.582031 L 222.667969 260.582031 C 225.460938 260.582031 226.796875 257.097656 224.929688 255.144531 L 215.28125 245.089844 L 175.066406 245.089844 L 165.746094 254.722656 C 164.101562 256.417969 165.195312 260.582031 167.921875 260.582031 Z M 167.921875 260.582031 " fill-opacity="1" fill-rule="evenodd"/><path fill="#ffffff" d="M 106.078125 111.320312 L 284.257812 111.320312 L 284.257812 155.375 L 106.078125 155.375 Z M 106.078125 111.320312 " fill-opacity="1" fill-rule="evenodd"/><path fill="#ffffff" d="M 131.894531 182.996094 L 157.183594 182.996094 L 157.183594 185.265625 L 131.894531 185.265625 Z M 131.894531 188.601562 L 148.738281 188.601562 L 148.738281 190.871094 L 131.894531 190.871094 Z M 131.894531 188.601562 " fill-opacity="1" fill-rule="evenodd"/><path fill="#ffd467" d="M 131.894531 164.222656 L 163.539062 164.222656 L 163.539062 179.957031 L 131.894531 179.957031 Z M 131.894531 164.222656 " fill-opacity="1" fill-rule="evenodd"/><path fill="#4288c7" d="M 178.28125 164.222656 L 209.925781 164.222656 L 209.925781 179.957031 L 178.28125 179.957031 Z M 178.28125 164.222656 " fill-opacity="1" fill-rule="evenodd"/><path fill="#ff576b" d="M 224.664062 164.222656 L 256.308594 164.222656 L 256.308594 179.957031 L 224.664062 179.957031 Z M 224.664062 164.222656 " fill-opacity="1" fill-rule="evenodd"/><g clip-path="url(#7ac14f958c)"><path fill="#1c3b5c" d="M 273.222656 173.894531 L 305.578125 173.894531 C 305.964844 173.894531 306.347656 173.933594 306.726562 174.015625 C 307.105469 174.101562 307.472656 174.222656 307.832031 174.382812 C 308.1875 174.542969 308.527344 174.742188 308.851562 174.976562 C 309.171875 175.210938 309.46875 175.476562 309.742188 175.773438 C 310.015625 176.070312 310.261719 176.394531 310.476562 176.746094 C 310.691406 177.09375 310.871094 177.464844 311.019531 177.851562 C 311.167969 178.242188 311.277344 178.644531 311.355469 179.054688 C 311.429688 179.46875 311.46875 179.886719 311.46875 180.308594 L 311.46875 250.910156 C 311.46875 251.328125 311.429688 251.746094 311.355469 252.160156 C 311.277344 252.574219 311.167969 252.972656 311.019531 253.363281 C 310.871094 253.753906 310.691406 254.121094 310.476562 254.472656 C 310.261719 254.820312 310.015625 255.144531 309.742188 255.445312 C 309.46875 255.742188 309.171875 256.007812 308.851562 256.242188 C 308.527344 256.476562 308.1875 256.671875 307.832031 256.835938 C 307.472656 256.996094 307.105469 257.117188 306.726562 257.199219 C 306.347656 257.28125 305.964844 257.320312 305.578125 257.320312 L 273.222656 257.320312 C 272.835938 257.320312 272.453125 257.28125 272.074219 257.199219 C 271.695312 257.117188 271.328125 256.996094 270.96875 256.835938 C 270.613281 256.671875 270.273438 256.476562 269.949219 256.242188 C 269.628906 256.007812 269.332031 255.742188 269.058594 255.445312 C 268.785156 255.144531 268.539062 254.820312 268.324219 254.472656 C 268.109375 254.121094 267.929688 253.753906 267.78125 253.363281 C 267.632812 252.972656 267.523438 252.574219 267.445312 252.160156 C 267.371094 251.746094 267.332031 251.328125 267.332031 250.910156 L 267.332031 180.308594 C 267.332031 179.886719 267.371094 179.46875 267.445312 179.054688 C 267.523438 178.644531 267.632812 178.242188 267.78125 177.851562 C 267.929688 177.464844 268.109375 177.09375 268.324219 176.746094 C 268.539062 176.394531 268.785156 176.070312 269.058594 175.773438 C 269.332031 175.476562 269.628906 175.210938 269.949219 174.976562 C 270.273438 174.742188 270.613281 174.542969 270.96875 174.382812 C 271.328125 174.222656 271.695312 174.101562 272.074219 174.015625 C 272.453125 173.933594 272.835938 173.894531 273.222656 173.894531 Z M 273.222656 173.894531 " fill-opacity="1" fill-rule="evenodd"/></g><path fill="#00dcab" d="M 269.636719 185.425781 L 309.152344 185.425781 C 309.300781 185.425781 309.378906 185.488281 309.378906 185.617188 L 309.378906 245.601562 C 309.378906 245.726562 309.300781 245.789062 309.152344 245.789062 L 269.636719 245.789062 C 269.488281 245.789062 269.414062 245.726562 269.414062 245.601562 L 269.414062 185.617188 C 269.414062 185.488281 269.488281 185.425781 269.636719 185.425781 Z M 269.636719 185.425781 " fill-opacity="1" fill-rule="evenodd"/><path fill="#8e8e93" d="M 292.25 251.078125 C 292.25 251.457031 292.175781 251.820312 292.03125 252.171875 C 291.886719 252.523438 291.679688 252.832031 291.414062 253.097656 C 291.144531 253.367188 290.835938 253.574219 290.488281 253.71875 C 290.136719 253.863281 289.773438 253.933594 289.394531 253.933594 C 289.015625 253.933594 288.652344 253.863281 288.304688 253.71875 C 287.953125 253.574219 287.644531 253.367188 287.375 253.097656 C 287.109375 252.832031 286.902344 252.523438 286.757812 252.171875 C 286.613281 251.820312 286.539062 251.457031 286.539062 251.078125 C 286.539062 250.699219 286.613281 250.335938 286.757812 249.984375 C 286.902344 249.636719 287.109375 249.328125 287.375 249.058594 C 287.644531 248.792969 287.953125 248.585938 288.304688 248.441406 C 288.652344 248.292969 289.015625 248.222656 289.394531 248.222656 C 289.773438 248.222656 290.136719 248.292969 290.488281 248.441406 C 290.835938 248.585938 291.144531 248.792969 291.414062 249.058594 C 291.679688 249.328125 291.886719 249.636719 292.03125 249.984375 C 292.175781 250.335938 292.25 250.699219 292.25 251.078125 Z M 292.25 251.078125 " fill-opacity="1" fill-rule="nonzero"/><path fill="#8e8e93" d="M 283.570312 180.085938 C 283.570312 180.359375 283.472656 180.589844 283.28125 180.78125 C 283.085938 180.976562 282.855469 181.074219 282.582031 181.074219 C 282.308594 181.074219 282.078125 180.976562 281.882812 180.78125 C 281.691406 180.589844 281.59375 180.359375 281.59375 180.085938 C 281.59375 179.8125 281.691406 179.578125 281.882812 179.386719 C 282.078125 179.195312 282.308594 179.097656 282.582031 179.097656 C 282.855469 179.097656 283.085938 179.195312 283.28125 179.386719 C 283.472656 179.578125 283.570312 179.8125 283.570312 180.085938 Z M 283.570312 180.085938 " fill-opacity="1" fill-rule="nonzero"/><path fill="#8e8e93" d="M 286.167969 179.097656 L 292.90625 179.097656 C 293.152344 179.097656 293.363281 179.183594 293.539062 179.359375 C 293.710938 179.53125 293.800781 179.742188 293.800781 179.988281 C 293.800781 180.234375 293.710938 180.445312 293.539062 180.621094 C 293.363281 180.792969 293.152344 180.882812 292.90625 180.882812 L 286.167969 180.882812 C 285.921875 180.882812 285.714844 180.792969 285.539062 180.621094 C 285.363281 180.445312 285.277344 180.234375 285.277344 179.988281 C 285.277344 179.742188 285.363281 179.53125 285.539062 179.359375 C 285.714844 179.183594 285.921875 179.097656 286.167969 179.097656 Z M 286.167969 179.097656 " fill-opacity="1" fill-rule="evenodd"/><g clip-path="url(#cb2a43dcf4)"><path fill="#1c3b5c" d="M 63.21875 248.628906 L 63.21875 149.59375 C 63.21875 149.023438 63.273438 148.457031 63.382812 147.898438 C 63.496094 147.339844 63.660156 146.796875 63.878906 146.269531 C 64.097656 145.742188 64.363281 145.242188 64.679688 144.765625 C 64.996094 144.292969 65.359375 143.851562 65.761719 143.449219 C 66.164062 143.046875 66.601562 142.683594 67.078125 142.367188 C 67.550781 142.050781 68.050781 141.785156 68.578125 141.566406 C 69.105469 141.347656 69.648438 141.183594 70.207031 141.070312 C 70.765625 140.960938 71.332031 140.902344 71.902344 140.902344 L 130.644531 140.902344 C 131.214844 140.902344 131.78125 140.960938 132.339844 141.070312 C 132.898438 141.183594 133.441406 141.347656 133.96875 141.566406 C 134.496094 141.785156 134.996094 142.050781 135.46875 142.367188 C 135.941406 142.683594 136.382812 143.046875 136.785156 143.449219 C 137.1875 143.851562 137.546875 144.292969 137.863281 144.765625 C 138.183594 145.242188 138.449219 145.742188 138.667969 146.269531 C 138.886719 146.796875 139.050781 147.339844 139.160156 147.898438 C 139.273438 148.457031 139.328125 149.023438 139.328125 149.59375 L 139.328125 248.628906 C 139.328125 249.203125 139.273438 249.765625 139.160156 250.324219 C 139.050781 250.886719 138.886719 251.429688 138.667969 251.957031 C 138.449219 252.484375 138.183594 252.984375 137.863281 253.457031 C 137.546875 253.933594 137.1875 254.371094 136.785156 254.773438 C 136.382812 255.179688 135.941406 255.539062 135.46875 255.855469 C 134.996094 256.171875 134.496094 256.441406 133.96875 256.660156 C 133.441406 256.878906 132.898438 257.042969 132.339844 257.152344 C 131.78125 257.265625 131.214844 257.320312 130.644531 257.320312 L 71.902344 257.320312 C 71.332031 257.320312 70.765625 257.265625 70.207031 257.152344 C 69.648438 257.042969 69.105469 256.878906 68.578125 256.660156 C 68.050781 256.441406 67.550781 256.171875 67.078125 255.855469 C 66.601562 255.539062 66.164062 255.179688 65.761719 254.773438 C 65.359375 254.371094 64.996094 253.933594 64.679688 253.457031 C 64.363281 252.984375 64.097656 252.484375 63.878906 251.957031 C 63.660156 251.429688 63.496094 250.886719 63.382812 250.324219 C 63.273438 249.765625 63.21875 249.203125 63.21875 248.628906 Z M 63.21875 248.628906 " fill-opacity="1" fill-rule="evenodd"/></g><path fill="#00dcab" d="M 66.691406 245.15625 L 66.691406 153.070312 L 135.855469 153.070312 L 135.855469 245.15625 Z M 66.691406 245.15625 " fill-opacity="1" fill-rule="evenodd"/><path fill="#afb0b5" d="M 101.273438 248.152344 C 101.683594 248.152344 102.074219 248.230469 102.453125 248.386719 C 102.828125 248.542969 103.164062 248.765625 103.453125 249.054688 C 103.738281 249.34375 103.960938 249.675781 104.117188 250.050781 C 104.273438 250.429688 104.351562 250.824219 104.351562 251.230469 C 104.351562 251.640625 104.273438 252.03125 104.117188 252.410156 C 103.960938 252.789062 103.738281 253.121094 103.453125 253.410156 C 103.164062 253.699219 102.828125 253.921875 102.453125 254.078125 C 102.074219 254.234375 101.683594 254.3125 101.273438 254.3125 C 100.867188 254.3125 100.472656 254.234375 100.097656 254.078125 C 99.71875 253.921875 99.386719 253.699219 99.097656 253.410156 C 98.808594 253.121094 98.585938 252.789062 98.429688 252.410156 C 98.273438 252.03125 98.195312 251.640625 98.195312 251.230469 C 98.195312 250.824219 98.273438 250.429688 98.429688 250.050781 C 98.585938 249.675781 98.808594 249.34375 99.097656 249.054688 C 99.386719 248.765625 99.71875 248.542969 100.097656 248.386719 C 100.472656 248.230469 100.867188 248.152344 101.273438 248.152344 Z M 101.273438 248.152344 " fill-opacity="1" fill-rule="nonzero"/><path fill="#afb0b5" d="M 90.382812 147.304688 C 90.382812 146.679688 90.894531 146.171875 91.519531 146.171875 C 92.132812 146.171875 92.644531 146.679688 92.644531 147.304688 C 92.644531 147.933594 92.132812 148.441406 91.519531 148.441406 C 90.894531 148.441406 90.382812 147.933594 90.382812 147.304688 Z M 97.089844 146.519531 L 104.464844 146.519531 C 105.8125 146.519531 105.8125 148.101562 104.464844 148.101562 L 97.089844 148.101562 C 95.730469 148.101562 95.730469 146.519531 97.089844 146.519531 Z M 97.089844 146.519531 " fill-opacity="1" fill-rule="evenodd"/><path fill="#205081" d="M 141.277344 102.167969 L 159.316406 102.167969 L 159.316406 106.011719 L 141.277344 106.011719 Z M 141.277344 102.167969 " fill-opacity="1" fill-rule="evenodd"/><path fill="#205081" d="M 178.078125 102.167969 L 196.117188 102.167969 L 196.117188 106.011719 L 178.078125 106.011719 Z M 178.078125 102.167969 " fill-opacity="1" fill-rule="evenodd"/><path fill="#205081" d="M 214.878906 102.167969 L 232.917969 102.167969 L 232.917969 106.011719 L 214.878906 106.011719 Z M 214.878906 102.167969 " fill-opacity="1" fill-rule="evenodd"/><path fill="#205081" d="M 251.679688 102.167969 L 269.722656 102.167969 L 269.722656 106.011719 L 251.679688 106.011719 Z M 251.679688 102.167969 " fill-opacity="1" fill-rule="evenodd"/><path fill="#ffffff" d="M 224.664062 182.996094 L 249.953125 182.996094 L 249.953125 185.265625 L 224.664062 185.265625 Z M 224.664062 188.601562 L 241.503906 188.601562 L 241.503906 190.871094 L 224.664062 190.871094 Z M 224.664062 188.601562 " fill-opacity="1" fill-rule="evenodd"/><path fill="#ffffff" d="M 178.28125 182.996094 L 203.566406 182.996094 L 203.566406 185.265625 L 178.28125 185.265625 Z M 178.28125 188.601562 L 195.121094 188.601562 L 195.121094 190.871094 L 178.28125 190.871094 Z M 178.28125 188.601562 " fill-opacity="1" fill-rule="evenodd"/><path fill="#ffffff" d="M 269.414062 185.425781 L 309.378906 185.425781 L 309.378906 208.710938 L 269.414062 208.710938 Z M 269.414062 185.425781 " fill-opacity="1" fill-rule="evenodd"/><path fill="#205081" d="M 301.34375 193.582031 L 306.363281 193.582031 L 306.363281 195.035156 L 301.34375 195.035156 Z M 301.34375 187.273438 L 306.363281 187.273438 L 306.363281 188.726562 L 301.34375 188.726562 Z M 301.34375 190.425781 L 306.363281 190.425781 L 306.363281 191.882812 L 301.34375 191.882812 Z M 301.34375 190.425781 " fill-opacity="1" fill-rule="evenodd"/><path fill="#ffffff" d="M 66.6875 168.191406 L 135.855469 168.191406 L 135.855469 206.078125 L 66.6875 206.078125 Z M 66.6875 168.191406 " fill-opacity="1" fill-rule="evenodd"/><path fill="#ffffff" d="M 71.3125 229.203125 L 91.71875 229.203125 L 91.71875 231.464844 L 71.3125 231.464844 Z M 71.3125 234.800781 L 84.898438 234.800781 L 84.898438 237.074219 L 71.3125 237.074219 Z M 71.3125 234.800781 " fill-opacity="1" fill-rule="evenodd"/><path fill="#ffd467" d="M 71.3125 210.421875 L 98.035156 210.421875 L 98.035156 226.15625 L 71.3125 226.15625 Z M 71.3125 210.421875 " fill-opacity="1" fill-rule="evenodd"/><path fill="#ffffff" d="M 104.507812 229.203125 L 124.914062 229.203125 L 124.914062 231.464844 L 104.507812 231.464844 Z M 104.507812 234.800781 L 118.089844 234.800781 L 118.089844 237.074219 L 104.507812 237.074219 Z M 104.507812 234.800781 " fill-opacity="1" fill-rule="evenodd"/><path fill="#4288c7" d="M 104.507812 210.421875 L 131.226562 210.421875 L 131.226562 226.15625 L 104.507812 226.15625 Z M 104.507812 210.421875 " fill-opacity="1" fill-rule="evenodd"/><path fill="#205081" d="M 78.042969 160.132812 L 86.710938 160.132812 L 86.710938 164.859375 L 78.042969 164.859375 Z M 78.042969 160.132812 " fill-opacity="1" fill-rule="evenodd"/><path fill="#205081" d="M 92.503906 160.132812 L 101.175781 160.132812 L 101.175781 164.859375 L 92.503906 164.859375 Z M 92.503906 160.132812 " fill-opacity="1" fill-rule="evenodd"/><path fill="#205081" d="M 106.96875 160.132812 L 115.640625 160.132812 L 115.640625 164.859375 L 106.96875 164.859375 Z M 106.96875 160.132812 " fill-opacity="1" fill-rule="evenodd"/><path fill="#205081" d="M 121.433594 160.132812 L 130.101562 160.132812 L 130.101562 164.859375 L 121.433594 164.859375 Z M 121.433594 160.132812 " fill-opacity="1" fill-rule="evenodd"/><path fill="#ffffff" d="M 276.035156 232.910156 L 296.441406 232.910156 L 296.441406 235.171875 L 276.035156 235.171875 Z M 276.035156 238.507812 L 289.617188 238.507812 L 289.617188 240.777344 L 276.035156 240.777344 Z M 276.035156 238.507812 " fill-opacity="1" fill-rule="evenodd"/><path fill="#ffd467" d="M 276.035156 214.136719 L 302.753906 214.136719 L 302.753906 229.875 L 276.035156 229.875 Z M 276.035156 214.136719 " fill-opacity="1" fill-rule="evenodd"/></svg>