<svg xmlns="http://www.w3.org/2000/svg" xmlns:xlink="http://www.w3.org/1999/xlink" width="500" zoomAndPan="magnify" viewBox="0 0 375 374.999991" height="500" preserveAspectRatio="xMidYMid meet" version="1.0"><defs><clipPath id="c96a8e0af1"><path d="M 13.222656 123 L 117 123 L 117 248.289062 L 13.222656 248.289062 Z M 13.222656 123 " clip-rule="nonzero"/></clipPath></defs><path fill="#0071bc" d="M 359.070312 117.066406 C 308.976562 114.789062 305.335938 131.097656 295.410156 157.265625 L 276.007812 159.542969 L 271.460938 177.597656 C 271.460938 177.597656 281.691406 170.390625 284.570312 172.589844 C 286.085938 173.804688 283.207031 179.339844 283.207031 179.339844 L 289.117188 186.089844 L 289.042969 186.167969 L 289.953125 187.078125 L 290.027344 187 L 296.773438 192.917969 C 296.773438 192.917969 302.382812 190.035156 303.519531 191.550781 C 305.714844 194.359375 298.515625 204.675781 298.515625 204.675781 L 316.554688 200.125 L 318.828125 180.707031 C 345.050781 170.84375 361.34375 167.203125 359.070312 117.066406 Z M 342.777344 146.269531 C 340.199219 161.058594 321.101562 161.058594 318.523438 146.269531 C 318.449219 145.8125 318.449219 145.28125 318.523438 144.828125 C 321.101562 130.035156 340.199219 130.035156 342.777344 144.828125 C 342.851562 145.28125 342.851562 145.738281 342.777344 146.269531 Z M 342.777344 146.269531 " fill-opacity="1" fill-rule="nonzero"/><path fill="#f15a24" d="M 278.433594 187.53125 C 281.238281 184.726562 285.859375 184.726562 288.664062 187.53125 C 291.46875 190.339844 291.46875 194.964844 288.664062 197.773438 C 285.859375 200.578125 273.355469 202.855469 273.355469 202.855469 C 273.355469 202.855469 275.628906 190.339844 278.433594 187.53125 Z M 278.433594 187.53125 " fill-opacity="1" fill-rule="nonzero"/><g clip-path="url(#c96a8e0af1)"><path fill="#009245" d="M 116.851562 209.300781 C 116.851562 233.347656 97.675781 248.289062 66.753906 248.289062 C 40.152344 248.289062 23.25 238.65625 15.21875 218.785156 L 13.851562 215.523438 L 38.03125 203.007812 L 39.621094 206.949219 C 43.410156 216.433594 53.71875 222.046875 67.054688 222.046875 C 72.132812 222.046875 88.582031 221.136719 88.582031 209.300781 C 88.582031 206.800781 88.582031 199.289062 66.527344 196.863281 C 43.410156 194.132812 19.839844 187.53125 19.839844 159.695312 C 19.839844 135.117188 43.183594 123.890625 66.296875 123.742188 C 89.1875 123.742188 105.328125 132.085938 113.058594 147.785156 L 114.726562 151.125 L 91.6875 162.957031 L 89.867188 159.847656 C 86.6875 154.839844 77.667969 149.453125 66.90625 149.453125 C 55.007812 149.453125 47.882812 153.476562 47.882812 160.300781 C 47.882812 165.761719 53.792969 168.570312 69.027344 170.390625 C 84.5625 172.285156 116.851562 176.230469 116.851562 209.300781 Z M 116.851562 209.300781 " fill-opacity="1" fill-rule="nonzero"/></g><path fill="#fbb03b" d="M 130.644531 127.457031 L 220.757812 127.457031 L 220.757812 155.296875 L 158.914062 155.296875 L 158.914062 172.96875 L 218.558594 172.96875 L 218.558594 199.972656 L 158.914062 199.972656 L 158.914062 217.191406 L 220.757812 217.191406 L 220.757812 245.332031 L 130.644531 245.332031 Z M 130.644531 127.457031 " fill-opacity="1" fill-rule="nonzero"/><path fill="#ed1c24" d="M 348.992188 170.3125 C 350.28125 175.699219 350.960938 181.386719 350.960938 187.152344 C 350.660156 217.417969 331.863281 247.988281 290.632812 247.988281 C 271.609375 247.988281 255.769531 241.464844 244.933594 229.097656 C 235.382812 218.253906 230.15625 203.386719 230.15625 187.230469 C 230.15625 171.074219 235.460938 155.976562 245.160156 144.828125 C 256.148438 132.085938 271.914062 125.332031 290.710938 125.332031 C 296.167969 125.332031 301.394531 125.941406 306.246094 127.078125 C 300.335938 133.675781 297.078125 142.25 293.4375 152.035156 C 292.527344 151.957031 291.621094 151.957031 290.710938 151.957031 C 281.238281 151.957031 273.582031 154.914062 267.898438 160.757812 C 261.53125 167.28125 258.046875 177.066406 258.347656 187.53125 C 258.574219 195.421875 261.53125 221.285156 290.710938 221.285156 C 314.054688 221.285156 322.617188 203.765625 322.921875 187.378906 C 322.921875 186.089844 322.921875 184.726562 322.84375 183.4375 L 323.980469 182.980469 C 333.757812 179.265625 342.324219 176.003906 348.992188 170.3125 Z M 348.992188 170.3125 " fill-opacity="1" fill-rule="nonzero"/></svg>