<svg xmlns="http://www.w3.org/2000/svg" xmlns:xlink="http://www.w3.org/1999/xlink" width="500" zoomAndPan="magnify" viewBox="0 0 375 374.999991" height="500" preserveAspectRatio="xMidYMid meet" version="1.0"><defs><clipPath id="9862c42ee7"><path d="M 108.449219 108.449219 L 266.699219 108.449219 L 266.699219 266.699219 L 108.449219 266.699219 Z M 108.449219 108.449219 " clip-rule="nonzero"/></clipPath></defs><g clip-path="url(#9862c42ee7)"><path fill="#4b81d7" d="M 229.546875 229.546875 C 218.664062 240.425781 204.917969 246.410156 189.667969 246.925781 L 189.667969 235.726562 C 201.882812 235.210938 212.898438 230.367188 221.632812 221.632812 C 230.367188 212.898438 235.210938 201.882812 235.726562 189.667969 L 246.925781 189.667969 C 246.410156 204.917969 240.425781 218.664062 229.546875 229.546875 Z M 145.449219 229.546875 C 134.570312 218.664062 128.585938 204.917969 128.070312 189.667969 L 139.269531 189.667969 C 139.78125 201.882812 144.628906 212.898438 153.363281 221.632812 C 162.097656 230.367188 173.113281 235.210938 185.328125 235.726562 L 185.328125 246.925781 C 170.078125 246.410156 156.328125 240.425781 145.449219 229.546875 Z M 145.449219 145.449219 C 156.328125 134.566406 170.078125 128.585938 185.328125 128.070312 L 185.328125 139.269531 C 173.113281 139.78125 162.097656 144.628906 153.363281 153.363281 C 144.628906 162.097656 139.78125 173.113281 139.269531 185.328125 L 128.070312 185.328125 C 128.585938 170.078125 134.566406 156.328125 145.449219 145.449219 Z M 224.675781 189.667969 L 231.378906 189.667969 C 230.871094 200.707031 226.464844 210.660156 218.5625 218.5625 C 210.660156 226.464844 200.707031 230.871094 189.667969 231.378906 L 189.667969 224.675781 C 189.667969 223.476562 188.695312 222.503906 187.496094 222.503906 C 186.300781 222.503906 185.328125 223.476562 185.328125 224.675781 L 185.328125 231.378906 C 174.289062 230.871094 164.335938 226.464844 156.433594 218.5625 C 148.527344 210.660156 144.125 200.707031 143.613281 189.667969 L 150.320312 189.667969 C 151.519531 189.667969 152.488281 188.695312 152.488281 187.496094 C 152.488281 186.300781 151.519531 185.328125 150.320312 185.328125 L 143.613281 185.328125 C 144.125 174.289062 148.527344 164.335938 156.433594 156.433594 C 164.335938 148.527344 174.289062 144.125 185.328125 143.613281 L 185.328125 150.320312 C 185.328125 151.519531 186.300781 152.488281 187.496094 152.488281 C 188.695312 152.488281 189.667969 151.519531 189.667969 150.320312 L 189.667969 143.613281 C 200.707031 144.125 210.660156 148.527344 218.5625 156.433594 C 226.464844 164.335938 230.871094 174.289062 231.378906 185.328125 L 224.675781 185.328125 C 223.476562 185.328125 222.503906 186.300781 222.503906 187.496094 C 222.503906 188.695312 223.476562 189.667969 224.675781 189.667969 Z M 229.546875 145.449219 C 240.425781 156.328125 246.410156 170.078125 246.925781 185.328125 L 235.726562 185.328125 C 235.210938 173.113281 230.367188 162.097656 221.632812 153.363281 C 212.898438 144.628906 201.882812 139.78125 189.667969 139.269531 L 189.667969 128.070312 C 204.917969 128.585938 218.664062 134.566406 229.546875 145.449219 Z M 264.375 185.328125 L 251.269531 185.328125 C 250.75 168.902344 244.328125 154.09375 232.617188 142.378906 C 220.902344 130.667969 206.09375 124.246094 189.667969 123.726562 L 189.667969 110.617188 C 189.667969 109.421875 188.695312 108.449219 187.496094 108.449219 C 186.300781 108.449219 185.328125 109.421875 185.328125 110.617188 L 185.328125 123.726562 C 168.902344 124.246094 154.09375 130.667969 142.378906 142.378906 C 130.667969 154.09375 124.246094 168.902344 123.726562 185.328125 L 110.617188 185.328125 C 109.421875 185.328125 108.449219 186.300781 108.449219 187.496094 C 108.449219 188.695312 109.421875 189.667969 110.617188 189.667969 L 123.726562 189.667969 C 124.246094 206.09375 130.667969 220.902344 142.378906 232.617188 C 154.09375 244.328125 168.902344 250.75 185.328125 251.269531 L 185.328125 264.375 C 185.328125 265.574219 186.300781 266.546875 187.496094 266.546875 C 188.695312 266.546875 189.667969 265.574219 189.667969 264.375 L 189.667969 251.269531 C 206.09375 250.75 220.902344 244.328125 232.617188 232.617188 C 244.328125 220.902344 250.75 206.09375 251.269531 189.667969 L 264.375 189.667969 C 265.574219 189.667969 266.546875 188.695312 266.546875 187.496094 C 266.546875 186.300781 265.574219 185.328125 264.375 185.328125 " fill-opacity="1" fill-rule="nonzero"/></g><path fill="#4b81d7" d="M 173.738281 187.054688 C 173.109375 186.609375 172.339844 186.226562 171.449219 185.914062 C 170.570312 185.609375 169.578125 185.324219 168.492188 185.070312 L 168.488281 185.070312 C 167.632812 184.855469 167.011719 184.6875 166.640625 184.578125 C 166.28125 184.46875 165.921875 184.316406 165.566406 184.121094 C 165.230469 183.9375 164.960938 183.714844 164.769531 183.457031 C 164.589844 183.21875 164.496094 182.925781 164.496094 182.589844 C 164.496094 182.035156 164.769531 181.570312 165.332031 181.164062 C 165.910156 180.75 166.6875 180.542969 167.640625 180.542969 C 168.667969 180.542969 169.417969 180.730469 169.867188 181.105469 C 170.328125 181.488281 170.734375 182.035156 171.070312 182.726562 L 171.078125 182.742188 C 171.359375 183.269531 171.617188 183.644531 171.867188 183.882812 C 172.136719 184.140625 172.523438 184.273438 173.023438 184.273438 C 173.5625 184.273438 174.039062 184.058594 174.402344 183.648438 C 174.761719 183.238281 174.945312 182.773438 174.945312 182.261719 C 174.945312 181.726562 174.804688 181.171875 174.53125 180.613281 C 174.257812 180.054688 173.820312 179.519531 173.234375 179.019531 C 172.652344 178.519531 171.910156 178.117188 171.027344 177.816406 C 170.148438 177.519531 169.097656 177.367188 167.902344 177.367188 C 166.410156 177.367188 165.085938 177.59375 163.976562 178.042969 C 162.855469 178.496094 161.980469 179.15625 161.382812 180.007812 C 160.785156 180.859375 160.484375 181.847656 160.484375 182.941406 C 160.484375 184.089844 160.773438 185.066406 161.339844 185.847656 C 161.90625 186.617188 162.675781 187.234375 163.632812 187.679688 C 164.574219 188.113281 165.753906 188.5 167.140625 188.824219 C 168.15625 189.058594 168.980469 189.28125 169.585938 189.488281 C 170.167969 189.683594 170.644531 189.972656 171.007812 190.347656 C 171.363281 190.707031 171.535156 191.167969 171.535156 191.753906 C 171.535156 192.492188 171.207031 193.097656 170.535156 193.597656 C 169.855469 194.105469 168.953125 194.363281 167.851562 194.363281 C 167.050781 194.363281 166.398438 194.234375 165.917969 193.984375 C 165.433594 193.734375 165.058594 193.417969 164.792969 193.035156 C 164.519531 192.640625 164.261719 192.140625 164.027344 191.550781 C 163.808594 190.996094 163.554688 190.589844 163.246094 190.304688 C 162.925781 190.007812 162.527344 189.859375 162.0625 189.859375 C 161.503906 189.859375 161.03125 190.046875 160.664062 190.425781 C 160.300781 190.796875 160.117188 191.253906 160.117188 191.777344 C 160.117188 192.628906 160.402344 193.507812 160.964844 194.398438 C 161.527344 195.28125 162.265625 196 163.167969 196.527344 C 164.421875 197.257812 166.035156 197.628906 167.957031 197.628906 C 169.558594 197.628906 170.964844 197.359375 172.140625 196.824219 C 173.324219 196.289062 174.234375 195.53125 174.851562 194.574219 C 175.46875 193.621094 175.785156 192.53125 175.785156 191.335938 C 175.785156 190.335938 175.601562 189.480469 175.242188 188.785156 C 174.882812 188.089844 174.378906 187.507812 173.738281 187.054688 " fill-opacity="1" fill-rule="nonzero"/><path fill="#4b81d7" d="M 191.824219 193.796875 L 182.972656 193.796875 L 182.972656 188.753906 L 190.828125 188.753906 C 191.484375 188.753906 191.980469 188.59375 192.308594 188.28125 C 192.632812 187.972656 192.804688 187.550781 192.804688 187.066406 C 192.804688 186.578125 192.628906 186.160156 192.296875 185.859375 C 191.96875 185.558594 191.472656 185.40625 190.828125 185.40625 L 182.972656 185.40625 L 182.972656 181.105469 L 191.523438 181.105469 C 192.195312 181.105469 192.707031 180.949219 193.042969 180.640625 C 193.382812 180.328125 193.5625 179.898438 193.5625 179.394531 C 193.5625 178.898438 193.382812 178.46875 193.042969 178.160156 C 192.707031 177.851562 192.195312 177.695312 191.523438 177.695312 L 181.257812 177.695312 C 180.683594 177.695312 180.195312 177.78125 179.816406 177.953125 C 179.417969 178.136719 179.125 178.429688 178.9375 178.828125 C 178.757812 179.210938 178.667969 179.6875 178.667969 180.285156 L 178.667969 194.710938 C 178.667969 195.601562 178.875 196.265625 179.285156 196.675781 C 179.695312 197.089844 180.359375 197.300781 181.257812 197.300781 L 191.824219 197.300781 C 192.488281 197.300781 193 197.140625 193.347656 196.820312 C 193.695312 196.503906 193.878906 196.066406 193.878906 195.5625 C 193.878906 195.042969 193.695312 194.597656 193.347656 194.277344 C 192.996094 193.960938 192.488281 193.796875 191.824219 193.796875 " fill-opacity="1" fill-rule="nonzero"/><path fill="#4b81d7" d="M 209.804688 191.191406 C 209.332031 192.1875 208.691406 192.933594 207.894531 193.410156 C 207.085938 193.890625 206.226562 194.125 205.257812 194.125 C 204.515625 194.125 203.824219 193.988281 203.203125 193.710938 C 202.582031 193.4375 202.023438 193.015625 201.546875 192.460938 C 201.066406 191.90625 200.6875 191.191406 200.421875 190.34375 C 200.152344 189.484375 200.019531 188.511719 200.019531 187.445312 C 200.019531 186.390625 200.152344 185.425781 200.421875 184.582031 C 200.6875 183.742188 201.050781 183.046875 201.507812 182.511719 C 201.960938 181.980469 202.507812 181.570312 203.136719 181.289062 C 203.765625 181.011719 204.460938 180.871094 205.207031 180.871094 C 206.253906 180.871094 207.191406 181.125 207.996094 181.628906 C 208.8125 182.140625 209.421875 182.875 209.863281 183.875 C 210.300781 184.875 210.523438 186.074219 210.523438 187.445312 C 210.523438 188.925781 210.28125 190.1875 209.804688 191.191406 Z M 210.433594 178.605469 C 208.980469 177.78125 207.222656 177.367188 205.207031 177.367188 C 203.71875 177.367188 202.375 177.601562 201.203125 178.070312 C 200.027344 178.535156 199.015625 179.222656 198.195312 180.105469 C 197.375 180.984375 196.742188 182.066406 196.308594 183.320312 C 195.882812 184.566406 195.664062 185.953125 195.664062 187.445312 C 195.664062 188.902344 195.871094 190.273438 196.28125 191.53125 C 196.695312 192.789062 197.316406 193.886719 198.125 194.785156 C 198.9375 195.6875 199.964844 196.394531 201.175781 196.886719 C 202.378906 197.378906 203.765625 197.628906 205.285156 197.628906 C 206.8125 197.628906 208.191406 197.386719 209.382812 196.90625 C 210.574219 196.425781 211.597656 195.722656 212.417969 194.8125 C 213.234375 193.902344 213.859375 192.816406 214.265625 191.582031 C 214.671875 190.351562 214.878906 188.96875 214.878906 187.472656 C 214.878906 185.441406 214.503906 183.648438 213.757812 182.136719 C 213.007812 180.617188 211.890625 179.429688 210.433594 178.605469 " fill-opacity="1" fill-rule="nonzero"/></svg>