<svg xmlns="http://www.w3.org/2000/svg" xmlns:xlink="http://www.w3.org/1999/xlink" width="500" zoomAndPan="magnify" viewBox="0 0 375 374.999991" height="500" preserveAspectRatio="xMidYMid meet" version="1.0"><defs><clipPath id="c663f693a7"><path d="M 112.5 112.5 L 262.5 112.5 L 262.5 262.5 L 112.5 262.5 Z M 112.5 112.5 " clip-rule="nonzero"/></clipPath></defs><g clip-path="url(#c663f693a7)"><path fill="#4b81d7" d="M 246.679688 112.5 L 128.320312 112.5 C 127.28125 112.5 126.253906 112.601562 125.234375 112.808594 C 124.21875 113.011719 123.226562 113.3125 122.269531 113.710938 C 121.308594 114.105469 120.398438 114.59375 119.535156 115.171875 C 118.671875 115.75 117.875 116.40625 117.140625 117.140625 C 116.40625 117.875 115.75 118.671875 115.171875 119.535156 C 114.59375 120.398438 114.105469 121.308594 113.710938 122.269531 C 113.3125 123.226562 113.011719 124.21875 112.808594 125.234375 C 112.601562 126.253906 112.5 127.28125 112.5 128.320312 L 112.5 246.679688 C 112.5 247.71875 112.601562 248.746094 112.808594 249.765625 C 113.011719 250.78125 113.3125 251.773438 113.710938 252.730469 C 114.105469 253.691406 114.59375 254.601562 115.171875 255.464844 C 115.75 256.328125 116.40625 257.125 117.140625 257.859375 C 117.875 258.59375 118.671875 259.25 119.535156 259.828125 C 120.398438 260.40625 121.308594 260.894531 122.269531 261.289062 C 123.226562 261.6875 124.21875 261.988281 125.234375 262.191406 C 126.253906 262.398438 127.28125 262.5 128.320312 262.5 L 246.679688 262.5 C 247.71875 262.5 248.746094 262.398438 249.765625 262.191406 C 250.78125 261.988281 251.773438 261.6875 252.730469 261.289062 C 253.691406 260.894531 254.601562 260.40625 255.464844 259.828125 C 256.328125 259.25 257.125 258.59375 257.859375 257.859375 C 258.59375 257.125 259.25 256.328125 259.828125 255.464844 C 260.40625 254.601562 260.894531 253.691406 261.289062 252.730469 C 261.6875 251.773438 261.988281 250.78125 262.191406 249.765625 C 262.398438 248.746094 262.5 247.71875 262.5 246.679688 L 262.5 128.320312 C 262.5 127.28125 262.398438 126.253906 262.191406 125.234375 C 261.988281 124.21875 261.6875 123.226562 261.289062 122.269531 C 260.894531 121.308594 260.40625 120.398438 259.828125 119.535156 C 259.25 118.671875 258.59375 117.875 257.859375 117.140625 C 257.125 116.40625 256.328125 115.75 255.464844 115.171875 C 254.601562 114.59375 253.691406 114.105469 252.730469 113.710938 C 251.773438 113.3125 250.78125 113.011719 249.765625 112.808594 C 248.746094 112.601562 247.71875 112.5 246.679688 112.5 Z M 258.984375 246.679688 C 258.984375 247.488281 258.902344 248.289062 258.746094 249.078125 C 258.585938 249.871094 258.355469 250.640625 258.042969 251.386719 C 257.734375 252.132812 257.355469 252.839844 256.90625 253.511719 C 256.457031 254.183594 255.949219 254.804688 255.375 255.375 C 254.804688 255.949219 254.183594 256.457031 253.511719 256.90625 C 252.839844 257.355469 252.132812 257.734375 251.386719 258.042969 C 250.640625 258.355469 249.871094 258.585938 249.078125 258.746094 C 248.289062 258.902344 247.488281 258.984375 246.679688 258.984375 L 128.320312 258.984375 C 127.511719 258.984375 126.710938 258.902344 125.921875 258.746094 C 125.128906 258.585938 124.359375 258.355469 123.613281 258.042969 C 122.867188 257.734375 122.160156 257.355469 121.488281 256.90625 C 120.816406 256.457031 120.195312 255.949219 119.625 255.375 C 119.050781 254.804688 118.542969 254.183594 118.09375 253.511719 C 117.644531 252.839844 117.265625 252.132812 116.957031 251.386719 C 116.644531 250.640625 116.414062 249.871094 116.253906 249.078125 C 116.097656 248.289062 116.015625 247.488281 116.015625 246.679688 L 116.015625 147.65625 L 258.984375 147.65625 Z M 258.984375 144.140625 L 116.015625 144.140625 L 116.015625 128.320312 C 116.015625 127.511719 116.097656 126.710938 116.253906 125.921875 C 116.414062 125.128906 116.644531 124.359375 116.957031 123.613281 C 117.265625 122.867188 117.644531 122.160156 118.09375 121.488281 C 118.542969 120.816406 119.050781 120.195312 119.625 119.625 C 120.195312 119.050781 120.816406 118.542969 121.488281 118.09375 C 122.160156 117.644531 122.867188 117.265625 123.613281 116.957031 C 124.359375 116.644531 125.128906 116.414062 125.921875 116.253906 C 126.710938 116.097656 127.511719 116.015625 128.320312 116.015625 L 246.679688 116.015625 C 247.488281 116.015625 248.289062 116.097656 249.078125 116.253906 C 249.871094 116.414062 250.640625 116.644531 251.386719 116.957031 C 252.132812 117.265625 252.839844 117.644531 253.511719 118.09375 C 254.183594 118.542969 254.804688 119.050781 255.375 119.625 C 255.949219 120.195312 256.457031 120.816406 256.90625 121.488281 C 257.355469 122.160156 257.734375 122.867188 258.042969 123.613281 C 258.355469 124.359375 258.585938 125.128906 258.746094 125.921875 C 258.902344 126.710938 258.984375 127.511719 258.984375 128.320312 Z M 258.984375 144.140625 " fill-opacity="1" fill-rule="nonzero"/></g><path fill="#4b81d7" d="M 130.664062 125.390625 C 130.316406 125.390625 129.976562 125.425781 129.636719 125.492188 C 129.296875 125.558594 128.964844 125.660156 128.644531 125.792969 C 128.324219 125.925781 128.023438 126.085938 127.734375 126.28125 C 127.445312 126.472656 127.179688 126.691406 126.933594 126.933594 C 126.691406 127.179688 126.472656 127.445312 126.28125 127.734375 C 126.085938 128.023438 125.925781 128.324219 125.792969 128.644531 C 125.660156 128.964844 125.558594 129.296875 125.492188 129.636719 C 125.425781 129.976562 125.390625 130.316406 125.390625 130.664062 C 125.390625 131.011719 125.425781 131.351562 125.492188 131.691406 C 125.558594 132.03125 125.660156 132.363281 125.792969 132.683594 C 125.925781 133.003906 126.085938 133.304688 126.28125 133.59375 C 126.472656 133.882812 126.691406 134.148438 126.933594 134.394531 C 127.179688 134.636719 127.445312 134.855469 127.734375 135.046875 C 128.023438 135.242188 128.324219 135.402344 128.644531 135.535156 C 128.964844 135.667969 129.296875 135.769531 129.636719 135.835938 C 129.976562 135.902344 130.316406 135.9375 130.664062 135.9375 C 131.011719 135.9375 131.351562 135.902344 131.691406 135.835938 C 132.03125 135.769531 132.363281 135.667969 132.683594 135.535156 C 133.003906 135.402344 133.304688 135.242188 133.59375 135.046875 C 133.882812 134.855469 134.148438 134.636719 134.394531 134.394531 C 134.636719 134.148438 134.855469 133.882812 135.046875 133.59375 C 135.242188 133.304688 135.402344 133.003906 135.535156 132.683594 C 135.667969 132.363281 135.769531 132.03125 135.835938 131.691406 C 135.902344 131.351562 135.9375 131.011719 135.9375 130.664062 C 135.9375 130.316406 135.902344 129.976562 135.835938 129.636719 C 135.765625 129.296875 135.667969 128.964844 135.535156 128.648438 C 135.402344 128.328125 135.238281 128.023438 135.046875 127.734375 C 134.855469 127.449219 134.636719 127.179688 134.390625 126.9375 C 134.148438 126.691406 133.878906 126.472656 133.59375 126.28125 C 133.304688 126.089844 133 125.925781 132.679688 125.792969 C 132.363281 125.660156 132.03125 125.5625 131.691406 125.492188 C 131.351562 125.425781 131.011719 125.390625 130.664062 125.390625 Z M 130.664062 132.421875 C 130.429688 132.421875 130.207031 132.378906 129.992188 132.289062 C 129.777344 132.199219 129.585938 132.070312 129.421875 131.90625 C 129.257812 131.742188 129.128906 131.550781 129.039062 131.335938 C 128.949219 131.121094 128.90625 130.898438 128.90625 130.664062 C 128.90625 130.429688 128.949219 130.207031 129.039062 129.992188 C 129.128906 129.777344 129.257812 129.585938 129.421875 129.421875 C 129.585938 129.257812 129.777344 129.128906 129.992188 129.039062 C 130.207031 128.949219 130.429688 128.90625 130.664062 128.90625 C 130.898438 128.90625 131.121094 128.949219 131.335938 129.039062 C 131.550781 129.128906 131.742188 129.257812 131.90625 129.421875 C 132.070312 129.585938 132.199219 129.777344 132.289062 129.992188 C 132.378906 130.207031 132.421875 130.429688 132.421875 130.664062 C 132.421875 130.898438 132.375 131.121094 132.289062 131.335938 C 132.199219 131.550781 132.070312 131.742188 131.90625 131.90625 C 131.742188 132.070312 131.550781 132.199219 131.335938 132.289062 C 131.121094 132.375 130.898438 132.421875 130.664062 132.421875 Z M 130.664062 132.421875 " fill-opacity="1" fill-rule="nonzero"/><path fill="#4b81d7" d="M 168.164062 125.390625 C 167.816406 125.390625 167.476562 125.425781 167.136719 125.492188 C 166.796875 125.558594 166.464844 125.660156 166.144531 125.792969 C 165.824219 125.925781 165.523438 126.085938 165.234375 126.28125 C 164.945312 126.472656 164.679688 126.691406 164.433594 126.933594 C 164.191406 127.179688 163.972656 127.445312 163.78125 127.734375 C 163.585938 128.023438 163.425781 128.324219 163.292969 128.644531 C 163.160156 128.964844 163.058594 129.296875 162.992188 129.636719 C 162.925781 129.976562 162.890625 130.316406 162.890625 130.664062 C 162.890625 131.011719 162.925781 131.351562 162.992188 131.691406 C 163.058594 132.03125 163.160156 132.363281 163.292969 132.683594 C 163.425781 133.003906 163.585938 133.304688 163.78125 133.59375 C 163.972656 133.882812 164.191406 134.148438 164.433594 134.394531 C 164.679688 134.636719 164.945312 134.855469 165.234375 135.046875 C 165.523438 135.242188 165.824219 135.402344 166.144531 135.535156 C 166.464844 135.667969 166.796875 135.769531 167.136719 135.835938 C 167.476562 135.902344 167.816406 135.9375 168.164062 135.9375 C 168.511719 135.9375 168.851562 135.902344 169.191406 135.835938 C 169.53125 135.769531 169.863281 135.667969 170.183594 135.535156 C 170.503906 135.402344 170.804688 135.242188 171.09375 135.046875 C 171.382812 134.855469 171.648438 134.636719 171.894531 134.394531 C 172.136719 134.148438 172.355469 133.882812 172.546875 133.59375 C 172.742188 133.304688 172.902344 133.003906 173.035156 132.683594 C 173.167969 132.363281 173.269531 132.03125 173.335938 131.691406 C 173.402344 131.351562 173.4375 131.011719 173.4375 130.664062 C 173.4375 130.316406 173.402344 129.976562 173.335938 129.636719 C 173.265625 129.296875 173.167969 128.964844 173.035156 128.648438 C 172.902344 128.328125 172.738281 128.023438 172.546875 127.734375 C 172.355469 127.449219 172.136719 127.179688 171.890625 126.9375 C 171.648438 126.691406 171.378906 126.472656 171.09375 126.28125 C 170.804688 126.089844 170.5 125.925781 170.179688 125.792969 C 169.863281 125.660156 169.53125 125.5625 169.191406 125.492188 C 168.851562 125.425781 168.511719 125.390625 168.164062 125.390625 Z M 168.164062 132.421875 C 167.929688 132.421875 167.707031 132.378906 167.492188 132.289062 C 167.277344 132.199219 167.085938 132.070312 166.921875 131.90625 C 166.757812 131.742188 166.628906 131.550781 166.539062 131.335938 C 166.449219 131.121094 166.40625 130.898438 166.40625 130.664062 C 166.40625 130.429688 166.449219 130.207031 166.539062 129.992188 C 166.628906 129.777344 166.757812 129.585938 166.921875 129.421875 C 167.085938 129.257812 167.277344 129.128906 167.492188 129.039062 C 167.707031 128.949219 167.929688 128.90625 168.164062 128.90625 C 168.398438 128.90625 168.621094 128.949219 168.835938 129.039062 C 169.050781 129.128906 169.242188 129.257812 169.40625 129.421875 C 169.570312 129.585938 169.699219 129.777344 169.789062 129.992188 C 169.878906 130.207031 169.921875 130.429688 169.921875 130.664062 C 169.921875 130.898438 169.875 131.121094 169.789062 131.335938 C 169.699219 131.550781 169.570312 131.742188 169.40625 131.90625 C 169.242188 132.070312 169.050781 132.199219 168.835938 132.289062 C 168.621094 132.375 168.398438 132.421875 168.164062 132.421875 Z M 168.164062 132.421875 " fill-opacity="1" fill-rule="nonzero"/><path fill="#4b81d7" d="M 149.414062 125.390625 C 149.066406 125.390625 148.726562 125.425781 148.386719 125.492188 C 148.046875 125.558594 147.714844 125.660156 147.394531 125.792969 C 147.074219 125.925781 146.773438 126.085938 146.484375 126.28125 C 146.195312 126.472656 145.929688 126.691406 145.683594 126.933594 C 145.441406 127.179688 145.222656 127.445312 145.03125 127.734375 C 144.835938 128.023438 144.675781 128.324219 144.542969 128.644531 C 144.410156 128.964844 144.308594 129.296875 144.242188 129.636719 C 144.175781 129.976562 144.140625 130.316406 144.140625 130.664062 C 144.140625 131.011719 144.175781 131.351562 144.242188 131.691406 C 144.308594 132.03125 144.410156 132.363281 144.542969 132.683594 C 144.675781 133.003906 144.835938 133.304688 145.03125 133.59375 C 145.222656 133.882812 145.441406 134.148438 145.683594 134.394531 C 145.929688 134.636719 146.195312 134.855469 146.484375 135.046875 C 146.773438 135.242188 147.074219 135.402344 147.394531 135.535156 C 147.714844 135.667969 148.046875 135.769531 148.386719 135.835938 C 148.726562 135.902344 149.066406 135.9375 149.414062 135.9375 C 149.761719 135.9375 150.101562 135.902344 150.441406 135.835938 C 150.78125 135.769531 151.113281 135.667969 151.433594 135.535156 C 151.753906 135.402344 152.054688 135.242188 152.34375 135.046875 C 152.632812 134.855469 152.898438 134.636719 153.144531 134.394531 C 153.386719 134.148438 153.605469 133.882812 153.796875 133.59375 C 153.992188 133.304688 154.152344 133.003906 154.285156 132.683594 C 154.417969 132.363281 154.519531 132.03125 154.585938 131.691406 C 154.652344 131.351562 154.6875 131.011719 154.6875 130.664062 C 154.6875 130.316406 154.652344 129.976562 154.585938 129.636719 C 154.515625 129.296875 154.417969 128.964844 154.285156 128.648438 C 154.152344 128.328125 153.988281 128.023438 153.796875 127.734375 C 153.605469 127.449219 153.386719 127.179688 153.140625 126.9375 C 152.898438 126.691406 152.628906 126.472656 152.34375 126.28125 C 152.054688 126.089844 151.75 125.925781 151.429688 125.792969 C 151.113281 125.660156 150.78125 125.5625 150.441406 125.492188 C 150.101562 125.425781 149.761719 125.390625 149.414062 125.390625 Z M 149.414062 132.421875 C 149.179688 132.421875 148.957031 132.378906 148.742188 132.289062 C 148.527344 132.199219 148.335938 132.070312 148.171875 131.90625 C 148.007812 131.742188 147.878906 131.550781 147.789062 131.335938 C 147.699219 131.121094 147.65625 130.898438 147.65625 130.664062 C 147.65625 130.429688 147.699219 130.207031 147.789062 129.992188 C 147.878906 129.777344 148.007812 129.585938 148.171875 129.421875 C 148.335938 129.257812 148.527344 129.128906 148.742188 129.039062 C 148.957031 128.949219 149.179688 128.90625 149.414062 128.90625 C 149.648438 128.90625 149.871094 128.949219 150.085938 129.039062 C 150.300781 129.128906 150.492188 129.257812 150.65625 129.421875 C 150.820312 129.585938 150.949219 129.777344 151.039062 129.992188 C 151.128906 130.207031 151.171875 130.429688 151.171875 130.664062 C 151.171875 130.898438 151.125 131.121094 151.039062 131.335938 C 150.949219 131.550781 150.820312 131.742188 150.65625 131.90625 C 150.492188 132.070312 150.300781 132.199219 150.085938 132.289062 C 149.871094 132.375 149.648438 132.421875 149.414062 132.421875 Z M 149.414062 132.421875 " fill-opacity="1" fill-rule="nonzero"/><path fill="#4b81d7" d="M 243.164062 125.390625 L 224.414062 125.390625 C 224.066406 125.390625 223.726562 125.425781 223.386719 125.492188 C 223.046875 125.558594 222.714844 125.660156 222.394531 125.792969 C 222.074219 125.925781 221.773438 126.085938 221.484375 126.28125 C 221.195312 126.472656 220.929688 126.691406 220.683594 126.933594 C 220.441406 127.179688 220.222656 127.445312 220.03125 127.734375 C 219.835938 128.023438 219.675781 128.324219 219.542969 128.644531 C 219.410156 128.964844 219.308594 129.296875 219.242188 129.636719 C 219.175781 129.976562 219.140625 130.316406 219.140625 130.664062 C 219.140625 131.011719 219.175781 131.351562 219.242188 131.691406 C 219.308594 132.03125 219.410156 132.363281 219.542969 132.683594 C 219.675781 133.003906 219.835938 133.304688 220.03125 133.59375 C 220.222656 133.882812 220.441406 134.148438 220.683594 134.394531 C 220.929688 134.636719 221.195312 134.855469 221.484375 135.046875 C 221.773438 135.242188 222.074219 135.402344 222.394531 135.535156 C 222.714844 135.667969 223.046875 135.769531 223.386719 135.835938 C 223.726562 135.902344 224.066406 135.9375 224.414062 135.9375 L 243.164062 135.9375 C 243.511719 135.9375 243.851562 135.902344 244.191406 135.835938 C 244.53125 135.769531 244.863281 135.667969 245.183594 135.535156 C 245.503906 135.402344 245.804688 135.242188 246.09375 135.046875 C 246.382812 134.855469 246.648438 134.636719 246.894531 134.394531 C 247.136719 134.148438 247.355469 133.882812 247.546875 133.59375 C 247.742188 133.304688 247.902344 133.003906 248.035156 132.683594 C 248.167969 132.363281 248.269531 132.03125 248.335938 131.691406 C 248.402344 131.351562 248.4375 131.011719 248.4375 130.664062 C 248.4375 130.316406 248.402344 129.976562 248.335938 129.636719 C 248.269531 129.296875 248.167969 128.964844 248.035156 128.644531 C 247.902344 128.324219 247.742188 128.023438 247.546875 127.734375 C 247.355469 127.445312 247.136719 127.179688 246.894531 126.933594 C 246.648438 126.691406 246.382812 126.472656 246.09375 126.28125 C 245.804688 126.085938 245.503906 125.925781 245.183594 125.792969 C 244.863281 125.660156 244.53125 125.558594 244.191406 125.492188 C 243.851562 125.425781 243.511719 125.390625 243.164062 125.390625 Z M 243.164062 132.421875 L 224.414062 132.421875 C 224.179688 132.421875 223.957031 132.378906 223.742188 132.289062 C 223.527344 132.199219 223.335938 132.070312 223.171875 131.90625 C 223.007812 131.742188 222.878906 131.550781 222.789062 131.335938 C 222.699219 131.121094 222.65625 130.898438 222.65625 130.664062 C 222.65625 130.429688 222.699219 130.207031 222.789062 129.992188 C 222.878906 129.777344 223.007812 129.585938 223.171875 129.421875 C 223.335938 129.257812 223.527344 129.128906 223.742188 129.039062 C 223.957031 128.949219 224.179688 128.90625 224.414062 128.90625 L 243.164062 128.90625 C 243.398438 128.90625 243.621094 128.949219 243.835938 129.039062 C 244.050781 129.128906 244.242188 129.257812 244.40625 129.421875 C 244.570312 129.585938 244.699219 129.777344 244.789062 129.992188 C 244.878906 130.207031 244.921875 130.429688 244.921875 130.664062 C 244.921875 130.898438 244.878906 131.121094 244.789062 131.335938 C 244.699219 131.550781 244.570312 131.742188 244.40625 131.90625 C 244.242188 132.070312 244.050781 132.199219 243.835938 132.289062 C 243.621094 132.378906 243.398438 132.421875 243.164062 132.421875 Z M 243.164062 132.421875 " fill-opacity="1" fill-rule="nonzero"/><path fill="#4b81d7" d="M 199.21875 216.648438 C 198.765625 216.648438 198.320312 216.695312 197.875 216.78125 C 197.433594 216.871094 197 217 196.585938 217.175781 C 196.167969 217.347656 195.769531 217.558594 195.394531 217.8125 C 195.019531 218.0625 194.671875 218.347656 194.351562 218.667969 C 194.03125 218.988281 193.746094 219.335938 193.496094 219.710938 C 193.242188 220.085938 193.03125 220.484375 192.859375 220.902344 C 192.683594 221.316406 192.554688 221.75 192.464844 222.191406 C 192.378906 222.636719 192.332031 223.082031 192.332031 223.535156 C 192.332031 223.988281 192.378906 224.433594 192.464844 224.878906 C 192.554688 225.320312 192.683594 225.753906 192.859375 226.167969 C 193.03125 226.585938 193.242188 226.984375 193.496094 227.359375 C 193.746094 227.734375 194.03125 228.082031 194.351562 228.402344 C 194.671875 228.722656 195.019531 229.007812 195.394531 229.257812 C 195.769531 229.511719 196.167969 229.722656 196.585938 229.894531 C 197 230.070312 197.433594 230.199219 197.875 230.289062 C 198.320312 230.375 198.765625 230.417969 199.21875 230.417969 L 225.585938 230.417969 C 226.039062 230.417969 226.484375 230.375 226.929688 230.289062 C 227.371094 230.199219 227.804688 230.070312 228.21875 229.894531 C 228.636719 229.722656 229.035156 229.511719 229.410156 229.257812 C 229.785156 229.007812 230.132812 228.722656 230.453125 228.402344 C 230.773438 228.082031 231.058594 227.734375 231.308594 227.359375 C 231.5625 226.984375 231.773438 226.585938 231.945312 226.167969 C 232.121094 225.753906 232.25 225.320312 232.339844 224.878906 C 232.425781 224.433594 232.46875 223.988281 232.46875 223.535156 C 232.46875 223.082031 232.425781 222.636719 232.339844 222.191406 C 232.25 221.75 232.121094 221.316406 231.945312 220.902344 C 231.773438 220.484375 231.5625 220.085938 231.308594 219.710938 C 231.058594 219.335938 230.773438 218.988281 230.453125 218.667969 C 230.132812 218.347656 229.785156 218.0625 229.410156 217.8125 C 229.035156 217.558594 228.636719 217.347656 228.21875 217.175781 C 227.804688 217 227.371094 216.871094 226.929688 216.78125 C 226.484375 216.695312 226.039062 216.648438 225.585938 216.648438 L 219.285156 216.648438 L 219.285156 186.472656 L 225.585938 186.472656 C 226.039062 186.472656 226.484375 186.429688 226.929688 186.34375 C 227.371094 186.253906 227.804688 186.125 228.21875 185.949219 C 228.636719 185.777344 229.035156 185.566406 229.410156 185.3125 C 229.785156 185.0625 230.132812 184.777344 230.453125 184.457031 C 230.773438 184.136719 231.058594 183.789062 231.308594 183.414062 C 231.5625 183.039062 231.773438 182.640625 231.945312 182.222656 C 232.121094 181.808594 232.25 181.375 232.339844 180.933594 C 232.425781 180.488281 232.46875 180.042969 232.46875 179.589844 C 232.46875 179.136719 232.425781 178.691406 232.339844 178.246094 C 232.25 177.804688 232.121094 177.371094 231.945312 176.957031 C 231.773438 176.539062 231.5625 176.140625 231.308594 175.765625 C 231.058594 175.390625 230.773438 175.042969 230.453125 174.722656 C 230.132812 174.402344 229.785156 174.117188 229.410156 173.867188 C 229.035156 173.613281 228.636719 173.402344 228.21875 173.230469 C 227.804688 173.054688 227.371094 172.925781 226.929688 172.835938 C 226.484375 172.75 226.039062 172.703125 225.585938 172.703125 L 199.21875 172.703125 C 198.765625 172.703125 198.320312 172.75 197.875 172.835938 C 197.433594 172.925781 197 173.054688 196.585938 173.230469 C 196.167969 173.402344 195.769531 173.613281 195.394531 173.867188 C 195.019531 174.117188 194.671875 174.402344 194.351562 174.722656 C 194.03125 175.042969 193.746094 175.390625 193.496094 175.765625 C 193.242188 176.140625 193.03125 176.539062 192.859375 176.957031 C 192.683594 177.371094 192.554688 177.804688 192.464844 178.246094 C 192.378906 178.691406 192.332031 179.136719 192.332031 179.589844 C 192.332031 180.042969 192.378906 180.488281 192.464844 180.933594 C 192.554688 181.375 192.683594 181.808594 192.859375 182.222656 C 193.03125 182.640625 193.242188 183.039062 193.496094 183.414062 C 193.746094 183.789062 194.03125 184.136719 194.351562 184.457031 C 194.671875 184.777344 195.019531 185.0625 195.394531 185.3125 C 195.769531 185.566406 196.167969 185.777344 196.585938 185.949219 C 197 186.125 197.433594 186.253906 197.875 186.34375 C 198.320312 186.429688 198.765625 186.472656 199.21875 186.472656 L 205.515625 186.472656 L 205.515625 216.648438 Z M 207.273438 182.957031 L 199.21875 182.957031 C 198.773438 182.957031 198.34375 182.875 197.929688 182.703125 C 197.515625 182.53125 197.152344 182.289062 196.835938 181.972656 C 196.519531 181.65625 196.277344 181.292969 196.105469 180.878906 C 195.933594 180.464844 195.847656 180.035156 195.847656 179.589844 C 195.847656 179.144531 195.933594 178.714844 196.105469 178.300781 C 196.277344 177.886719 196.519531 177.523438 196.835938 177.207031 C 197.152344 176.890625 197.515625 176.648438 197.929688 176.476562 C 198.34375 176.304688 198.773438 176.21875 199.21875 176.21875 L 225.585938 176.21875 C 226.03125 176.21875 226.460938 176.304688 226.875 176.476562 C 227.289062 176.648438 227.652344 176.890625 227.96875 177.207031 C 228.285156 177.523438 228.527344 177.886719 228.699219 178.300781 C 228.871094 178.714844 228.953125 179.144531 228.953125 179.589844 C 228.953125 180.035156 228.871094 180.464844 228.699219 180.878906 C 228.527344 181.292969 228.285156 181.65625 227.96875 181.972656 C 227.652344 182.289062 227.289062 182.53125 226.875 182.703125 C 226.460938 182.875 226.03125 182.957031 225.585938 182.957031 L 217.527344 182.957031 C 217.296875 182.957031 217.070312 183.003906 216.855469 183.09375 C 216.640625 183.183594 216.449219 183.308594 216.285156 183.472656 C 216.121094 183.636719 215.996094 183.828125 215.90625 184.042969 C 215.816406 184.257812 215.769531 184.484375 215.769531 184.714844 L 215.769531 218.40625 C 215.769531 218.640625 215.816406 218.867188 215.90625 219.082031 C 215.996094 219.296875 216.121094 219.484375 216.285156 219.652344 C 216.449219 219.816406 216.640625 219.941406 216.855469 220.03125 C 217.070312 220.121094 217.296875 220.164062 217.527344 220.164062 L 225.585938 220.164062 C 226.03125 220.164062 226.460938 220.25 226.875 220.421875 C 227.289062 220.59375 227.652344 220.835938 227.96875 221.152344 C 228.285156 221.46875 228.527344 221.832031 228.699219 222.246094 C 228.871094 222.660156 228.953125 223.089844 228.953125 223.535156 C 228.953125 223.980469 228.871094 224.410156 228.699219 224.824219 C 228.527344 225.238281 228.285156 225.601562 227.96875 225.917969 C 227.652344 226.234375 227.289062 226.476562 226.875 226.648438 C 226.460938 226.820312 226.03125 226.902344 225.585938 226.902344 L 199.21875 226.902344 C 198.773438 226.902344 198.34375 226.820312 197.929688 226.648438 C 197.515625 226.476562 197.152344 226.234375 196.835938 225.917969 C 196.519531 225.601562 196.277344 225.238281 196.105469 224.824219 C 195.933594 224.410156 195.847656 223.980469 195.847656 223.535156 C 195.847656 223.089844 195.933594 222.660156 196.105469 222.246094 C 196.277344 221.832031 196.519531 221.46875 196.835938 221.152344 C 197.152344 220.835938 197.515625 220.59375 197.929688 220.421875 C 198.34375 220.25 198.773438 220.164062 199.21875 220.164062 L 207.273438 220.164062 C 207.507812 220.164062 207.734375 220.121094 207.949219 220.03125 C 208.164062 219.941406 208.351562 219.816406 208.519531 219.652344 C 208.683594 219.484375 208.808594 219.296875 208.898438 219.082031 C 208.988281 218.867188 209.03125 218.640625 209.03125 218.40625 L 209.03125 184.714844 C 209.03125 184.484375 208.988281 184.257812 208.898438 184.042969 C 208.808594 183.828125 208.683594 183.636719 208.519531 183.472656 C 208.351562 183.308594 208.164062 183.183594 207.949219 183.09375 C 207.734375 183.003906 207.507812 182.957031 207.273438 182.957031 Z M 207.273438 182.957031 " fill-opacity="1" fill-rule="nonzero"/><path fill="#4b81d7" d="M 162.597656 230.417969 C 163.253906 230.417969 163.910156 230.386719 164.5625 230.320312 C 165.21875 230.257812 165.867188 230.160156 166.511719 230.03125 C 167.15625 229.902344 167.792969 229.742188 168.421875 229.550781 C 169.050781 229.359375 169.667969 229.136719 170.273438 228.886719 C 170.878906 228.632812 171.472656 228.351562 172.054688 228.042969 C 172.632812 227.734375 173.195312 227.394531 173.742188 227.03125 C 174.289062 226.664062 174.816406 226.273438 175.324219 225.859375 C 175.832031 225.441406 176.316406 225 176.78125 224.535156 C 177.246094 224.070312 177.6875 223.585938 178.105469 223.078125 C 178.519531 222.570312 178.910156 222.042969 179.277344 221.496094 C 179.640625 220.949219 179.980469 220.386719 180.289062 219.808594 C 180.597656 219.226562 180.878906 218.632812 181.132812 218.027344 C 181.382812 217.421875 181.605469 216.804688 181.796875 216.175781 C 181.988281 215.546875 182.148438 214.910156 182.277344 214.265625 C 182.40625 213.621094 182.503906 212.972656 182.566406 212.316406 C 182.632812 211.664062 182.664062 211.007812 182.664062 210.351562 L 182.664062 179.589844 C 182.664062 179.136719 182.621094 178.691406 182.535156 178.246094 C 182.445312 177.804688 182.316406 177.371094 182.140625 176.957031 C 181.96875 176.539062 181.757812 176.140625 181.503906 175.765625 C 181.253906 175.390625 180.96875 175.042969 180.648438 174.722656 C 180.328125 174.402344 179.980469 174.117188 179.605469 173.867188 C 179.230469 173.613281 178.832031 173.402344 178.414062 173.230469 C 178 173.054688 177.566406 172.925781 177.125 172.835938 C 176.679688 172.75 176.234375 172.703125 175.78125 172.703125 C 175.328125 172.703125 174.882812 172.75 174.4375 172.835938 C 173.996094 172.925781 173.5625 173.054688 173.148438 173.230469 C 172.730469 173.402344 172.332031 173.613281 171.957031 173.867188 C 171.582031 174.117188 171.234375 174.402344 170.914062 174.722656 C 170.59375 175.042969 170.308594 175.390625 170.058594 175.765625 C 169.804688 176.140625 169.59375 176.539062 169.421875 176.957031 C 169.246094 177.371094 169.117188 177.804688 169.027344 178.246094 C 168.941406 178.691406 168.894531 179.136719 168.894531 179.589844 L 168.894531 210.351562 C 168.894531 210.765625 168.855469 211.175781 168.777344 211.582031 C 168.695312 211.984375 168.574219 212.378906 168.417969 212.761719 C 168.257812 213.144531 168.066406 213.507812 167.835938 213.851562 C 167.605469 214.195312 167.34375 214.511719 167.050781 214.804688 C 166.757812 215.097656 166.441406 215.359375 166.097656 215.589844 C 165.753906 215.820312 165.390625 216.011719 165.007812 216.171875 C 164.625 216.328125 164.230469 216.449219 163.828125 216.53125 C 163.421875 216.609375 163.011719 216.648438 162.597656 216.648438 C 162.183594 216.648438 161.773438 216.609375 161.367188 216.53125 C 160.964844 216.449219 160.570312 216.328125 160.1875 216.171875 C 159.804688 216.011719 159.441406 215.820312 159.097656 215.589844 C 158.753906 215.359375 158.4375 215.097656 158.144531 214.804688 C 157.851562 214.511719 157.589844 214.195312 157.359375 213.851562 C 157.128906 213.507812 156.9375 213.144531 156.777344 212.761719 C 156.621094 212.378906 156.5 211.984375 156.417969 211.582031 C 156.339844 211.175781 156.296875 210.765625 156.296875 210.351562 L 156.296875 179.589844 C 156.296875 179.136719 156.253906 178.691406 156.167969 178.246094 C 156.078125 177.804688 155.949219 177.371094 155.773438 176.957031 C 155.601562 176.539062 155.390625 176.140625 155.136719 175.765625 C 154.886719 175.390625 154.601562 175.042969 154.28125 174.722656 C 153.960938 174.402344 153.613281 174.117188 153.238281 173.867188 C 152.863281 173.613281 152.464844 173.402344 152.046875 173.230469 C 151.632812 173.054688 151.199219 172.925781 150.757812 172.835938 C 150.3125 172.75 149.867188 172.703125 149.414062 172.703125 C 148.960938 172.703125 148.515625 172.75 148.070312 172.835938 C 147.628906 172.925781 147.195312 173.054688 146.78125 173.230469 C 146.363281 173.402344 145.964844 173.613281 145.589844 173.867188 C 145.214844 174.117188 144.867188 174.402344 144.546875 174.722656 C 144.226562 175.042969 143.941406 175.390625 143.691406 175.765625 C 143.4375 176.140625 143.226562 176.539062 143.054688 176.957031 C 142.878906 177.371094 142.75 177.804688 142.660156 178.246094 C 142.574219 178.691406 142.527344 179.136719 142.527344 179.589844 L 142.527344 210.351562 C 142.53125 211.007812 142.5625 211.664062 142.628906 212.316406 C 142.691406 212.972656 142.789062 213.621094 142.917969 214.265625 C 143.046875 214.910156 143.207031 215.546875 143.398438 216.175781 C 143.589844 216.804688 143.8125 217.421875 144.0625 218.027344 C 144.316406 218.632812 144.59375 219.226562 144.90625 219.808594 C 145.214844 220.386719 145.554688 220.949219 145.917969 221.496094 C 146.285156 222.042969 146.675781 222.570312 147.089844 223.078125 C 147.507812 223.585938 147.949219 224.070312 148.414062 224.535156 C 148.878906 225 149.363281 225.441406 149.871094 225.859375 C 150.378906 226.273438 150.90625 226.664062 151.453125 227.03125 C 152 227.394531 152.5625 227.734375 153.140625 228.042969 C 153.722656 228.355469 154.316406 228.632812 154.921875 228.886719 C 155.527344 229.136719 156.144531 229.359375 156.773438 229.550781 C 157.402344 229.742188 158.039062 229.902344 158.683594 230.03125 C 159.328125 230.160156 159.976562 230.257812 160.632812 230.320312 C 161.285156 230.386719 161.941406 230.417969 162.597656 230.417969 Z M 146.042969 179.589844 C 146.042969 179.144531 146.128906 178.714844 146.300781 178.300781 C 146.472656 177.886719 146.714844 177.523438 147.03125 177.207031 C 147.347656 176.890625 147.710938 176.648438 148.125 176.476562 C 148.539062 176.304688 148.96875 176.21875 149.414062 176.21875 C 149.859375 176.21875 150.289062 176.304688 150.703125 176.476562 C 151.117188 176.648438 151.480469 176.890625 151.796875 177.207031 C 152.113281 177.523438 152.355469 177.886719 152.527344 178.300781 C 152.699219 178.714844 152.78125 179.144531 152.78125 179.589844 L 152.78125 210.351562 C 152.78125 210.996094 152.847656 211.632812 152.972656 212.265625 C 153.097656 212.898438 153.285156 213.511719 153.53125 214.105469 C 153.777344 214.703125 154.078125 215.269531 154.4375 215.804688 C 154.796875 216.339844 155.203125 216.835938 155.65625 217.292969 C 156.113281 217.746094 156.609375 218.152344 157.144531 218.511719 C 157.679688 218.871094 158.246094 219.171875 158.84375 219.417969 C 159.4375 219.664062 160.050781 219.851562 160.683594 219.976562 C 161.316406 220.101562 161.953125 220.164062 162.597656 220.164062 C 163.242188 220.164062 163.878906 220.101562 164.511719 219.976562 C 165.144531 219.851562 165.757812 219.664062 166.351562 219.417969 C 166.949219 219.171875 167.515625 218.871094 168.050781 218.511719 C 168.585938 218.152344 169.082031 217.746094 169.539062 217.292969 C 169.992188 216.835938 170.398438 216.339844 170.757812 215.804688 C 171.117188 215.269531 171.417969 214.703125 171.664062 214.105469 C 171.910156 213.511719 172.097656 212.898438 172.222656 212.265625 C 172.347656 211.632812 172.410156 210.996094 172.410156 210.351562 L 172.410156 179.589844 C 172.410156 179.144531 172.496094 178.714844 172.667969 178.300781 C 172.839844 177.886719 173.082031 177.523438 173.398438 177.207031 C 173.714844 176.890625 174.078125 176.648438 174.492188 176.476562 C 174.90625 176.304688 175.335938 176.21875 175.78125 176.21875 C 176.226562 176.21875 176.65625 176.304688 177.070312 176.476562 C 177.484375 176.648438 177.847656 176.890625 178.164062 177.207031 C 178.480469 177.523438 178.722656 177.886719 178.894531 178.300781 C 179.066406 178.714844 179.148438 179.144531 179.148438 179.589844 L 179.148438 210.351562 C 179.148438 210.894531 179.125 211.433594 179.070312 211.972656 C 179.015625 212.511719 178.9375 213.050781 178.832031 213.582031 C 178.726562 214.113281 178.59375 214.636719 178.4375 215.15625 C 178.28125 215.675781 178.097656 216.183594 177.890625 216.6875 C 177.683594 217.1875 177.453125 217.675781 177.195312 218.15625 C 176.941406 218.632812 176.660156 219.097656 176.359375 219.546875 C 176.058594 220 175.738281 220.433594 175.394531 220.851562 C 175.050781 221.273438 174.683594 221.671875 174.300781 222.054688 C 173.917969 222.4375 173.519531 222.804688 173.097656 223.148438 C 172.679688 223.492188 172.246094 223.8125 171.792969 224.113281 C 171.34375 224.414062 170.878906 224.695312 170.402344 224.949219 C 169.921875 225.207031 169.433594 225.4375 168.933594 225.644531 C 168.429688 225.851562 167.921875 226.035156 167.402344 226.191406 C 166.882812 226.347656 166.359375 226.480469 165.828125 226.585938 C 165.296875 226.691406 164.757812 226.769531 164.21875 226.824219 C 163.679688 226.878906 163.140625 226.902344 162.597656 226.902344 C 162.054688 226.902344 161.515625 226.878906 160.976562 226.824219 C 160.4375 226.769531 159.898438 226.691406 159.367188 226.585938 C 158.835938 226.480469 158.3125 226.347656 157.792969 226.191406 C 157.273438 226.035156 156.765625 225.851562 156.261719 225.644531 C 155.761719 225.4375 155.273438 225.207031 154.792969 224.949219 C 154.316406 224.695312 153.851562 224.414062 153.402344 224.113281 C 152.949219 223.8125 152.515625 223.492188 152.097656 223.148438 C 151.675781 222.804688 151.277344 222.4375 150.894531 222.054688 C 150.511719 221.671875 150.144531 221.273438 149.800781 220.851562 C 149.457031 220.433594 149.136719 220 148.835938 219.546875 C 148.535156 219.097656 148.253906 218.632812 148 218.15625 C 147.742188 217.675781 147.511719 217.1875 147.304688 216.6875 C 147.097656 216.183594 146.914062 215.675781 146.757812 215.15625 C 146.601562 214.636719 146.46875 214.113281 146.363281 213.582031 C 146.257812 213.050781 146.179688 212.511719 146.125 211.972656 C 146.070312 211.433594 146.042969 210.894531 146.042969 210.351562 Z M 146.042969 179.589844 " fill-opacity="1" fill-rule="nonzero"/></svg>