<svg xmlns="http://www.w3.org/2000/svg" xmlns:xlink="http://www.w3.org/1999/xlink" width="500" zoomAndPan="magnify" viewBox="0 0 375 374.999991" height="500" preserveAspectRatio="xMidYMid meet" version="1.0"><defs><clipPath id="1b3acad4c7"><path d="M 41.871094 37.5 L 332.871094 37.5 L 332.871094 329 L 41.871094 329 Z M 41.871094 37.5 " clip-rule="nonzero"/></clipPath><clipPath id="8d64e69af7"><path d="M 102 247 L 273 247 L 273 357 L 102 357 Z M 102 247 " clip-rule="nonzero"/></clipPath></defs><g clip-path="url(#1b3acad4c7)"><path fill="#78d1cc" d="M 332.882812 183.03125 C 332.882812 263.382812 267.757812 328.515625 187.414062 328.515625 C 107.074219 328.515625 41.949219 263.382812 41.949219 183.03125 C 41.945312 102.679688 107.074219 37.546875 187.414062 37.546875 C 267.757812 37.542969 332.882812 102.679688 332.882812 183.03125 " fill-opacity="1" fill-rule="nonzero"/></g><path fill="#ed451d" d="M 188.269531 307.847656 C 179.402344 307.847656 170.621094 306.1875 162.3125 303.132812 C 155.875 300.761719 149.726562 295.636719 142.707031 296.019531 C 129.8125 296.722656 113.128906 297.84375 108.5 281.910156 C 103.90625 266.105469 121.1875 255.917969 122.511719 241.179688 C 123.746094 227.550781 102.683594 224.078125 108.238281 209.191406 C 109.453125 205.9375 112.195312 203.019531 112.65625 199.464844 C 113.1875 195.519531 111.5 192.117188 110.890625 188.347656 C 108.871094 175.777344 118.917969 158.277344 129.042969 151.347656 C 142.546875 142.105469 159.25 139.945312 174.949219 136.933594 C 195.546875 132.96875 217.925781 127.023438 237.351562 135.546875 C 248.222656 140.324219 261.800781 144.9375 265.3125 157.203125 C 269.027344 170.199219 273.910156 183.417969 266.40625 196.121094 C 262.183594 203.28125 254.847656 206.328125 257.625 215.3125 C 259.679688 221.972656 266.664062 225.902344 268.359375 232.8125 C 272.203125 248.457031 249.121094 252.265625 255.511719 266.984375 C 258.8125 274.574219 263.488281 278.980469 260.515625 287.957031 C 258.355469 294.480469 252.789062 297.695312 246.148438 298.121094 C 241 298.445312 236.117188 296.648438 230.902344 297.539062 C 227.289062 298.15625 224.390625 299.835938 221.027344 301.207031 C 210.785156 305.382812 199.335938 307.847656 188.269531 307.847656 " fill-opacity="1" fill-rule="nonzero"/><g clip-path="url(#8d64e69af7)"><path fill="#ffffff" d="M 272.289062 328.914062 C 265.089844 334.285156 257.367188 338.992188 249.207031 342.929688 C 247.964844 343.53125 246.722656 344.105469 245.464844 344.671875 C 227.746094 352.617188 208.097656 357.035156 187.414062 357.035156 C 166.734375 357.035156 147.097656 352.617188 129.378906 344.671875 C 128.109375 344.105469 126.859375 343.53125 125.625 342.929688 C 117.464844 338.980469 109.742188 334.285156 102.554688 328.914062 C 103.8125 300.789062 118.753906 276.222656 140.882812 261.714844 C 154.246094 252.941406 170.234375 247.847656 187.414062 247.847656 C 190.035156 247.847656 192.628906 247.96875 195.175781 248.199219 C 209.414062 249.488281 222.621094 254.277344 233.949219 261.714844 C 244.140625 268.394531 252.800781 277.203125 259.300781 287.503906 C 266.933594 299.59375 271.59375 313.738281 272.289062 328.914062 " fill-opacity="1" fill-rule="nonzero"/></g><path fill="#fbd5c0" d="M 233.949219 261.714844 C 232.652344 271.523438 228.328125 280.390625 221.925781 287.320312 C 213.351562 296.609375 201.070312 302.4375 187.414062 302.4375 C 165.546875 302.4375 147.171875 287.476562 141.957031 267.226562 C 141.492188 265.429688 141.132812 263.585938 140.882812 261.714844 C 154.246094 252.941406 170.234375 247.847656 187.414062 247.847656 C 190.035156 247.847656 192.628906 247.957031 195.1875 248.199219 C 195.632812 248.238281 196.074219 248.28125 196.511719 248.328125 C 196.789062 248.355469 197.066406 248.386719 197.335938 248.421875 C 197.640625 248.449219 197.945312 248.496094 198.242188 248.53125 C 198.429688 248.550781 198.625 248.578125 198.808594 248.605469 C 199.078125 248.636719 199.355469 248.679688 199.632812 248.71875 C 199.847656 248.746094 200.058594 248.78125 200.28125 248.8125 C 200.464844 248.839844 200.652344 248.867188 200.835938 248.902344 C 201.152344 248.949219 201.457031 249.003906 201.773438 249.050781 C 203.125 249.285156 204.46875 249.542969 205.792969 249.839844 L 206.683594 250.035156 C 206.847656 250.078125 207.023438 250.117188 207.191406 250.164062 C 207.507812 250.238281 207.832031 250.3125 208.136719 250.394531 C 208.191406 250.402344 208.238281 250.414062 208.273438 250.421875 C 208.671875 250.523438 209.070312 250.625 209.460938 250.738281 C 209.886719 250.839844 210.304688 250.960938 210.710938 251.082031 C 211.183594 251.210938 211.644531 251.347656 212.117188 251.488281 C 212.480469 251.597656 212.839844 251.710938 213.203125 251.832031 C 213.433594 251.90625 213.675781 251.980469 213.898438 252.054688 C 214.277344 252.171875 214.65625 252.304688 215.027344 252.433594 C 215.492188 252.589844 215.945312 252.746094 216.398438 252.914062 C 216.433594 252.933594 216.460938 252.941406 216.492188 252.953125 C 216.964844 253.117188 217.425781 253.292969 217.890625 253.46875 C 218.230469 253.609375 218.582031 253.738281 218.9375 253.886719 C 219.851562 254.25 220.75 254.628906 221.640625 255.015625 L 222.808594 255.546875 C 223.160156 255.703125 223.511719 255.871094 223.863281 256.035156 C 224.1875 256.195312 224.503906 256.34375 224.816406 256.5 C 225.113281 256.636719 225.402344 256.785156 225.6875 256.933594 C 225.875 257.027344 226.066406 257.121094 226.253906 257.222656 C 227.023438 257.609375 227.773438 258.019531 228.511719 258.425781 C 228.78125 258.574219 229.058594 258.730469 229.320312 258.878906 C 229.496094 258.980469 229.660156 259.074219 229.828125 259.167969 L 230.457031 259.539062 L 231.097656 259.925781 L 231.515625 260.175781 C 231.914062 260.410156 232.300781 260.648438 232.691406 260.898438 C 233.117188 261.167969 233.535156 261.4375 233.949219 261.714844 " fill-opacity="1" fill-rule="nonzero"/><path fill="#fbd5c0" d="M 203.773438 228.8125 L 203.773438 260.992188 C 203.773438 269.136719 197.113281 275.804688 188.980469 275.804688 L 185.851562 275.804688 C 177.71875 275.804688 171.066406 269.136719 171.066406 260.992188 L 171.066406 228.8125 C 171.066406 220.667969 177.71875 214.007812 185.851562 214.007812 L 188.980469 214.007812 C 197.113281 214.007812 203.773438 220.667969 203.773438 228.8125 " fill-opacity="1" fill-rule="nonzero"/><path fill="#f8a29e" d="M 203.773438 228.8125 L 203.773438 245.835938 C 198.910156 248.542969 193.75 250.117188 188.519531 250.117188 C 182.339844 250.117188 176.449219 248.394531 171.066406 245.402344 L 171.066406 228.8125 C 171.066406 220.667969 177.71875 214.007812 185.851562 214.007812 L 188.980469 214.007812 C 197.113281 214.007812 203.773438 220.667969 203.773438 228.8125 " fill-opacity="1" fill-rule="nonzero"/><path fill="#fbd5c0" d="M 237.851562 208.855469 C 237.851562 208.855469 247.539062 205.558594 253.726562 194.757812 C 260.449219 183.03125 256.226562 175.722656 254.894531 174.136719 C 251.253906 169.8125 245.628906 172.589844 244.703125 174.136719 C 243.777344 175.683594 230.367188 200.046875 237.851562 208.855469 " fill-opacity="1" fill-rule="nonzero"/><path fill="#f8a29e" d="M 247.34375 177.980469 C 247.34375 177.980469 253.496094 178.769531 251.335938 187.410156 C 249.167969 196.0625 243.492188 199.484375 235.765625 203.902344 C 228.050781 208.320312 239.628906 179.742188 247.34375 177.980469 " fill-opacity="1" fill-rule="nonzero"/><path fill="#fbd5c0" d="M 139.5 208.855469 C 139.5 208.855469 129.8125 205.558594 123.625 194.757812 C 116.890625 183.03125 121.113281 175.722656 122.449219 174.136719 C 126.089844 169.8125 131.710938 172.589844 132.636719 174.136719 C 133.5625 175.683594 146.984375 200.046875 139.5 208.855469 " fill-opacity="1" fill-rule="nonzero"/><path fill="#f8a29e" d="M 129.996094 177.980469 C 129.996094 177.980469 123.855469 178.769531 126.015625 187.410156 C 128.171875 196.0625 133.859375 199.484375 141.574219 203.902344 C 149.300781 208.320312 137.722656 179.742188 129.996094 177.980469 " fill-opacity="1" fill-rule="nonzero"/><path fill="#fbd5c0" d="M 247.34375 172.277344 C 247.34375 136.769531 221.140625 107.976562 188.804688 107.976562 C 156.480469 107.976562 130.257812 136.769531 130.257812 172.277344 C 130.257812 207.78125 156.480469 244.902344 188.804688 244.902344 C 219.1875 244.902344 247.34375 207.484375 247.34375 172.277344 " fill-opacity="1" fill-rule="nonzero"/><path fill="#ed451d" d="M 262.460938 160.195312 C 265.183594 153.757812 263.339844 145.929688 261.996094 139.613281 C 259.152344 126.199219 250.371094 113.460938 235.949219 110.542969 C 229.070312 109.152344 222.207031 107.734375 216.054688 103.464844 C 210.441406 99.566406 205.117188 94.332031 198.800781 91.65625 C 186.441406 86.4375 170.308594 90.042969 167.058594 104.613281 C 166.917969 105.226562 166.789062 105.875 166.675781 106.550781 L 166.492188 104.511719 C 165.453125 112.515625 165.480469 118.007812 170.308594 124.863281 C 175.273438 131.914062 181.847656 133.277344 189.648438 134.128906 C 206.328125 135.953125 209.980469 146.691406 214.296875 160.558594 C 217.054688 169.429688 223.796875 179.289062 234.109375 177.257812 C 238.941406 176.304688 243.183594 173.5 247.890625 172.488281 C 253.085938 171.367188 254.882812 174.636719 258.5625 177.648438 C 258.53125 174.617188 257.003906 170.847656 257.820312 168.078125 C 258.625 165.308594 261.332031 162.871094 262.460938 160.195312 " fill-opacity="1" fill-rule="nonzero"/><path fill="#ed451d" d="M 173.910156 115.601562 C 172.910156 112.738281 170.917969 109.617188 168.824219 107.300781 C 166.101562 104.300781 167.058594 104.613281 163.714844 103.585938 C 157.730469 101.34375 153.300781 100.027344 147.03125 103.699219 C 141.835938 106.746094 139.085938 111.773438 137.675781 117.378906 C 135.859375 124.597656 134.074219 128.097656 128.050781 133.230469 C 123.273438 137.296875 119.976562 142.222656 117.734375 148.050781 C 115.132812 154.8125 113.417969 162.863281 113.695312 170.285156 C 113.878906 175.230469 115.132812 185.996094 118.699219 189.226562 C 119.53125 181.308594 121.875 176.917969 129.792969 174.8125 C 136.554688 173.027344 142.355469 172.109375 144.269531 164.273438 C 146.003906 157.214844 146.4375 151.332031 153.0625 146.308594 C 158.527344 142.167969 166.148438 140.722656 170.761719 135.574219 C 175.550781 130.199219 176.226562 122.1875 173.910156 115.601562 " fill-opacity="1" fill-rule="nonzero"/></svg>