<svg xmlns="http://www.w3.org/2000/svg" xmlns:xlink="http://www.w3.org/1999/xlink" width="500" zoomAndPan="magnify" viewBox="0 0 375 374.999991" height="500" preserveAspectRatio="xMidYMid meet" version="1.0"><defs><clipPath id="ffa599db88"><path d="M 34.894531 34.894531 L 340.144531 34.894531 L 340.144531 340.144531 L 34.894531 340.144531 Z M 34.894531 34.894531 " clip-rule="nonzero"/></clipPath><clipPath id="5746aaf6d8"><path d="M 77 221 L 298 221 L 298 340.144531 L 77 340.144531 Z M 77 221 " clip-rule="nonzero"/></clipPath></defs><g clip-path="url(#ffa599db88)"><path fill="#ff9561" d="M 340.167969 187.53125 C 340.167969 190.03125 340.109375 192.527344 339.984375 195.023438 C 339.863281 197.515625 339.679688 200.007812 339.433594 202.492188 C 339.191406 204.980469 338.882812 207.457031 338.515625 209.929688 C 338.152344 212.398438 337.722656 214.859375 337.238281 217.3125 C 336.75 219.761719 336.203125 222.199219 335.59375 224.621094 C 334.988281 227.042969 334.320312 229.449219 333.597656 231.839844 C 332.871094 234.230469 332.089844 236.601562 331.246094 238.953125 C 330.40625 241.304688 329.507812 243.636719 328.550781 245.945312 C 327.59375 248.253906 326.582031 250.535156 325.515625 252.792969 C 324.445312 255.050781 323.324219 257.28125 322.144531 259.484375 C 320.96875 261.6875 319.738281 263.859375 318.453125 266.003906 C 317.167969 268.144531 315.832031 270.257812 314.445312 272.332031 C 313.058594 274.410156 311.621094 276.453125 310.132812 278.457031 C 308.644531 280.464844 307.105469 282.433594 305.523438 284.363281 C 303.9375 286.296875 302.304688 288.1875 300.628906 290.039062 C 298.953125 291.886719 297.230469 293.695312 295.464844 295.464844 C 293.695312 297.230469 291.886719 298.953125 290.039062 300.628906 C 288.1875 302.304688 286.296875 303.9375 284.363281 305.523438 C 282.433594 307.105469 280.464844 308.644531 278.457031 310.132812 C 276.453125 311.621094 274.410156 313.058594 272.332031 314.445312 C 270.257812 315.832031 268.144531 317.167969 266.003906 318.453125 C 263.859375 319.738281 261.6875 320.96875 259.484375 322.144531 C 257.28125 323.324219 255.050781 324.445312 252.792969 325.515625 C 250.535156 326.582031 248.253906 327.59375 245.945312 328.550781 C 243.636719 329.507812 241.304688 330.40625 238.953125 331.246094 C 236.601562 332.089844 234.230469 332.871094 231.839844 333.597656 C 229.449219 334.320312 227.042969 334.988281 224.621094 335.59375 C 222.199219 336.203125 219.761719 336.75 217.3125 337.238281 C 214.859375 337.722656 212.398438 338.152344 209.929688 338.515625 C 207.457031 338.882812 204.980469 339.191406 202.492188 339.433594 C 200.007812 339.679688 197.515625 339.863281 195.023438 339.984375 C 192.527344 340.109375 190.03125 340.167969 187.53125 340.167969 C 185.035156 340.167969 182.539062 340.109375 180.042969 339.984375 C 177.546875 339.863281 175.058594 339.679688 172.570312 339.433594 C 170.085938 339.191406 167.605469 338.882812 165.136719 338.515625 C 162.664062 338.152344 160.203125 337.722656 157.753906 337.238281 C 155.304688 336.75 152.867188 336.203125 150.445312 335.59375 C 148.023438 334.988281 145.613281 334.320312 143.226562 333.597656 C 140.835938 332.871094 138.464844 332.089844 136.109375 331.246094 C 133.757812 330.40625 131.429688 329.507812 129.121094 328.550781 C 126.8125 327.59375 124.53125 326.582031 122.273438 325.515625 C 120.015625 324.445312 117.785156 323.324219 115.582031 322.144531 C 113.378906 320.96875 111.203125 319.738281 109.0625 318.453125 C 106.917969 317.167969 104.808594 315.832031 102.730469 314.445312 C 100.65625 313.058594 98.613281 311.621094 96.605469 310.132812 C 94.601562 308.644531 92.632812 307.105469 90.699219 305.523438 C 88.769531 303.9375 86.878906 302.304688 85.027344 300.628906 C 83.175781 298.953125 81.367188 297.230469 79.601562 295.464844 C 77.835938 293.695312 76.113281 291.886719 74.4375 290.039062 C 72.757812 288.1875 71.128906 286.296875 69.542969 284.363281 C 67.957031 282.433594 66.421875 280.464844 64.933594 278.457031 C 63.445312 276.453125 62.007812 274.410156 60.621094 272.332031 C 59.230469 270.257812 57.894531 268.144531 56.613281 266.003906 C 55.328125 263.859375 54.097656 261.6875 52.917969 259.484375 C 51.742188 257.28125 50.617188 255.050781 49.550781 252.792969 C 48.484375 250.535156 47.472656 248.253906 46.515625 245.945312 C 45.558594 243.636719 44.660156 241.304688 43.820312 238.953125 C 42.976562 236.601562 42.195312 234.230469 41.46875 231.839844 C 40.742188 229.449219 40.078125 227.042969 39.46875 224.621094 C 38.863281 222.199219 38.316406 219.761719 37.828125 217.3125 C 37.339844 214.859375 36.914062 212.398438 36.546875 209.929688 C 36.183594 207.457031 35.875 204.980469 35.632812 202.492188 C 35.386719 200.007812 35.203125 197.515625 35.078125 195.023438 C 34.957031 192.527344 34.894531 190.03125 34.894531 187.53125 C 34.894531 185.035156 34.957031 182.539062 35.078125 180.042969 C 35.203125 177.546875 35.386719 175.058594 35.632812 172.570312 C 35.875 170.085938 36.183594 167.605469 36.546875 165.136719 C 36.914062 162.664062 37.339844 160.203125 37.828125 157.753906 C 38.316406 155.304688 38.863281 152.867188 39.46875 150.445312 C 40.078125 148.023438 40.742188 145.613281 41.46875 143.226562 C 42.195312 140.835938 42.976562 138.464844 43.820312 136.109375 C 44.660156 133.757812 45.558594 131.429688 46.515625 129.121094 C 47.472656 126.8125 48.484375 124.53125 49.550781 122.273438 C 50.617188 120.015625 51.742188 117.785156 52.917969 115.582031 C 54.097656 113.378906 55.328125 111.203125 56.613281 109.0625 C 57.894531 106.917969 59.230469 104.808594 60.621094 102.730469 C 62.007812 100.65625 63.445312 98.613281 64.933594 96.605469 C 66.421875 94.601562 67.957031 92.632812 69.542969 90.699219 C 71.128906 88.769531 72.757812 86.878906 74.4375 85.027344 C 76.113281 83.175781 77.835938 81.367188 79.601562 79.601562 C 81.367188 77.835938 83.175781 76.113281 85.027344 74.4375 C 86.878906 72.757812 88.769531 71.128906 90.699219 69.542969 C 92.632812 67.957031 94.601562 66.421875 96.605469 64.933594 C 98.613281 63.445312 100.65625 62.007812 102.730469 60.621094 C 104.808594 59.230469 106.917969 57.894531 109.0625 56.613281 C 111.203125 55.328125 113.378906 54.097656 115.582031 52.917969 C 117.785156 51.742188 120.015625 50.617188 122.273438 49.550781 C 124.53125 48.484375 126.8125 47.472656 129.121094 46.515625 C 131.429688 45.558594 133.757812 44.660156 136.109375 43.820312 C 138.464844 42.976562 140.835938 42.195312 143.226562 41.46875 C 145.613281 40.742188 148.023438 40.078125 150.445312 39.46875 C 152.867188 38.863281 155.304688 38.316406 157.753906 37.828125 C 160.203125 37.339844 162.664062 36.914062 165.136719 36.546875 C 167.605469 36.183594 170.085938 35.875 172.570312 35.632812 C 175.058594 35.386719 177.546875 35.203125 180.042969 35.078125 C 182.539062 34.957031 185.035156 34.894531 187.53125 34.894531 C 190.03125 34.894531 192.527344 34.957031 195.023438 35.078125 C 197.515625 35.203125 200.007812 35.386719 202.492188 35.632812 C 204.980469 35.875 207.457031 36.183594 209.929688 36.546875 C 212.398438 36.914062 214.859375 37.339844 217.3125 37.828125 C 219.761719 38.316406 222.199219 38.863281 224.621094 39.46875 C 227.042969 40.078125 229.449219 40.742188 231.839844 41.46875 C 234.230469 42.195312 236.601562 42.976562 238.953125 43.820312 C 241.304688 44.660156 243.636719 45.558594 245.945312 46.515625 C 248.253906 47.472656 250.535156 48.484375 252.792969 49.550781 C 255.050781 50.617188 257.28125 51.742188 259.484375 52.917969 C 261.6875 54.097656 263.859375 55.328125 266.003906 56.613281 C 268.144531 57.894531 270.257812 59.230469 272.332031 60.621094 C 274.410156 62.007812 276.453125 63.445312 278.457031 64.933594 C 280.464844 66.421875 282.433594 67.957031 284.363281 69.542969 C 286.296875 71.128906 288.1875 72.757812 290.039062 74.4375 C 291.886719 76.113281 293.695312 77.835938 295.464844 79.601562 C 297.230469 81.367188 298.953125 83.175781 300.628906 85.027344 C 302.304688 86.878906 303.9375 88.769531 305.523438 90.699219 C 307.105469 92.632812 308.644531 94.601562 310.132812 96.605469 C 311.621094 98.613281 313.058594 100.65625 314.445312 102.730469 C 315.832031 104.808594 317.167969 106.917969 318.453125 109.0625 C 319.738281 111.203125 320.96875 113.378906 322.144531 115.582031 C 323.324219 117.785156 324.445312 120.015625 325.515625 122.273438 C 326.582031 124.53125 327.59375 126.8125 328.550781 129.121094 C 329.507812 131.429688 330.40625 133.757812 331.246094 136.109375 C 332.089844 138.464844 332.871094 140.835938 333.597656 143.226562 C 334.320312 145.613281 334.988281 148.023438 335.59375 150.445312 C 336.203125 152.867188 336.75 155.304688 337.238281 157.753906 C 337.722656 160.203125 338.152344 162.664062 338.515625 165.136719 C 338.882812 167.605469 339.191406 170.085938 339.433594 172.570312 C 339.679688 175.058594 339.863281 177.546875 339.984375 180.042969 C 340.109375 182.539062 340.167969 185.035156 340.167969 187.53125 Z M 340.167969 187.53125 " fill-opacity="1" fill-rule="nonzero"/></g><path fill="#002c5c" d="M 226.582031 102 C 218.835938 72.269531 130.511719 60.5 118.757812 131.335938 C 107 202.171875 65.417969 261.25 159.191406 275.589844 C 252.964844 289.929688 273.039062 255.230469 267.300781 209.632812 C 261.566406 164.039062 250.957031 99.324219 226.582031 102 Z M 226.582031 102 " fill-opacity="1" fill-rule="nonzero"/><g clip-path="url(#5746aaf6d8)"><path fill="#00669b" d="M 297.113281 293.878906 C 295.339844 295.707031 293.523438 297.488281 291.660156 299.222656 C 289.796875 300.960938 287.890625 302.648438 285.945312 304.289062 C 283.996094 305.929688 282.007812 307.523438 279.980469 309.0625 C 277.957031 310.605469 275.890625 312.09375 273.789062 313.53125 C 271.6875 314.972656 269.550781 316.355469 267.378906 317.6875 C 265.210938 319.019531 263.007812 320.296875 260.773438 321.515625 C 258.539062 322.738281 256.273438 323.902344 253.980469 325.011719 C 251.6875 326.117188 249.367188 327.167969 247.023438 328.160156 C 244.675781 329.152344 242.308594 330.085938 239.917969 330.957031 C 237.523438 331.832031 235.113281 332.644531 232.679688 333.398438 C 230.246094 334.152344 227.796875 334.84375 225.328125 335.472656 C 222.859375 336.101562 220.378906 336.671875 217.882812 337.175781 C 215.386719 337.683594 212.878906 338.125 210.363281 338.507812 C 207.84375 338.886719 205.316406 339.207031 202.785156 339.460938 C 200.25 339.714844 197.710938 339.90625 195.167969 340.03125 C 192.625 340.160156 190.078125 340.222656 187.53125 340.222656 C 184.984375 340.222656 182.441406 340.160156 179.898438 340.03125 C 177.355469 339.90625 174.816406 339.714844 172.28125 339.460938 C 169.746094 339.207031 167.222656 338.886719 164.703125 338.507812 C 162.183594 338.125 159.679688 337.683594 157.183594 337.175781 C 154.6875 336.671875 152.203125 336.101562 149.738281 335.472656 C 147.269531 334.84375 144.820312 334.152344 142.386719 333.398438 C 139.953125 332.644531 137.542969 331.832031 135.148438 330.957031 C 132.757812 330.085938 130.386719 329.152344 128.042969 328.160156 C 125.699219 327.167969 123.378906 326.117188 121.085938 325.011719 C 118.792969 323.902344 116.527344 322.738281 114.292969 321.515625 C 112.058594 320.296875 109.855469 319.019531 107.683594 317.6875 C 105.515625 316.355469 103.378906 314.972656 101.277344 313.53125 C 99.175781 312.09375 97.109375 310.605469 95.082031 309.0625 C 93.054688 307.523438 91.070312 305.929688 89.121094 304.289062 C 87.175781 302.648438 85.269531 300.960938 83.40625 299.222656 C 81.542969 297.488281 79.722656 295.707031 77.949219 293.878906 C 79.082031 291.203125 80.308594 288.574219 81.628906 285.988281 C 82.953125 283.40625 84.367188 280.871094 85.875 278.390625 C 87.382812 275.910156 88.980469 273.488281 90.667969 271.121094 C 92.351562 268.757812 94.121094 266.460938 95.976562 264.222656 C 97.828125 261.988281 99.761719 259.824219 101.773438 257.734375 C 103.789062 255.640625 105.875 253.625 108.035156 251.683594 C 110.195312 249.742188 112.421875 247.882812 114.71875 246.105469 C 117.015625 244.328125 119.371094 242.640625 121.792969 241.035156 C 124.210938 239.429688 126.6875 237.914062 129.21875 236.492188 C 131.75 235.070312 134.328125 233.742188 136.957031 232.507812 C 139.582031 231.273438 142.253906 230.136719 144.964844 229.097656 C 147.675781 228.058594 150.421875 227.117188 153.203125 226.28125 C 155.980469 225.441406 158.789062 224.707031 161.621094 224.074219 C 164.457031 223.441406 167.308594 222.914062 170.179688 222.492188 C 173.054688 222.066406 175.9375 221.75 178.832031 221.539062 C 181.730469 221.324219 184.628906 221.21875 187.53125 221.21875 C 190.4375 221.21875 193.335938 221.324219 196.230469 221.539062 C 199.128906 221.75 202.011719 222.066406 204.882812 222.492188 C 207.757812 222.914062 210.609375 223.441406 213.441406 224.074219 C 216.277344 224.707031 219.085938 225.441406 221.863281 226.28125 C 224.644531 227.117188 227.390625 228.058594 230.101562 229.097656 C 232.8125 230.136719 235.480469 231.273438 238.109375 232.507812 C 240.738281 233.742188 243.316406 235.070312 245.847656 236.492188 C 248.378906 237.914062 250.855469 239.429688 253.273438 241.035156 C 255.695312 242.640625 258.050781 244.328125 260.347656 246.105469 C 262.644531 247.882812 264.871094 249.742188 267.03125 251.683594 C 269.191406 253.625 271.277344 255.640625 273.289062 257.734375 C 275.304688 259.824219 277.234375 261.988281 279.089844 264.222656 C 280.945312 266.460938 282.714844 268.757812 284.398438 271.121094 C 286.085938 273.488281 287.679688 275.910156 289.191406 278.390625 C 290.699219 280.871094 292.113281 283.40625 293.4375 285.988281 C 294.757812 288.574219 295.984375 291.203125 297.113281 293.878906 Z M 297.113281 293.878906 " fill-opacity="1" fill-rule="nonzero"/></g><path fill="#ff9561" d="M 187.472656 187.53125 C 188.175781 187.53125 188.878906 187.566406 189.578125 187.636719 C 190.28125 187.707031 190.976562 187.808594 191.664062 187.945312 C 192.355469 188.082031 193.039062 188.253906 193.710938 188.457031 C 194.386719 188.664062 195.046875 188.898438 195.699219 189.167969 C 196.347656 189.4375 196.984375 189.738281 197.605469 190.070312 C 198.226562 190.402344 198.828125 190.765625 199.414062 191.15625 C 200 191.546875 200.5625 191.964844 201.105469 192.410156 C 201.652344 192.859375 202.171875 193.328125 202.671875 193.828125 C 203.167969 194.324219 203.640625 194.847656 204.085938 195.390625 C 204.53125 195.933594 204.953125 196.5 205.34375 197.085938 C 205.734375 197.667969 206.09375 198.273438 206.425781 198.894531 C 206.757812 199.515625 207.058594 200.148438 207.328125 200.800781 C 207.597656 201.449219 207.835938 202.113281 208.039062 202.785156 C 208.242188 203.460938 208.414062 204.140625 208.550781 204.832031 C 208.691406 205.523438 208.792969 206.21875 208.863281 206.917969 C 208.929688 207.617188 208.964844 208.320312 208.964844 209.023438 L 208.964844 227.980469 C 208.964844 228.6875 208.929688 229.386719 208.863281 230.089844 C 208.792969 230.789062 208.691406 231.484375 208.550781 232.175781 C 208.414062 232.863281 208.242188 233.546875 208.039062 234.21875 C 207.835938 234.894531 207.597656 235.554688 207.328125 236.207031 C 207.058594 236.855469 206.757812 237.492188 206.425781 238.113281 C 206.09375 238.734375 205.734375 239.335938 205.34375 239.921875 C 204.953125 240.507812 204.53125 241.070312 204.085938 241.617188 C 203.640625 242.160156 203.167969 242.679688 202.671875 243.179688 C 202.171875 243.675781 201.652344 244.148438 201.105469 244.59375 C 200.5625 245.042969 200 245.460938 199.414062 245.851562 C 198.828125 246.242188 198.226562 246.605469 197.605469 246.9375 C 196.984375 247.269531 196.347656 247.570312 195.699219 247.839844 C 195.046875 248.105469 194.386719 248.34375 193.710938 248.546875 C 193.039062 248.753906 192.355469 248.921875 191.664062 249.0625 C 190.976562 249.199219 190.28125 249.300781 189.578125 249.371094 C 188.878906 249.4375 188.175781 249.472656 187.472656 249.472656 C 186.769531 249.472656 186.066406 249.4375 185.367188 249.371094 C 184.664062 249.300781 183.96875 249.199219 183.28125 249.0625 C 182.589844 248.921875 181.90625 248.753906 181.234375 248.546875 C 180.558594 248.34375 179.898438 248.105469 179.25 247.839844 C 178.597656 247.570312 177.960938 247.269531 177.339844 246.9375 C 176.722656 246.605469 176.117188 246.242188 175.53125 245.851562 C 174.945312 245.460938 174.382812 245.042969 173.839844 244.59375 C 173.292969 244.148438 172.773438 243.675781 172.277344 243.179688 C 171.777344 242.679688 171.304688 242.160156 170.859375 241.617188 C 170.414062 241.070312 169.992188 240.507812 169.601562 239.921875 C 169.210938 239.335938 168.851562 238.734375 168.519531 238.113281 C 168.1875 237.492188 167.886719 236.855469 167.617188 236.207031 C 167.347656 235.554688 167.109375 234.894531 166.90625 234.21875 C 166.703125 233.546875 166.53125 232.863281 166.394531 232.175781 C 166.257812 231.484375 166.152344 230.789062 166.085938 230.089844 C 166.015625 229.386719 165.980469 228.6875 165.980469 227.980469 L 165.980469 209.023438 C 165.980469 208.320312 166.015625 207.617188 166.085938 206.917969 C 166.152344 206.21875 166.257812 205.523438 166.394531 204.832031 C 166.53125 204.140625 166.703125 203.460938 166.90625 202.785156 C 167.109375 202.113281 167.347656 201.449219 167.617188 200.800781 C 167.886719 200.148438 168.1875 199.515625 168.519531 198.894531 C 168.851562 198.273438 169.210938 197.667969 169.601562 197.085938 C 169.992188 196.5 170.414062 195.933594 170.859375 195.390625 C 171.304688 194.847656 171.777344 194.324219 172.277344 193.828125 C 172.773438 193.328125 173.292969 192.859375 173.839844 192.410156 C 174.382812 191.964844 174.945312 191.546875 175.53125 191.15625 C 176.117188 190.765625 176.722656 190.402344 177.339844 190.070312 C 177.960938 189.738281 178.597656 189.4375 179.25 189.167969 C 179.898438 188.898438 180.558594 188.664062 181.234375 188.457031 C 181.90625 188.253906 182.589844 188.082031 183.28125 187.945312 C 183.96875 187.808594 184.664062 187.707031 185.367188 187.636719 C 186.066406 187.566406 186.769531 187.53125 187.472656 187.53125 Z M 187.472656 187.53125 " fill-opacity="1" fill-rule="nonzero"/><path fill="#ff9561" d="M 148.300781 174 C 148.300781 174.890625 148.210938 175.773438 148.039062 176.644531 C 147.863281 177.519531 147.609375 178.367188 147.265625 179.1875 C 146.925781 180.011719 146.507812 180.789062 146.015625 181.53125 C 145.519531 182.269531 144.957031 182.957031 144.328125 183.585938 C 143.699219 184.214844 143.015625 184.777344 142.277344 185.269531 C 141.535156 185.765625 140.753906 186.183594 139.933594 186.523438 C 139.109375 186.863281 138.261719 187.121094 137.390625 187.292969 C 136.515625 187.46875 135.636719 187.554688 134.746094 187.554688 C 133.855469 187.554688 132.972656 187.46875 132.101562 187.292969 C 131.230469 187.121094 130.382812 186.863281 129.558594 186.523438 C 128.738281 186.183594 127.957031 185.765625 127.214844 185.269531 C 126.476562 184.777344 125.792969 184.214844 125.164062 183.585938 C 124.53125 182.957031 123.972656 182.269531 123.476562 181.53125 C 122.980469 180.789062 122.566406 180.011719 122.222656 179.1875 C 121.882812 178.367188 121.625 177.519531 121.453125 176.644531 C 121.277344 175.773438 121.191406 174.890625 121.191406 174 C 121.191406 173.109375 121.277344 172.230469 121.453125 171.355469 C 121.625 170.484375 121.882812 169.636719 122.222656 168.8125 C 122.566406 167.992188 122.980469 167.210938 123.476562 166.472656 C 123.972656 165.730469 124.53125 165.046875 125.164062 164.417969 C 125.792969 163.789062 126.476562 163.226562 127.214844 162.730469 C 127.957031 162.238281 128.738281 161.820312 129.558594 161.480469 C 130.382812 161.140625 131.230469 160.882812 132.101562 160.707031 C 132.972656 160.535156 133.855469 160.449219 134.746094 160.449219 C 135.636719 160.449219 136.515625 160.535156 137.390625 160.707031 C 138.261719 160.882812 139.109375 161.140625 139.933594 161.480469 C 140.753906 161.820312 141.535156 162.238281 142.277344 162.730469 C 143.015625 163.226562 143.699219 163.789062 144.328125 164.417969 C 144.957031 165.046875 145.519531 165.730469 146.015625 166.472656 C 146.507812 167.210938 146.925781 167.992188 147.265625 168.8125 C 147.609375 169.636719 147.863281 170.484375 148.039062 171.355469 C 148.210938 172.230469 148.300781 173.109375 148.300781 174 Z M 148.300781 174 " fill-opacity="1" fill-rule="nonzero"/><path fill="#ff9561" d="M 252.492188 174 C 252.492188 174.890625 252.40625 175.773438 252.230469 176.644531 C 252.058594 177.519531 251.800781 178.367188 251.460938 179.1875 C 251.121094 180.011719 250.703125 180.789062 250.207031 181.53125 C 249.714844 182.269531 249.152344 182.957031 248.523438 183.585938 C 247.890625 184.214844 247.207031 184.777344 246.46875 185.269531 C 245.726562 185.765625 244.945312 186.183594 244.125 186.523438 C 243.300781 186.863281 242.457031 187.121094 241.582031 187.292969 C 240.710938 187.46875 239.828125 187.554688 238.9375 187.554688 C 238.046875 187.554688 237.167969 187.46875 236.292969 187.292969 C 235.421875 187.121094 234.574219 186.863281 233.75 186.523438 C 232.929688 186.183594 232.148438 185.765625 231.410156 185.269531 C 230.667969 184.777344 229.984375 184.214844 229.355469 183.585938 C 228.726562 182.957031 228.164062 182.269531 227.667969 181.53125 C 227.175781 180.789062 226.757812 180.011719 226.417969 179.1875 C 226.074219 178.367188 225.820312 177.519531 225.644531 176.644531 C 225.472656 175.773438 225.386719 174.890625 225.386719 174 C 225.386719 173.109375 225.472656 172.230469 225.644531 171.355469 C 225.820312 170.484375 226.074219 169.636719 226.417969 168.8125 C 226.757812 167.992188 227.175781 167.210938 227.667969 166.472656 C 228.164062 165.730469 228.726562 165.046875 229.355469 164.417969 C 229.984375 163.789062 230.667969 163.226562 231.410156 162.730469 C 232.148438 162.238281 232.929688 161.820312 233.75 161.480469 C 234.574219 161.140625 235.421875 160.882812 236.292969 160.707031 C 237.167969 160.535156 238.046875 160.449219 238.9375 160.449219 C 239.828125 160.449219 240.710938 160.535156 241.582031 160.707031 C 242.457031 160.882812 243.300781 161.140625 244.125 161.480469 C 244.945312 161.820312 245.726562 162.238281 246.46875 162.730469 C 247.207031 163.226562 247.890625 163.789062 248.523438 164.417969 C 249.152344 165.046875 249.714844 165.730469 250.207031 166.472656 C 250.703125 167.210938 251.121094 167.992188 251.460938 168.8125 C 251.800781 169.636719 252.058594 170.484375 252.230469 171.355469 C 252.40625 172.230469 252.492188 173.109375 252.492188 174 Z M 252.492188 174 " fill-opacity="1" fill-rule="nonzero"/><path fill="#ffc9ac" d="M 187.53125 102 C 189.261719 102 190.984375 102.085938 192.707031 102.253906 C 194.425781 102.421875 196.132812 102.675781 197.828125 103.015625 C 199.527344 103.351562 201.199219 103.769531 202.855469 104.273438 C 204.507812 104.773438 206.136719 105.355469 207.730469 106.019531 C 209.328125 106.679688 210.890625 107.417969 212.414062 108.234375 C 213.941406 109.046875 215.421875 109.933594 216.859375 110.894531 C 218.296875 111.855469 219.683594 112.886719 221.019531 113.980469 C 222.355469 115.078125 223.636719 116.238281 224.855469 117.460938 C 226.078125 118.683594 227.238281 119.960938 228.335938 121.300781 C 229.433594 122.636719 230.460938 124.023438 231.421875 125.460938 C 232.382812 126.898438 233.269531 128.378906 234.085938 129.902344 C 234.898438 131.425781 235.636719 132.988281 236.300781 134.585938 C 236.960938 136.183594 237.542969 137.808594 238.046875 139.464844 C 238.546875 141.117188 238.964844 142.792969 239.304688 144.488281 C 239.640625 146.183594 239.894531 147.890625 240.0625 149.613281 C 240.234375 151.332031 240.316406 153.058594 240.316406 154.785156 L 240.316406 168.429688 C 240.316406 170.160156 240.234375 171.886719 240.0625 173.605469 C 239.894531 175.324219 239.640625 177.035156 239.304688 178.730469 C 238.964844 180.425781 238.546875 182.101562 238.046875 183.753906 C 237.542969 185.410156 236.960938 187.035156 236.300781 188.632812 C 235.636719 190.230469 234.898438 191.789062 234.085938 193.316406 C 233.269531 194.839844 232.382812 196.320312 231.421875 197.757812 C 230.460938 199.195312 229.433594 200.582031 228.335938 201.917969 C 227.238281 203.253906 226.078125 204.535156 224.855469 205.757812 C 223.636719 206.980469 222.355469 208.140625 221.019531 209.234375 C 219.683594 210.332031 218.296875 211.363281 216.859375 212.320312 C 215.421875 213.28125 213.941406 214.171875 212.414062 214.984375 C 210.890625 215.800781 209.328125 216.539062 207.730469 217.199219 C 206.136719 217.863281 204.507812 218.445312 202.855469 218.945312 C 201.199219 219.445312 199.527344 219.867188 197.828125 220.203125 C 196.132812 220.542969 194.425781 220.792969 192.707031 220.964844 C 190.984375 221.132812 189.261719 221.21875 187.53125 221.21875 C 185.804688 221.21875 184.078125 221.132812 182.359375 220.964844 C 180.636719 220.792969 178.929688 220.542969 177.234375 220.203125 C 175.539062 219.867188 173.863281 219.445312 172.207031 218.945312 C 170.554688 218.445312 168.929688 217.863281 167.332031 217.199219 C 165.734375 216.539062 164.171875 215.800781 162.648438 214.984375 C 161.125 214.171875 159.644531 213.28125 158.207031 212.320312 C 156.769531 211.363281 155.382812 210.332031 154.042969 209.234375 C 152.707031 208.140625 151.429688 206.980469 150.207031 205.757812 C 148.984375 204.535156 147.824219 203.253906 146.726562 201.917969 C 145.632812 200.582031 144.601562 199.195312 143.640625 197.757812 C 142.679688 196.320312 141.792969 194.839844 140.980469 193.316406 C 140.164062 191.789062 139.425781 190.230469 138.765625 188.632812 C 138.101562 187.035156 137.519531 185.410156 137.019531 183.753906 C 136.515625 182.101562 136.097656 180.425781 135.761719 178.730469 C 135.421875 177.035156 135.167969 175.324219 135 173.605469 C 134.832031 171.886719 134.746094 170.160156 134.746094 168.429688 L 134.746094 154.785156 C 134.746094 153.058594 134.832031 151.332031 135 149.613281 C 135.167969 147.890625 135.421875 146.183594 135.761719 144.488281 C 136.097656 142.792969 136.515625 141.117188 137.019531 139.464844 C 137.519531 137.808594 138.101562 136.183594 138.765625 134.585938 C 139.425781 132.988281 140.164062 131.425781 140.980469 129.902344 C 141.792969 128.378906 142.679688 126.898438 143.640625 125.460938 C 144.601562 124.023438 145.632812 122.636719 146.726562 121.300781 C 147.824219 119.960938 148.984375 118.683594 150.207031 117.460938 C 151.429688 116.238281 152.707031 115.078125 154.042969 113.980469 C 155.382812 112.886719 156.769531 111.855469 158.207031 110.894531 C 159.644531 109.933594 161.125 109.046875 162.648438 108.234375 C 164.171875 107.417969 165.734375 106.679688 167.332031 106.019531 C 168.929688 105.355469 170.554688 104.773438 172.207031 104.273438 C 173.863281 103.769531 175.539062 103.351562 177.234375 103.015625 C 178.929688 102.675781 180.636719 102.421875 182.359375 102.253906 C 184.078125 102.085938 185.804688 102 187.53125 102 Z M 187.53125 102 " fill-opacity="1" fill-rule="nonzero"/><path fill="#002c5c" d="M 134.746094 160.449219 C 205.644531 161.167969 225.386719 121.019531 225.386719 121.019531 C 225.386719 121.019531 228.734375 153.144531 240.316406 161.605469 C 246.375 127.902344 228.585938 97.21875 182.417969 94.925781 C 136.25 92.632812 123.78125 145.386719 134.746094 160.449219 Z M 134.746094 160.449219 " fill-opacity="1" fill-rule="nonzero"/></svg>