<svg xmlns="http://www.w3.org/2000/svg" xmlns:xlink="http://www.w3.org/1999/xlink" width="500" zoomAndPan="magnify" viewBox="0 0 375 374.999991" height="500" preserveAspectRatio="xMidYMid meet" version="1.0"><defs><clipPath id="b5e09aa890"><path d="M 112.5 112.5 L 262.5 112.5 L 262.5 262.5 L 112.5 262.5 Z M 112.5 112.5 " clip-rule="nonzero"/></clipPath></defs><g clip-path="url(#b5e09aa890)"><path fill="#4b81d7" d="M 247.019531 141.832031 C 237.03125 128.8125 222.804688 119.296875 206.953125 115.050781 C 200.671875 113.363281 194.15625 112.511719 187.589844 112.511719 C 177.632812 112.511719 167.964844 114.421875 158.859375 118.195312 C 143.699219 124.472656 130.828125 135.757812 122.625 149.96875 C 116 161.34375 112.5 174.3125 112.5 187.472656 C 112.5 200.632812 116 213.601562 122.671875 225.046875 C 122.757812 225.15625 122.839844 225.269531 122.929688 225.425781 L 123.003906 225.535156 C 131.820312 240.574219 145.707031 252.121094 162.105469 258.046875 C 170.304688 261.007812 178.917969 262.488281 187.53125 262.488281 C 196.148438 262.488281 204.761719 261.007812 212.960938 258.046875 C 229.25 252.160156 243.078125 240.710938 251.933594 225.75 L 252 225.601562 C 252.125 225.371094 252.222656 225.222656 252.339844 225.066406 L 252.429688 224.933594 C 259.027344 213.617188 262.507812 200.664062 262.5 187.472656 L 262.5 186.785156 C 262.355469 170.621094 256.855469 154.65625 247.019531 141.832031 Z M 219.613281 204.757812 C 220.210938 199.039062 220.519531 193.222656 220.53125 187.46875 C 220.519531 181.714844 220.210938 175.902344 219.613281 170.1875 L 219.425781 168.417969 L 221.175781 168.085938 C 229.152344 166.554688 236.917969 164.019531 244.253906 160.539062 L 246.046875 159.691406 L 246.855469 161.503906 C 250.527344 169.730469 252.390625 178.46875 252.390625 187.472656 C 252.390625 196.484375 250.527344 205.222656 246.855469 213.445312 L 246.046875 215.257812 L 244.257812 214.410156 C 236.917969 210.9375 229.152344 208.398438 221.175781 206.867188 L 219.425781 206.527344 Z M 135.371094 225.925781 L 133.960938 224.007812 L 136.125 223.015625 C 142.179688 220.246094 148.558594 218.175781 155.078125 216.859375 L 157.027344 216.46875 L 157.371094 218.421875 C 159 227.652344 161.894531 236.613281 165.972656 245.050781 L 168.148438 249.550781 L 163.507812 247.695312 C 152.277344 243.195312 142.546875 235.667969 135.371094 225.925781 Z M 163.511719 127.292969 L 168.1875 125.390625 L 165.984375 129.929688 C 161.898438 138.367188 159 147.320312 157.371094 156.542969 L 157.023438 158.5 L 155.074219 158.105469 C 148.546875 156.78125 142.171875 154.707031 136.125 151.9375 L 134.015625 150.972656 L 135.449219 148.898438 L 135.464844 148.875 C 135.5625 148.71875 135.664062 148.566406 135.777344 148.417969 C 136.191406 147.871094 136.636719 147.347656 137.082031 146.828125 C 137.296875 146.574219 137.515625 146.324219 137.722656 146.070312 C 138.75 144.839844 139.859375 143.53125 141.042969 142.304688 C 141.714844 141.609375 142.421875 140.960938 143.042969 140.390625 L 143.445312 140.023438 C 144.5625 138.980469 145.765625 137.878906 147.082031 136.863281 C 147.828125 136.25 148.671875 135.644531 149.414062 135.109375 L 149.730469 134.878906 C 150.964844 133.988281 152.269531 133.121094 153.609375 132.292969 C 154.570312 131.703125 155.542969 131.132812 156.511719 130.601562 C 157.78125 129.9375 159.257812 129.171875 160.753906 128.5 C 161.65625 128.089844 162.574219 127.671875 163.511719 127.292969 Z M 165.277344 171.996094 L 165.457031 170 L 167.445312 170.25 C 174.082031 171.070312 180.832031 171.507812 187.511719 171.546875 C 194.171875 171.511719 200.914062 171.070312 207.539062 170.25 L 209.523438 170 L 209.707031 171.992188 C 210.179688 177.042969 210.414062 182.253906 210.414062 187.476562 C 210.414062 192.605469 210.183594 197.671875 209.707031 202.960938 L 209.53125 204.945312 L 207.554688 204.710938 C 200.898438 203.9375 194.195312 203.550781 187.492188 203.550781 C 180.789062 203.550781 174.085938 203.9375 167.429688 204.710938 L 165.453125 204.945312 L 165.273438 202.960938 C 164.800781 197.671875 164.566406 192.605469 164.566406 187.476562 C 164.570312 182.335938 164.800781 177.273438 165.277344 171.996094 Z M 206.027344 160.246094 C 193.777344 161.644531 181.207031 161.644531 168.960938 160.246094 L 166.878906 160.007812 L 167.277344 157.953125 C 171.382812 136.796875 179.503906 122.582031 187.496094 122.582031 C 195.484375 122.582031 203.605469 136.796875 207.707031 157.953125 L 208.109375 160.007812 Z M 168.960938 214.707031 C 181.257812 213.304688 193.730469 213.304688 206.023438 214.707031 L 208.105469 214.941406 L 207.703125 217 C 203.605469 238.15625 195.480469 252.371094 187.492188 252.371094 C 179.503906 252.371094 171.378906 238.15625 167.277344 217 L 166.878906 214.941406 Z M 206.835938 249.550781 L 209.015625 245.050781 C 213.097656 236.613281 215.988281 227.652344 217.617188 218.425781 L 217.960938 216.46875 L 219.90625 216.859375 C 226.421875 218.175781 232.800781 220.246094 238.859375 223.015625 L 241.027344 224.003906 L 239.617188 225.925781 C 232.445312 235.671875 222.714844 243.199219 211.476562 247.695312 Z M 238.84375 151.941406 C 232.789062 154.710938 226.410156 156.785156 219.890625 158.101562 L 217.945312 158.492188 L 217.601562 156.535156 C 215.980469 147.320312 213.09375 138.371094 209.019531 129.9375 L 206.855469 125.449219 L 211.484375 127.296875 C 212.410156 127.664062 213.3125 128.074219 214.21875 128.488281 C 215.808594 129.203125 217.210938 129.898438 218.507812 130.617188 C 219.460938 131.136719 220.394531 131.691406 221.324219 132.253906 C 222.695312 133.09375 224.042969 134 225.339844 134.945312 C 226.261719 135.609375 227.09375 136.210938 227.917969 136.878906 C 229.039062 137.769531 230.222656 138.804688 231.640625 140.128906 L 232.304688 140.75 C 232.847656 141.257812 233.394531 141.761719 233.925781 142.332031 C 235.113281 143.546875 236.234375 144.875 237.375 146.25 L 237.941406 146.917969 C 238.351562 147.402344 238.761719 147.886719 239.148438 148.363281 C 239.289062 148.546875 239.394531 148.707031 239.503906 148.878906 L 241.015625 150.945312 Z M 155.371094 170.195312 C 154.152344 181.660156 154.152344 193.289062 155.371094 204.753906 L 155.5625 206.527344 L 153.8125 206.867188 C 145.828125 208.394531 138.0625 210.933594 130.730469 214.40625 L 128.941406 215.257812 L 128.132812 213.449219 C 124.460938 205.222656 122.597656 196.484375 122.597656 187.476562 C 122.597656 178.46875 124.460938 169.730469 128.132812 161.503906 L 128.9375 159.695312 L 130.730469 160.542969 C 138.074219 164.015625 145.839844 166.554688 153.8125 168.085938 L 155.5625 168.421875 Z M 155.371094 170.195312 " fill-opacity="1" fill-rule="nonzero"/></g></svg>